<?xml version="1.0" standalone="no"?>
<!DOCTYPE svg PUBLIC "-//W3C//DTD SVG 1.1//EN" "http://www.w3.org/Graphics/SVG/1.1/DTD/svg11.dtd" >
<svg xmlns="http://www.w3.org/2000/svg" xmlns:xlink="http://www.w3.org/1999/xlink" version="1.1">
<metadata>
Created by FontForge 20170910 at Mon Oct 26 22:54:20 2015
 By Jimmy Wärting
Copyright \(c\) 2015 by Radomir Tinkov. All rights reserved.
</metadata>
<defs>
<font id="Qanelas-LightItalic" horiz-adv-x="524" >
  <font-face 
    font-family="Qanelas Light Italic"
    font-weight="300"
    font-style="italic"
    font-stretch="normal"
    units-per-em="1000"
    panose-1="0 0 4 0 0 0 0 0 0 0"
    ascent="800"
    descent="-200"
    x-height="500"
    cap-height="700"
    bbox="-296 -240 1038.46 960"
    underline-thickness="50"
    underline-position="-100"
    slope="-10"
    unicode-range="U+0020-FB02"
  />
<missing-glyph horiz-adv-x="500" 
d="M410 800v-1000h-317v1000h317zM333 733h-165v-33h65v-37h-66v-33h166v33h-66v37h66v33zM267 604h-100v-104h166v34h-66v70zM233 570v-36h-33v36h33zM333 473h-166v-33h66v-37h-66v-33h100v70h66v33zM333 413h-33v-66h-133v-34h166v100zM333 291h-100v-56h34v23h33v-47
h-100v80h-33v-113h166v113zM333 118h-166v-113h166v113zM300 85v-47h-100v47h100zM333 -18h-166v-33h70l-70 -47v-33h166v33h-102l70 47h32v33z" />
    <glyph glyph-name="f_f" unicode="ff" horiz-adv-x="576" 
d="M427 537c21 127 103 194 232 184l-8 -48c-102 8 -156 -39 -174 -136l-6 -37h149l-8 -49h-150l-79 -451h-51l80 451h-87h-132l-80 -451h-50l79 451h-86l8 49h87l5 27c22 127 102 194 232 184l-9 -48c-100 8 -155 -39 -173 -136l-4 -27h148h70z" />
    <glyph glyph-name="f_f_i" unicode="ffi" horiz-adv-x="773" 
d="M651 673c-103 0 -156 -39 -174 -136l-6 -37h242h28l-88 -500h-51l79 451h-219l-79 -451h-51l80 451h-87h-132l-80 -451h-50l79 451h-86l8 49h87l5 27c22 128 102 194 232 184l-9 -48c-100 8 -155 -39 -173 -136l-4 -27h148h70l7 37c21 128 101 184 232 184
c33 0 63 -4 95 -11l-7 -46c-32 6 -63 9 -96 9z" />
    <glyph glyph-name="f_f_l" unicode="ffl" horiz-adv-x="773" 
d="M659 721c43 0 79 -4 119 -11l-125 -710h-51l118 671c-22 3 -45 4 -69 4c-102 0 -156 -41 -174 -138l-6 -37h119l-8 -49h-120l-79 -451h-51l80 451h-87h-132l-80 -451h-50l79 451h-86l8 49h87l5 27c22 128 102 194 232 184l-9 -48c-100 8 -155 -39 -173 -136l-4 -27h148
h70l7 37c21 128 101 184 232 184z" />
    <glyph glyph-name="fi" unicode="fi" horiz-adv-x="504" 
d="M379 663c-102 0 -155 -39 -173 -136l-4 -27h242h27l-88 -500h-51l80 451h-219l-80 -451h-50l79 451h-86l8 49h87l5 27c22 128 101 184 232 184c33 0 63 -4 95 -11l-8 -46c-32 6 -63 9 -96 9z" />
    <glyph glyph-name="fl" unicode="fl" horiz-adv-x="504" 
d="M388 711c43 0 78 -4 118 -11l-123 -700h-51l117 661c-23 3 -46 4 -69 4c-103 0 -156 -41 -174 -138l-4 -27h118l-8 -49h-119l-80 -451h-50l79 451h-86l8 49h87l5 27c22 128 101 184 232 184z" />
    <glyph glyph-name=".notdef" horiz-adv-x="500" 
d="M410 800v-1000h-317v1000h317zM333 733h-165v-33h65v-37h-66v-33h166v33h-66v37h66v33zM267 604h-100v-104h166v34h-66v70zM233 570v-36h-33v36h33zM333 473h-166v-33h66v-37h-66v-33h100v70h66v33zM333 413h-33v-66h-133v-34h166v100zM333 291h-100v-56h34v23h33v-47
h-100v80h-33v-113h166v113zM333 118h-166v-113h166v113zM300 85v-47h-100v47h100zM333 -18h-166v-33h70l-70 -47v-33h166v33h-102l70 47h32v33z" />
    <glyph glyph-name="A" unicode="A" horiz-adv-x="629" 
d="M516 0l-37 178h-350l-100 -178h-58l395 700h56l148 -700h-54zM157 228h312l-83 407z" />
    <glyph glyph-name="Aacute" unicode="&#xc1;" horiz-adv-x="629" 
d="M527 897l-112 -127h-50l100 127h62zM516 0l-37 178h-350l-100 -178h-58l395 700h56l148 -700h-54zM157 228h312l-83 407z" />
    <glyph glyph-name="Abreve" unicode="&#x102;" horiz-adv-x="629" 
d="M406 765c-76 0 -127 46 -113 122h48c-9 -54 18 -78 71 -78s90 28 99 78h48c-13 -76 -68 -122 -153 -122zM516 0l-37 178h-350l-100 -178h-58l395 700h56l148 -700h-54zM157 228h312l-83 407z" />
    <glyph glyph-name="Acircumflex" unicode="&#xc2;" horiz-adv-x="629" 
d="M425 865l-97 -95h-60l130 127h59l87 -127h-55zM516 0l-37 178h-350l-100 -178h-58l395 700h56l148 -700h-54zM157 228h312l-83 407z" />
    <glyph glyph-name="Adieresis" unicode="&#xc4;" horiz-adv-x="629" 
d="M354 853l-13 -73h-60l13 73h60zM547 853l-13 -73h-60l13 73h60zM516 0l-37 178h-350l-100 -178h-58l395 700h56l148 -700h-54zM157 228h312l-83 407z" />
    <glyph glyph-name="Agrave" unicode="&#xc0;" horiz-adv-x="629" 
d="M441 770h-48l-70 127h60zM516 0l-37 178h-350l-100 -178h-58l395 700h56l148 -700h-54zM157 228h312l-83 407z" />
    <glyph glyph-name="Amacron" unicode="&#x100;" horiz-adv-x="629" 
d="M543 831l-7 -44h-254l8 44h253zM516 0l-37 178h-350l-100 -178h-58l395 700h56l148 -700h-54zM157 228h312l-83 407z" />
    <glyph glyph-name="Aogonek" unicode="&#x104;" horiz-adv-x="629" 
d="M464 -130c-4 -25 10 -38 34 -38c17 0 30 2 44 8l-7 -41c-16 -7 -34 -10 -56 -10c-47 0 -73 33 -65 76c7 41 40 87 101 136l-36 177h-350l-100 -178h-58l395 700h56l148 -700c-59 -46 -99 -93 -106 -130zM157 228h312l-84 407z" />
    <glyph glyph-name="Aring" unicode="&#xc5;" horiz-adv-x="629" 
d="M403 753c-58 0 -95 44 -85 99s56 95 119 95c58 0 95 -44 86 -99c-10 -55 -56 -95 -120 -95zM361 850c-6 -33 12 -57 49 -57c38 0 65 24 71 57c5 33 -13 57 -51 57c-37 0 -64 -24 -69 -57zM516 0l-37 178h-350l-100 -178h-58l395 700h56l148 -700h-54zM157 228h312
l-83 407z" />
    <glyph glyph-name="Atilde" unicode="&#xc3;" horiz-adv-x="629" 
d="M412 811c-48 49 -81 49 -95 -28h-44c18 115 92 134 151 74c47 -48 81 -49 95 28h44c-19 -114 -92 -133 -151 -74zM516 0l-37 178h-350l-100 -178h-58l395 700h56l148 -700h-54zM157 228h312l-83 407z" />
    <glyph glyph-name="AE" unicode="&#xc6;" horiz-adv-x="873" 
d="M895 650h-322l-48 -272h304l-9 -50h-304l-49 -278h327l-9 -50h-356h-24l32 183h-270l-144 -183h-64l552 700h41h30h321zM206 233h240l69 394z" />
    <glyph glyph-name="B" unicode="B" horiz-adv-x="683" 
d="M534 440c81 -36 125 -119 108 -218c-22 -119 -119 -222 -260 -222h-329h-10l123 700h53h206c118 0 175 -82 159 -165c-7 -36 -25 -68 -50 -95zM430 650h-220l-33 -190h260c16 0 32 -1 46 -4c25 20 42 49 48 81c11 62 -26 113 -101 113zM590 230c18 100 -38 180 -142 180
h-280l-63 -360h279c104 0 189 81 206 180z" />
    <glyph glyph-name="C" unicode="C" horiz-adv-x="769" 
d="M363 -11c-209 0 -333 169 -298 368c35 200 210 354 421 354c146 0 270 -92 290 -224h-57c-21 102 -111 173 -237 173c-186 0 -335 -138 -365 -310s73 -310 257 -310c121 0 239 71 297 173h58c-67 -132 -207 -224 -366 -224z" />
    <glyph glyph-name="Cacute" unicode="&#x106;" horiz-adv-x="769" 
d="M461 770h50l112 127h-62zM363 -11c-209 0 -333 169 -298 368c35 200 210 354 421 354c146 0 270 -92 290 -224h-57c-21 102 -111 173 -237 173c-186 0 -335 -138 -365 -310s73 -310 257 -310c121 0 239 71 297 173h58c-67 -132 -207 -224 -366 -224z" />
    <glyph glyph-name="Ccaron" unicode="&#x10c;" horiz-adv-x="769" 
d="M472 770l-86 127h54l64 -94l96 94h61l-130 -127h-59zM374 40c121 0 239 71 297 173h58c-67 -132 -207 -224 -366 -224c-209 0 -333 169 -298 368c35 200 210 354 421 354c146 0 270 -92 290 -224h-57c-21 102 -111 173 -237 173c-186 0 -335 -138 -365 -310
s73 -310 257 -310z" />
    <glyph glyph-name="Ccedilla" unicode="&#xc7;" horiz-adv-x="769" 
d="M374 40c121 0 239 71 297 173h58c-64 -125 -193 -215 -342 -224l-8 -45c49 -6 85 -36 78 -79c-9 -49 -57 -89 -209 -76l8 41c98 -10 150 7 156 39c5 29 -26 45 -84 43l14 77c-196 11 -311 176 -277 368c35 200 210 354 421 354c146 0 270 -92 290 -224h-57
c-21 102 -111 173 -237 173c-186 0 -335 -138 -365 -310s73 -310 257 -310z" />
    <glyph glyph-name="Cdotaccent" unicode="&#x10a;" horiz-adv-x="769" 
d="M470 780l15 83h67l-15 -83h-67zM363 -11c-209 0 -333 169 -298 368c35 200 210 354 421 354c146 0 270 -92 290 -224h-57c-21 102 -111 173 -237 173c-186 0 -335 -138 -365 -310s73 -310 257 -310c121 0 239 71 297 173h58c-67 -132 -207 -224 -366 -224z" />
    <glyph glyph-name="D" unicode="D" horiz-adv-x="748" 
d="M449 700c188 0 303 -165 269 -358s-194 -342 -392 -342h-260h-23l123 700h53h230zM666 350c28 165 -60 300 -225 300h-231l-105 -600h230c165 0 301 134 331 300z" />
    <glyph glyph-name="Eth" unicode="&#xd0;" horiz-adv-x="768" 
d="M469 700c188 0 303 -165 269 -358s-194 -342 -392 -342h-260h-23l57 326h-67l9 48h67l57 326h53h230zM686 350c28 165 -60 300 -225 300h-231l-48 -276h240l-9 -48h-240l-48 -276h230c165 0 301 134 331 300z" />
    <glyph glyph-name="Dcaron" unicode="&#x10e;" horiz-adv-x="748" 
d="M412 770l-86 127h54l64 -94l96 94h61l-130 -127h-59zM449 700c188 0 303 -165 269 -358s-194 -342 -392 -342h-260h-23l123 700h53h230zM666 350c28 165 -60 300 -225 300h-231l-105 -600h230c165 0 301 134 331 300z" />
    <glyph glyph-name="Dcroat" unicode="&#x110;" horiz-adv-x="768" 
d="M469 700c188 0 303 -165 269 -358s-194 -342 -392 -342h-260h-23l57 326h-67l9 48h67l57 326h53h230zM686 350c28 165 -60 300 -225 300h-231l-48 -276h240l-9 -48h-240l-48 -276h230c165 0 301 134 331 300z" />
    <glyph glyph-name="E" unicode="E" horiz-adv-x="520" 
d="M542 650h-332l-48 -272h307l-9 -50h-306l-49 -278h337l-9 -50h-367h-23l123 700h53h332z" />
    <glyph glyph-name="Eacute" unicode="&#xc9;" horiz-adv-x="520" 
d="M490 897l-112 -127h-50l100 127h62zM542 650h-332l-48 -272h307l-9 -50h-306l-49 -278h337l-9 -50h-367h-23l123 700h53h332z" />
    <glyph glyph-name="Ecaron" unicode="&#x11a;" horiz-adv-x="520" 
d="M339 770l-86 127h54l64 -94l96 94h61l-130 -127h-59zM542 650h-332l-48 -272h307l-9 -50h-306l-49 -278h337l-9 -50h-367h-23l123 700h53h332z" />
    <glyph glyph-name="Ecircumflex" unicode="&#xca;" horiz-adv-x="520" 
d="M388 865l-97 -95h-60l130 127h59l87 -127h-55zM542 650h-332l-48 -272h307l-9 -50h-306l-49 -278h337l-9 -50h-367h-23l123 700h53h332z" />
    <glyph glyph-name="Edieresis" unicode="&#xcb;" horiz-adv-x="520" 
d="M317 853l-13 -73h-60l13 73h60zM510 853l-13 -73h-60l13 73h60zM542 650h-332l-48 -272h307l-9 -50h-306l-49 -278h337l-9 -50h-367h-23l123 700h53h332z" />
    <glyph glyph-name="Edotaccent" unicode="&#x116;" horiz-adv-x="520" 
d="M419 863l-15 -83h-67l15 83h67zM542 650h-332l-48 -272h307l-9 -50h-306l-49 -278h337l-9 -50h-367h-23l123 700h53h332z" />
    <glyph glyph-name="Egrave" unicode="&#xc8;" horiz-adv-x="520" 
d="M404 770h-48l-70 127h60zM542 650h-332l-48 -272h307l-9 -50h-306l-49 -278h337l-9 -50h-367h-23l123 700h53h332z" />
    <glyph glyph-name="Emacron" unicode="&#x112;" horiz-adv-x="520" 
d="M506 831l-7 -44h-254l8 44h253zM542 650h-332l-48 -272h307l-9 -50h-306l-49 -278h337l-9 -50h-367h-23l123 700h53h332z" />
    <glyph glyph-name="Eogonek" unicode="&#x118;" horiz-adv-x="521" 
d="M542 650h-332l-48 -272h307l-9 -50h-306l-49 -278h337l-9 -50c-60 -45 -100 -90 -106 -127c-4 -24 9 -41 34 -41c16 0 29 3 44 9l-8 -43c-15 -7 -32 -9 -54 -9c-53 0 -74 39 -67 80c7 43 41 86 102 131h-312h-23l123 700h53h332z" />
    <glyph glyph-name="F" unicode="F" horiz-adv-x="502" 
d="M542 650h-332l-52 -300h320l-9 -50h-320l-53 -300h-53l123 700h53h332z" />
    <glyph glyph-name="G" unicode="G" horiz-adv-x="800" 
d="M432 295l8 50h310l-8 -50h-1l-52 -295h-53l21 121c-67 -91 -176 -132 -291 -132c-215 0 -335 174 -300 374s210 348 422 348c152 0 264 -94 282 -224h-55c-17 102 -110 173 -234 173c-180 0 -332 -132 -361 -304c-31 -172 70 -316 255 -316c136 0 271 68 306 214l7 41
h-256z" />
    <glyph glyph-name="Gbreve" unicode="&#x11e;" horiz-adv-x="800" 
d="M494 765c-76 0 -127 46 -113 122h48c-9 -54 18 -78 71 -78s90 28 99 78h48c-13 -76 -68 -122 -153 -122zM432 295l8 50h310l-8 -50h-1l-52 -295h-53l21 121c-67 -91 -176 -132 -291 -132c-215 0 -335 174 -300 374s210 348 422 348c152 0 264 -94 282 -224h-55
c-17 102 -110 173 -234 173c-180 0 -332 -132 -361 -304c-31 -172 70 -316 255 -316c136 0 271 68 306 214l7 41h-256z" />
    <glyph glyph-name="Gcommaaccent" unicode="&#x122;" horiz-adv-x="800" 
d="M432 295l8 50h310l-8 -50h-1l-52 -295h-53l21 121c-67 -91 -176 -132 -291 -132c-215 0 -335 174 -300 374s210 348 422 348c152 0 264 -94 282 -224h-55c-17 102 -110 173 -234 173c-180 0 -332 -132 -361 -304c-31 -172 70 -316 255 -316c136 0 271 68 306 214l7 41
h-256zM309 -240l40 170h51l-55 -170h-36z" />
    <glyph glyph-name="Gdotaccent" unicode="&#x120;" horiz-adv-x="800" 
d="M544 863l-15 -83h-67l15 83h67zM432 295l8 50h310l-8 -50h-1l-52 -295h-53l21 121c-67 -91 -176 -132 -291 -132c-215 0 -335 174 -300 374s210 348 422 348c152 0 264 -94 282 -224h-55c-17 102 -110 173 -234 173c-180 0 -332 -132 -361 -304
c-31 -172 70 -316 255 -316c136 0 271 68 306 214l7 41h-256z" />
    <glyph glyph-name="H" unicode="H" horiz-adv-x="633" 
d="M572 700h54l-123 -700h-54l59 335h-353l-59 -335h-53l123 700h53l-55 -315h353z" />
    <glyph glyph-name="Hbar" unicode="&#x126;" horiz-adv-x="687" 
d="M695 562l-8 -44h-67l-91 -518h-53l59 335h-353l-59 -335h-54l91 518h-66l8 44h66l24 138h54l-25 -138h354l24 138h53l-24 -138h67zM544 385l23 133h-353l-24 -133h354z" />
    <glyph glyph-name="I" unicode="I" horiz-adv-x="227" 
d="M166 700h53l-123 -700h-53z" />
    <glyph glyph-name="Iacute" unicode="&#xcd;" horiz-adv-x="227" 
d="M164 770h50l112 127h-62zM166 700h53l-123 -700h-53z" />
    <glyph glyph-name="Icircumflex" unicode="&#xce;" horiz-adv-x="227" 
d="M343 770h-55l-64 95l-97 -95h-60l130 127h59zM43 0l123 700h53l-123 -700h-53z" />
    <glyph glyph-name="Idieresis" unicode="&#xcf;" horiz-adv-x="227" 
d="M80 780l13 73h60l-13 -73h-60zM273 780l13 73h60l-13 -73h-60zM166 700h53l-123 -700h-53z" />
    <glyph glyph-name="Idotaccent" unicode="&#x130;" horiz-adv-x="227" 
d="M173 780l15 83h67l-15 -83h-67zM166 700h53l-123 -700h-53z" />
    <glyph glyph-name="Igrave" unicode="&#xcc;" horiz-adv-x="227" 
d="M240 770l-58 127h-60l70 -127h48zM166 700h53l-123 -700h-53z" />
    <glyph glyph-name="Imacron" unicode="&#x12a;" horiz-adv-x="227" 
d="M81 787l8 44h253l-7 -44h-254zM166 700h53l-123 -700h-53z" />
    <glyph glyph-name="Iogonek" unicode="&#x12e;" horiz-adv-x="227" 
d="M26 -127c-5 -28 9 -41 34 -41c16 0 29 3 44 9l-7 -42c-15 -7 -33 -10 -56 -10c-47 0 -72 33 -65 80c7 41 35 92 67 135l123 696h53l-123 -700c-36 -48 -63 -87 -70 -127z" />
    <glyph glyph-name="J" unicode="J" horiz-adv-x="534" 
d="M197 -11c-108 0 -204 70 -180 203l1 8h54l-2 -8c-18 -100 41 -152 135 -152c91 0 170 52 188 152l89 508h54l-89 -509c-25 -141 -135 -202 -250 -202z" />
    <glyph glyph-name="K" unicode="K" horiz-adv-x="571" 
d="M632 700l-415 -344l300 -356h-64l-296 349l-61 -349h-53l123 700h53l-57 -326l398 326h72z" />
    <glyph glyph-name="Kcommaaccent" unicode="&#x136;" horiz-adv-x="571" 
d="M632 700l-415 -344l300 -356h-64l-296 349l-61 -349h-53l123 700h53l-57 -326l398 326h72zM190 -240l40 170h51l-55 -170h-36z" />
    <glyph glyph-name="L" unicode="L" horiz-adv-x="493" 
d="M105 50h330l-9 -50h-383l123 700h53z" />
    <glyph glyph-name="Lacute" unicode="&#x139;" horiz-adv-x="493" 
d="M341 897l-112 -127h-50l100 127h62zM105 50h330l-9 -50h-383l123 700h53z" />
    <glyph glyph-name="Lcaron" unicode="&#x13d;" horiz-adv-x="493" 
d="M105 50h330l-9 -50h-383l123 700h53zM406 700l-54 -170h-36l40 170h50z" />
    <glyph glyph-name="Lcommaaccent" unicode="&#x13b;" horiz-adv-x="493" 
d="M105 50h330l-9 -50h-383l123 700h53zM165 -240l40 170h51l-55 -170h-36z" />
    <glyph glyph-name="Lslash" unicode="&#x141;" horiz-adv-x="517" 
d="M128 50h330l-9 -50h-383l44 253l-73 -43l9 53l74 44l69 393h53l-63 -358l198 116l-9 -53l-198 -117z" />
    <glyph glyph-name="M" unicode="M" horiz-adv-x="807" 
d="M799 700l-123 -700h-53l107 613l-323 -489h-52l-151 489l-108 -613h-53l123 700h53h9l159 -515l340 515h72z" />
    <glyph glyph-name="N" unicode="N" horiz-adv-x="630" 
d="M569 700h53l-123 -700h-42l-256 596l-105 -596h-53l123 700h42l257 -596z" />
    <glyph glyph-name="Nacute" unicode="&#x143;" horiz-adv-x="630" 
d="M365 770h50l112 127h-62zM569 700h53l-123 -700h-42l-256 596l-105 -596h-53l123 700h42l257 -596z" />
    <glyph glyph-name="Ncaron" unicode="&#x147;" horiz-adv-x="630" 
d="M377 770l-86 127h54l64 -94l96 94h61l-130 -127h-59zM569 700h53l-123 -700h-42l-256 596l-105 -596h-53l123 700h42l257 -596z" />
    <glyph glyph-name="Ncommaaccent" unicode="&#x145;" horiz-adv-x="630" 
d="M569 700h53l-123 -700h-42l-256 596l-105 -596h-53l123 700h42l257 -596zM231 -240l55 170h-51l-40 -170h36z" />
    <glyph glyph-name="Eng" unicode="&#x14a;" horiz-adv-x="630" 
d="M569 700h53l-123 -700c-28 -161 -120 -201 -240 -200l9 51c97 -1 158 34 178 149l3 16l-248 579l-105 -595h-53l123 700h43l256 -595z" />
    <glyph glyph-name="Ntilde" unicode="&#xd1;" horiz-adv-x="630" 
d="M273 783c18 115 92 134 151 74c47 -48 81 -49 95 28h44c-19 -114 -92 -133 -151 -74c-48 49 -81 49 -95 -28h-44zM569 700h53l-123 -700h-42l-256 596l-105 -596h-53l123 700h42l257 -596z" />
    <glyph glyph-name="O" unicode="O" horiz-adv-x="819" 
d="M365 -11c-201 0 -335 169 -300 369c35 199 216 353 422 353c201 0 336 -172 301 -372c-36 -200 -216 -350 -423 -350zM374 40c178 0 330 135 360 307c30 171 -79 313 -256 313s-330 -138 -359 -310c-31 -172 79 -310 255 -310z" />
    <glyph glyph-name="Oacute" unicode="&#xd3;" horiz-adv-x="819" 
d="M459 770h50l112 127h-62zM365 -11c-201 0 -335 169 -300 369c35 199 216 353 422 353c201 0 336 -172 301 -372c-36 -200 -216 -350 -423 -350zM374 40c178 0 330 135 360 307c30 171 -79 313 -256 313s-330 -138 -359 -310c-31 -172 79 -310 255 -310z" />
    <glyph glyph-name="Ocircumflex" unicode="&#xd4;" horiz-adv-x="819" 
d="M519 865l-97 -95h-60l130 127h59l87 -127h-55zM487 711c201 0 336 -172 301 -372c-36 -200 -216 -350 -423 -350c-201 0 -335 169 -300 369c35 199 216 353 422 353zM734 347c30 171 -79 313 -256 313s-330 -138 -359 -310c-31 -172 79 -310 255 -310
c178 0 330 135 360 307z" />
    <glyph glyph-name="Odieresis" unicode="&#xd6;" horiz-adv-x="819" 
d="M375 780l13 73h60l-13 -73h-60zM568 780l13 73h60l-13 -73h-60zM365 -11c-201 0 -335 169 -300 369c35 199 216 353 422 353c201 0 336 -172 301 -372c-36 -200 -216 -350 -423 -350zM374 40c178 0 330 135 360 307c30 171 -79 313 -256 313s-330 -138 -359 -310
c-31 -172 79 -310 255 -310z" />
    <glyph glyph-name="Ograve" unicode="&#xd2;" horiz-adv-x="819" 
d="M535 770l-58 127h-60l70 -127h48zM365 -11c-201 0 -335 169 -300 369c35 199 216 353 422 353c201 0 336 -172 301 -372c-36 -200 -216 -350 -423 -350zM374 40c178 0 330 135 360 307c30 171 -79 313 -256 313s-330 -138 -359 -310c-31 -172 79 -310 255 -310z" />
    <glyph glyph-name="Ohungarumlaut" unicode="&#x150;" horiz-adv-x="819" 
d="M387 770h52l96 130h-58zM529 770h53l105 130h-58zM365 -11c-201 0 -335 169 -300 369c35 199 216 353 422 353c201 0 336 -172 301 -372c-36 -200 -216 -350 -423 -350zM374 40c178 0 330 135 360 307c30 171 -79 313 -256 313s-330 -138 -359 -310
c-31 -172 79 -310 255 -310z" />
    <glyph glyph-name="Omacron" unicode="&#x14c;" horiz-adv-x="819" 
d="M376 787l8 44h253l-7 -44h-254zM365 -11c-201 0 -335 169 -300 369c35 199 216 353 422 353c201 0 336 -172 301 -372c-36 -200 -216 -350 -423 -350zM374 40c178 0 330 135 360 307c30 171 -79 313 -256 313s-330 -138 -359 -310c-31 -172 79 -310 255 -310z" />
    <glyph glyph-name="Oslash" unicode="&#xd8;" horiz-adv-x="829" 
d="M822 700l-93 -91c59 -69 87 -166 69 -270c-36 -200 -216 -350 -423 -350c-81 0 -151 27 -204 73l-64 -62h-58l93 91c-58 68 -85 163 -67 267c35 199 216 353 422 353c80 0 150 -27 203 -73l64 62h58zM129 350c-16 -87 5 -165 51 -221l482 471c-45 38 -104 60 -174 60
c-177 0 -330 -138 -359 -310zM744 347c15 87 -6 167 -53 224l-482 -471c45 -38 104 -60 175 -60c178 0 330 135 360 307z" />
    <glyph glyph-name="Otilde" unicode="&#xd5;" horiz-adv-x="819" 
d="M367 783c18 115 92 134 151 74c47 -48 81 -49 95 28h44c-19 -114 -92 -133 -151 -74c-48 49 -81 49 -95 -28h-44zM365 -11c-201 0 -335 169 -300 369c35 199 216 353 422 353c201 0 336 -172 301 -372c-36 -200 -216 -350 -423 -350zM374 40c178 0 330 135 360 307
c30 171 -79 313 -256 313s-330 -138 -359 -310c-31 -172 79 -310 255 -310z" />
    <glyph glyph-name="OE" unicode="&#x152;" horiz-adv-x="913" 
d="M935 650h-319l-48 -272h301l-9 -50h-300l-49 -278h323l-9 -50h-353h-23c-30 -7 -62 -11 -96 -11c-203 0 -323 165 -288 365s206 357 415 357c35 0 65 -4 92 -11h53h318zM458 54l104 592c-26 9 -56 14 -91 14c-176 0 -323 -138 -352 -310c-31 -172 66 -310 243 -310
c35 0 66 5 96 14z" />
    <glyph glyph-name="P" unicode="P" horiz-adv-x="577" 
d="M405 700c109 0 191 -100 170 -214c-19 -114 -124 -199 -243 -199h-186l-50 -287h-53l123 700h53h186zM523 493c16 87 -41 157 -126 157h-187l-55 -313h186c87 0 167 70 182 156z" />
    <glyph glyph-name="Thorn" unicode="&#xde;" horiz-adv-x="577" 
d="M380 557c109 0 190 -101 170 -215c-20 -113 -125 -199 -243 -199h-186l-25 -143h-53l123 700h53l-25 -143h186zM498 350c15 87 -42 157 -127 157h-186l-55 -314h186c86 0 166 71 182 157z" />
    <glyph glyph-name="Q" unicode="Q" horiz-adv-x="824" 
d="M788 339c-19 -103 -76 -193 -155 -256l68 -97l-41 -29l-68 97c-67 -41 -145 -65 -227 -65c-201 0 -335 169 -300 369c35 199 216 353 422 353c201 0 336 -172 301 -372zM563 95l-80 114l41 29l80 -114c67 56 115 134 130 223c30 171 -79 313 -256 313
s-330 -138 -359 -310c-31 -172 79 -310 255 -310c69 0 134 20 189 55z" />
    <glyph glyph-name="R" unicode="R" horiz-adv-x="627" 
d="M523 0l-202 287h-175l-50 -287h-53l123 700h53h187c110 0 190 -100 170 -214c-17 -98 -98 -176 -196 -195l206 -291h-63zM210 650l-55 -313h187c86 0 167 70 182 156c16 87 -42 157 -127 157h-187z" />
    <glyph glyph-name="Racute" unicode="&#x154;" horiz-adv-x="627" 
d="M489 897l-112 -127h-50l100 127h62zM523 0l-202 287h-175l-50 -287h-53l123 700h53h187c110 0 190 -100 170 -214c-17 -98 -98 -176 -196 -195l206 -291h-63zM210 650l-55 -313h187c86 0 167 70 182 156c16 87 -42 157 -127 157h-187z" />
    <glyph glyph-name="Rcaron" unicode="&#x158;" horiz-adv-x="627" 
d="M338 770l-86 127h54l64 -94l96 94h61l-130 -127h-59zM523 0l-202 287h-175l-50 -287h-53l123 700h53h187c110 0 190 -100 170 -214c-17 -98 -98 -176 -196 -195l206 -291h-63zM210 650l-55 -313h187c86 0 167 70 182 156c16 87 -42 157 -127 157h-187z" />
    <glyph glyph-name="Rcommaaccent" unicode="&#x156;" horiz-adv-x="627" 
d="M586 0h-63l-202 287h-175l-50 -287h-53l123 700h53h187c110 0 190 -100 170 -214c-17 -98 -98 -176 -196 -195zM210 650l-55 -313h187c86 0 167 70 182 156c16 87 -42 157 -127 157h-187zM227 -240l40 170h51l-55 -170h-36z" />
    <glyph glyph-name="S" unicode="S" horiz-adv-x="551" 
d="M240 -11c-131 0 -230 74 -206 205h53c-17 -98 48 -154 162 -154c97 0 177 54 191 133c16 88 -61 121 -143 154c-99 40 -208 81 -185 213c20 109 126 171 240 171c108 0 203 -72 181 -191h-53c15 85 -42 140 -136 140c-91 0 -165 -52 -178 -127c-16 -91 60 -121 143 -155
c98 -41 207 -85 184 -212c-20 -114 -133 -177 -253 -177z" />
    <glyph glyph-name="Sacute" unicode="&#x15a;" horiz-adv-x="551" 
d="M321 770h50l112 127h-62zM240 -11c-131 0 -230 74 -206 205h53c-17 -98 48 -154 162 -154c97 0 177 54 191 133c16 88 -61 121 -143 154c-99 40 -208 81 -185 213c20 109 126 171 240 171c108 0 203 -72 181 -191h-53c15 85 -42 140 -136 140c-91 0 -165 -52 -178 -127
c-16 -91 60 -121 143 -155c98 -41 207 -85 184 -212c-20 -114 -133 -177 -253 -177z" />
    <glyph glyph-name="Scaron" unicode="&#x160;" horiz-adv-x="551" 
d="M333 770l-86 127h54l64 -94l96 94h61l-130 -127h-59zM533 520h-53c15 85 -42 140 -136 140c-91 0 -165 -52 -178 -127c-16 -91 60 -121 143 -155c98 -41 207 -85 184 -212c-20 -114 -133 -177 -253 -177c-131 0 -230 74 -206 205h53c-17 -98 48 -154 162 -154
c97 0 177 54 191 133c16 88 -61 121 -143 154c-99 40 -208 81 -185 213c20 109 126 171 240 171c108 0 203 -72 181 -191z" />
    <glyph glyph-name="Scedilla" unicode="&#x15e;" horiz-adv-x="551" 
d="M533 520h-53c15 85 -42 140 -136 140c-91 0 -165 -52 -178 -127c-16 -91 60 -121 143 -155c98 -41 207 -85 184 -212c-19 -109 -123 -172 -237 -177l-8 -45c49 -6 85 -36 78 -79c-9 -49 -57 -89 -209 -76l8 41c98 -10 150 7 156 39c5 29 -26 45 -84 43l14 78
c-116 10 -199 83 -177 204h53c-17 -98 48 -154 162 -154c97 0 177 54 191 133c16 88 -61 121 -143 154c-99 40 -208 81 -185 213c20 109 126 171 240 171c108 0 203 -72 181 -191z" />
    <glyph glyph-name="Scommaaccent" unicode="&#x218;" horiz-adv-x="551" 
d="M240 -11c-131 0 -230 74 -206 205h53c-17 -98 48 -154 162 -154c97 0 177 54 191 133c16 88 -61 121 -143 154c-99 40 -208 81 -185 213c20 109 126 171 240 171c108 0 203 -72 181 -191h-53c15 85 -42 140 -136 140c-91 0 -165 -52 -178 -127c-16 -91 60 -121 143 -155
c98 -41 207 -85 184 -212c-20 -114 -133 -177 -253 -177zM205 -240l55 170h-51l-40 -170h36z" />
    <glyph glyph-name="T" unicode="T" horiz-adv-x="500" 
d="M556 700l-9 -50h-200l-114 -650h-54l115 650h-200l8 50h254h200z" />
    <glyph glyph-name="Tbar" unicode="&#x166;" horiz-adv-x="500" 
d="M547 650h-200l-49 -276h154l-9 -48h-153l-57 -326h-54l58 326h-154l9 48h153l49 276h-200l8 50h254h200z" />
    <glyph glyph-name="Tcaron" unicode="&#x164;" horiz-adv-x="500" 
d="M312 770l-86 127h54l64 -94l96 94h61l-130 -127h-59zM556 700l-9 -50h-200l-114 -650h-54l115 650h-200l8 50h254h200z" />
    <glyph glyph-name="uni0162" unicode="&#x162;" horiz-adv-x="500" 
d="M556 700l-9 -50h-200l-114 -650h-54l115 650h-200l8 50h254h200zM130 -240l40 170h51l-55 -170h-36z" />
    <glyph glyph-name="uni021A" unicode="&#x21a;" horiz-adv-x="500" 
d="M556 700l-9 -50h-200l-114 -650h-54l115 650h-200l8 50h254h200zM130 -240l40 170h51l-55 -170h-36z" />
    <glyph glyph-name="U" unicode="U" horiz-adv-x="623" 
d="M266 -11c-125 0 -221 80 -197 213l87 498h53l-87 -498c-19 -107 43 -162 153 -162s192 59 210 162l87 498h53l-87 -498c-26 -148 -137 -213 -272 -213z" />
    <glyph glyph-name="Uacute" unicode="&#xda;" horiz-adv-x="623" 
d="M360 770h50l112 127h-62zM266 -11c-125 0 -221 80 -197 213l87 498h53l-87 -498c-19 -107 43 -162 153 -162s192 59 210 162l87 498h53l-87 -498c-26 -148 -137 -213 -272 -213z" />
    <glyph glyph-name="Ucircumflex" unicode="&#xdb;" horiz-adv-x="623" 
d="M421 865l-97 -95h-60l130 127h59l87 -127h-55zM572 700h53l-87 -498c-26 -148 -137 -213 -272 -213c-125 0 -221 80 -197 213l87 498h53l-87 -498c-19 -107 43 -162 153 -162s192 59 210 162z" />
    <glyph glyph-name="Udieresis" unicode="&#xdc;" horiz-adv-x="623" 
d="M276 780l13 73h60l-13 -73h-60zM469 780l13 73h60l-13 -73h-60zM266 -11c-125 0 -221 80 -197 213l87 498h53l-87 -498c-19 -107 43 -162 153 -162s192 59 210 162l87 498h53l-87 -498c-26 -148 -137 -213 -272 -213z" />
    <glyph glyph-name="Ugrave" unicode="&#xd9;" horiz-adv-x="623" 
d="M437 770l-58 127h-60l70 -127h48zM266 -11c-125 0 -221 80 -197 213l87 498h53l-87 -498c-19 -107 43 -162 153 -162s192 59 210 162l87 498h53l-87 -498c-26 -148 -137 -213 -272 -213z" />
    <glyph glyph-name="Uhungarumlaut" unicode="&#x170;" horiz-adv-x="623" 
d="M288 770h52l96 130h-58zM430 770h53l105 130h-58zM266 -11c-125 0 -221 80 -197 213l87 498h53l-87 -498c-19 -107 43 -162 153 -162s192 59 210 162l87 498h53l-87 -498c-26 -148 -137 -213 -272 -213z" />
    <glyph glyph-name="Umacron" unicode="&#x16a;" horiz-adv-x="623" 
d="M277 787l8 44h253l-7 -44h-254zM266 -11c-125 0 -221 80 -197 213l87 498h53l-87 -498c-19 -107 43 -162 153 -162s192 59 210 162l87 498h53l-87 -498c-26 -148 -137 -213 -272 -213z" />
    <glyph glyph-name="Uogonek" unicode="&#x172;" horiz-adv-x="623" 
d="M572 700h53l-87 -498c-13 -76 -49 -131 -100 -166c-106 -79 -149 -120 -158 -164c-4 -26 9 -40 35 -40c17 0 29 2 44 8l-7 -41c-18 -7 -35 -10 -56 -10c-47 0 -74 34 -66 77c7 38 36 80 94 127c-18 -3 -38 -4 -58 -4c-125 0 -221 80 -197 213l87 498h53l-87 -498
c-19 -107 43 -162 153 -162s192 59 210 162z" />
    <glyph glyph-name="Uring" unicode="&#x16e;" horiz-adv-x="623" 
d="M399 753c-58 0 -95 44 -85 99s56 95 119 95c58 0 95 -44 86 -99c-10 -55 -56 -95 -120 -95zM406 793c38 0 65 24 71 57c5 33 -13 57 -51 57c-37 0 -64 -24 -69 -57c-6 -33 12 -57 49 -57zM266 -11c-125 0 -221 80 -197 213l87 498h53l-87 -498c-19 -107 43 -162 153 -162
s192 59 210 162l87 498h53l-87 -498c-26 -148 -137 -213 -272 -213z" />
    <glyph glyph-name="V" unicode="V" horiz-adv-x="605" 
d="M230 0l-138 700h54l121 -635l344 635h59l-384 -700h-56z" />
    <glyph glyph-name="W" unicode="W" horiz-adv-x="860" 
d="M868 700h54l-344 -700h-70l-54 383l-190 -383h-70l-98 700h49l92 -645l204 415l-32 230h50l91 -645z" />
    <glyph glyph-name="Wacute" unicode="&#x1e82;" horiz-adv-x="860" 
d="M643 897l-112 -127h-50l100 127h62zM868 700h54l-344 -700h-70l-54 383l-190 -383h-70l-98 700h49l92 -645l204 415l-32 230h50l91 -645z" />
    <glyph glyph-name="Wcircumflex" unicode="&#x174;" horiz-adv-x="860" 
d="M541 865l-97 -95h-60l130 127h59l87 -127h-55zM868 700h54l-344 -700h-70l-54 383l-190 -383h-70l-98 700h49l92 -645l204 415l-32 230h50l91 -645z" />
    <glyph glyph-name="Wdieresis" unicode="&#x1e84;" horiz-adv-x="860" 
d="M470 853l-13 -73h-60l13 73h60zM663 853l-13 -73h-60l13 73h60zM868 700h54l-344 -700h-70l-54 383l-190 -383h-70l-98 700h49l92 -645l204 415l-32 230h50l91 -645z" />
    <glyph glyph-name="Wgrave" unicode="&#x1e80;" horiz-adv-x="860" 
d="M557 770h-48l-70 127h60zM868 700h54l-344 -700h-70l-54 383l-190 -383h-70l-98 700h49l92 -645l204 415l-32 230h50l91 -645z" />
    <glyph glyph-name="X" unicode="X" horiz-adv-x="567" 
d="M609 700l-278 -343l168 -357h-54l-148 315l-256 -315h-62l295 363l-159 337h54l139 -295l239 295h62z" />
    <glyph glyph-name="Y" unicode="Y" horiz-adv-x="570" 
d="M636 700l-311 -373l-58 -327h-53l58 328l-180 372h55l156 -324l270 324h63z" />
    <glyph glyph-name="Yacute" unicode="&#xdd;" horiz-adv-x="570" 
d="M495 897l-112 -127h-50l100 127h62zM636 700l-311 -373l-58 -327h-53l58 328l-180 372h55l156 -324l270 324h63z" />
    <glyph glyph-name="Ycircumflex" unicode="&#x176;" horiz-adv-x="570" 
d="M393 865l-97 -95h-60l130 127h59l87 -127h-55zM636 700l-311 -373l-58 -327h-53l58 328l-180 372h55l156 -324l270 324h63z" />
    <glyph glyph-name="Ydieresis" unicode="&#x178;" horiz-adv-x="570" 
d="M322 853l-13 -73h-60l13 73h60zM515 853l-13 -73h-60l13 73h60zM636 700l-311 -373l-58 -327h-53l58 328l-180 372h55l156 -324l270 324h63z" />
    <glyph glyph-name="Ygrave" unicode="&#x1ef2;" horiz-adv-x="570" 
d="M409 770h-48l-70 127h60zM636 700l-311 -373l-58 -327h-53l58 328l-180 372h55l156 -324l270 324h63z" />
    <glyph glyph-name="Z" unicode="Z" horiz-adv-x="517" 
d="M552 700l-8 -50l-475 -600h379l-9 -50h-440l9 50l475 600h-359l8 50h420z" />
    <glyph glyph-name="Zacute" unicode="&#x179;" horiz-adv-x="517" 
d="M476 897l-112 -127h-50l100 127h62zM552 700l-8 -50l-475 -600h379l-9 -50h-440l9 50l475 600h-359l8 50h420z" />
    <glyph glyph-name="Zcaron" unicode="&#x17d;" horiz-adv-x="517" 
d="M325 770l-86 127h54l64 -94l96 94h61l-130 -127h-59zM552 700l-8 -50l-475 -600h379l-9 -50h-440l9 50l475 600h-359l8 50h420z" />
    <glyph glyph-name="Zdotaccent" unicode="&#x17b;" horiz-adv-x="517" 
d="M405 863l-15 -83h-67l15 83h67zM552 700l-8 -50l-475 -600h379l-9 -50h-440l9 50l475 600h-359l8 50h420z" />
    <glyph glyph-name="a" unicode="a" horiz-adv-x="499" 
d="M295 511c102 0 175 -70 154 -183l-57 -328h-51l10 56c-40 -48 -102 -67 -168 -67c-92 0 -174 58 -156 163c19 104 115 152 207 152c66 0 122 -26 147 -74l18 98c16 95 -39 135 -112 135s-140 -37 -153 -113h-51c17 95 101 161 212 161zM198 36c83 0 156 39 169 110
c13 74 -53 111 -130 111c-90 0 -148 -45 -159 -109c-11 -65 32 -112 120 -112z" />
    <glyph glyph-name="aacute" unicode="&#xe1;" horiz-adv-x="499" 
d="M429 697l-112 -127h-50l100 127h62zM295 511c102 0 175 -70 154 -183l-57 -328h-51l10 56c-40 -48 -102 -67 -168 -67c-92 0 -174 58 -156 163c19 104 115 152 207 152c66 0 122 -26 147 -74l18 98c16 95 -39 135 -112 135s-140 -37 -153 -113h-51c17 95 101 161 212 161
zM198 36c83 0 156 39 169 110c13 74 -53 111 -130 111c-90 0 -148 -45 -159 -109c-11 -65 32 -112 120 -112z" />
    <glyph glyph-name="abreve" unicode="&#x103;" horiz-adv-x="499" 
d="M309 565c-76 0 -127 46 -113 122h48c-9 -54 18 -78 71 -78s90 28 99 78h48c-13 -76 -68 -122 -153 -122zM295 511c102 0 175 -70 154 -183l-57 -328h-51l10 56c-40 -48 -102 -67 -168 -67c-92 0 -174 58 -156 163c19 104 115 152 207 152c66 0 122 -26 147 -74l18 98
c16 95 -39 135 -112 135s-140 -37 -153 -113h-51c17 95 101 161 212 161zM198 36c83 0 156 39 169 110c13 74 -53 111 -130 111c-90 0 -148 -45 -159 -109c-11 -65 32 -112 120 -112z" />
    <glyph glyph-name="acircumflex" unicode="&#xe2;" horiz-adv-x="499" 
d="M328 665l-97 -95h-60l130 127h59l87 -127h-55zM295 511c102 0 175 -70 154 -183l-57 -328h-51l10 56c-40 -48 -102 -67 -168 -67c-92 0 -174 58 -156 163c19 104 115 152 207 152c66 0 122 -26 147 -74l18 98c16 95 -39 135 -112 135s-140 -37 -153 -113h-51
c17 95 101 161 212 161zM198 36c83 0 156 39 169 110c13 74 -53 111 -130 111c-90 0 -148 -45 -159 -109c-11 -65 32 -112 120 -112z" />
    <glyph glyph-name="adieresis" unicode="&#xe4;" horiz-adv-x="499" 
d="M256 653l-13 -73h-60l13 73h60zM449 653l-13 -73h-60l13 73h60zM295 511c102 0 175 -70 154 -183l-57 -328h-51l10 56c-40 -48 -102 -67 -168 -67c-92 0 -174 58 -156 163c19 104 115 152 207 152c66 0 122 -26 147 -74l18 98c16 95 -39 135 -112 135s-140 -37 -153 -113
h-51c17 95 101 161 212 161zM198 36c83 0 156 39 169 110c13 74 -53 111 -130 111c-90 0 -148 -45 -159 -109c-11 -65 32 -112 120 -112z" />
    <glyph glyph-name="agrave" unicode="&#xe0;" horiz-adv-x="499" 
d="M344 570h-48l-70 127h60zM295 511c102 0 175 -70 154 -183l-57 -328h-51l10 56c-40 -48 -102 -67 -168 -67c-92 0 -174 58 -156 163c19 104 115 152 207 152c66 0 122 -26 147 -74l18 98c16 95 -39 135 -112 135s-140 -37 -153 -113h-51c17 95 101 161 212 161zM198 36
c83 0 156 39 169 110c13 74 -53 111 -130 111c-90 0 -148 -45 -159 -109c-11 -65 32 -112 120 -112z" />
    <glyph glyph-name="amacron" unicode="&#x101;" horiz-adv-x="499" 
d="M445 631l-7 -44h-254l8 44h253zM295 511c102 0 175 -70 154 -183l-57 -328h-51l10 56c-40 -48 -102 -67 -168 -67c-92 0 -174 58 -156 163c19 104 115 152 207 152c66 0 122 -26 147 -74l18 98c16 95 -39 135 -112 135s-140 -37 -153 -113h-51c17 95 101 161 212 161z
M198 36c83 0 156 39 169 110c13 74 -53 111 -130 111c-90 0 -148 -45 -159 -109c-11 -65 32 -112 120 -112z" />
    <glyph glyph-name="aogonek" unicode="&#x105;" horiz-adv-x="499" 
d="M295 511c102 0 175 -70 154 -183l-57 -328h-1c-59 -46 -99 -93 -106 -131c-5 -25 10 -37 34 -37c16 0 29 3 44 9l-7 -44c-18 -7 -35 -8 -56 -8c-50 0 -74 34 -66 77c7 40 41 88 109 146l8 44c-40 -48 -102 -67 -168 -67c-92 0 -174 58 -156 163c19 104 115 152 207 152
c66 0 122 -26 147 -74l18 98c16 95 -39 135 -112 135s-140 -37 -153 -113h-51c17 95 101 161 212 161zM198 36c83 0 156 39 169 110c13 74 -53 111 -130 111c-90 0 -148 -45 -159 -109c-11 -65 32 -112 120 -112z" />
    <glyph glyph-name="aring" unicode="&#xe5;" horiz-adv-x="499" 
d="M306 553c-58 0 -95 44 -85 99s56 95 119 95c58 0 95 -44 86 -99c-10 -55 -56 -95 -120 -95zM264 650c-6 -33 12 -57 49 -57c38 0 65 24 71 57c5 33 -13 57 -51 57c-37 0 -64 -24 -69 -57zM295 511c102 0 175 -70 154 -183l-57 -328h-51l10 56c-40 -48 -102 -67 -168 -67
c-92 0 -174 58 -156 163c19 104 115 152 207 152c66 0 122 -26 147 -74l18 98c16 95 -39 135 -112 135s-140 -37 -153 -113h-51c17 95 101 161 212 161zM198 36c83 0 156 39 169 110c13 74 -53 111 -130 111c-90 0 -148 -45 -159 -109c-11 -65 32 -112 120 -112z" />
    <glyph glyph-name="atilde" unicode="&#xe3;" horiz-adv-x="499" 
d="M314 611c-48 49 -81 49 -95 -28h-44c18 115 92 134 151 74c47 -48 81 -49 95 28h44c-19 -114 -92 -133 -151 -74zM295 511c102 0 175 -70 154 -183l-57 -328h-51l10 56c-40 -48 -102 -67 -168 -67c-92 0 -174 58 -156 163c19 104 115 152 207 152c66 0 122 -26 147 -74
l18 98c16 95 -39 135 -112 135s-140 -37 -153 -113h-51c17 95 101 161 212 161zM198 36c83 0 156 39 169 110c13 74 -53 111 -130 111c-90 0 -148 -45 -159 -109c-11 -65 32 -112 120 -112z" />
    <glyph glyph-name="ae" unicode="&#xe6;" horiz-adv-x="845" 
d="M649 511c136 0 187 -126 163 -263l-6 -24h-50h-325c-12 -114 34 -187 136 -187c71 0 128 40 152 97h56c-35 -87 -118 -145 -217 -145c-83 0 -138 42 -161 111c-38 -72 -119 -111 -206 -111c-101 0 -182 57 -164 162c19 105 114 153 207 153c66 0 123 -24 149 -63l16 87
c16 95 -39 135 -111 135c-73 0 -140 -37 -153 -113h-51c17 95 100 161 212 161c78 0 137 -42 150 -113c46 69 114 113 203 113zM440 273h325c16 121 -36 190 -122 190c-108 0 -177 -79 -203 -190zM202 36c88 0 153 46 165 110c13 74 -49 111 -130 111
c-92 0 -148 -45 -159 -109c-11 -65 32 -112 124 -112z" />
    <glyph glyph-name="b" unicode="b" horiz-adv-x="645" 
d="M385 511c138 0 242 -119 216 -267c-26 -147 -149 -255 -301 -255c-94 0 -166 55 -195 135l-22 -124h-50l123 700h50l-53 -305c53 72 135 116 232 116zM550 250c21 119 -58 213 -177 213s-224 -90 -245 -210c-21 -119 58 -216 177 -216c122 0 224 94 245 213z" />
    <glyph glyph-name="c" unicode="c" horiz-adv-x="576" 
d="M526 153c-46 -102 -148 -164 -266 -164c-147 0 -241 122 -215 269c26 148 155 253 304 253c113 0 198 -67 210 -164h-52c-15 69 -74 116 -163 116c-122 0 -227 -91 -248 -210c-21 -120 50 -216 173 -216c87 0 165 47 204 116h53z" />
    <glyph glyph-name="cacute" unicode="&#x107;" horiz-adv-x="576" 
d="M315 570h50l112 127h-62zM526 153c-46 -102 -148 -164 -266 -164c-147 0 -241 122 -215 269c26 148 155 253 304 253c113 0 198 -67 210 -164h-52c-15 69 -74 116 -163 116c-122 0 -227 -91 -248 -210c-21 -120 50 -216 173 -216c87 0 165 47 204 116h53z" />
    <glyph glyph-name="ccaron" unicode="&#x10d;" horiz-adv-x="576" 
d="M326 570l-86 127h54l64 -94l96 94h61l-130 -127h-59zM269 37c87 0 165 47 204 116h53c-46 -102 -148 -164 -266 -164c-147 0 -241 122 -215 269c26 148 155 253 304 253c113 0 198 -67 210 -164h-52c-15 69 -74 116 -163 116c-122 0 -227 -91 -248 -210
c-21 -120 50 -216 173 -216z" />
    <glyph glyph-name="ccedilla" unicode="&#xe7;" horiz-adv-x="576" 
d="M269 37c87 0 165 47 204 116h53c-43 -95 -135 -156 -243 -164l-8 -45c49 -6 85 -36 78 -79c-9 -49 -57 -89 -209 -76l8 41c98 -10 150 7 156 39c5 29 -26 45 -84 43l14 78c-134 11 -218 128 -193 268c26 148 155 253 304 253c113 0 198 -67 210 -164h-52
c-15 69 -74 116 -163 116c-122 0 -227 -91 -248 -210c-21 -120 50 -216 173 -216z" />
    <glyph glyph-name="cdotaccent" unicode="&#x10b;" horiz-adv-x="576" 
d="M324 580l15 83h67l-15 -83h-67zM526 153c-46 -102 -148 -164 -266 -164c-147 0 -241 122 -215 269c26 148 155 253 304 253c113 0 198 -67 210 -164h-52c-15 69 -74 116 -163 116c-122 0 -227 -91 -248 -210c-21 -120 50 -216 173 -216c87 0 165 47 204 116h53z" />
    <glyph glyph-name="d" unicode="d" horiz-adv-x="645" 
d="M597 700h51l-123 -700h-51l18 100c-53 -69 -133 -111 -230 -111c-140 0 -243 124 -217 272c29 162 158 250 289 250c92 0 174 -49 206 -135zM274 37c112 0 211 76 239 185l7 41c12 122 -77 200 -183 200c-109 0 -218 -75 -241 -206c-21 -120 58 -220 178 -220z" />
    <glyph glyph-name="eth" unicode="&#xf0;" horiz-adv-x="588" 
d="M514 369c22 -38 34 -98 25 -153c-27 -148 -146 -227 -281 -227c-130 0 -243 107 -216 255c24 139 142 218 267 218c45 0 82 -10 113 -28l-84 149l-139 -77l8 47l112 63l-47 84h52l35 -62l122 67l-9 -47l-94 -52zM488 220c7 43 4 89 -14 120c-27 45 -80 77 -161 77
c-113 0 -201 -67 -220 -177c-21 -116 59 -203 174 -203c108 0 200 67 221 183z" />
    <glyph glyph-name="dcaron" unicode="&#x10f;" horiz-adv-x="697" 
d="M540 376l57 324h51l-123 -700h-51l18 100c-53 -69 -133 -111 -230 -111c-140 0 -243 124 -217 272c29 162 158 250 289 250c92 0 174 -49 206 -135zM732 700h51l-55 -170h-36zM274 37c112 0 211 76 239 185l7 41c12 122 -77 200 -183 200c-109 0 -218 -75 -241 -206
c-21 -120 58 -220 178 -220z" />
    <glyph glyph-name="dcroat" unicode="&#x111;" horiz-adv-x="653" 
d="M702 624l-7 -42h-68l-102 -582h-51l18 100c-53 -69 -133 -111 -230 -111c-140 0 -243 124 -217 272c29 162 158 250 289 250c92 0 174 -49 206 -135l36 206h-201l7 42h202l13 76h51l-14 -76h68zM274 37c112 0 211 76 239 185l7 41c12 122 -77 200 -183 200
c-109 0 -218 -75 -241 -206c-21 -120 58 -220 178 -220z" />
    <glyph glyph-name="e" unicode="e" horiz-adv-x="574" 
d="M339 511c146 0 225 -126 201 -263c-1 -8 -4 -16 -6 -24h-50h-392c-8 -112 59 -187 170 -187c83 0 151 41 183 97h57c-43 -86 -134 -145 -249 -145c-144 0 -235 117 -208 268c26 147 142 254 294 254zM99 273h394c11 121 -60 190 -159 190c-117 0 -207 -77 -235 -190z" />
    <glyph glyph-name="eacute" unicode="&#xe9;" horiz-adv-x="574" 
d="M474 697l-112 -127h-50l100 127h62zM339 511c146 0 225 -126 201 -263c-1 -8 -4 -16 -6 -24h-50h-392c-8 -112 59 -187 170 -187c83 0 151 41 183 97h57c-43 -86 -134 -145 -249 -145c-144 0 -235 117 -208 268c26 147 142 254 294 254zM99 273h394
c11 121 -60 190 -159 190c-117 0 -207 -77 -235 -190z" />
    <glyph glyph-name="ecaron" unicode="&#x11b;" horiz-adv-x="574" 
d="M324 570l-86 127h54l64 -94l96 94h61l-130 -127h-59zM339 511c146 0 225 -126 201 -263c-1 -8 -4 -16 -6 -24h-50h-392c-8 -112 59 -187 170 -187c83 0 151 41 183 97h57c-43 -86 -134 -145 -249 -145c-144 0 -235 117 -208 268c26 147 142 254 294 254zM99 273h394
c11 121 -60 190 -159 190c-117 0 -207 -77 -235 -190z" />
    <glyph glyph-name="ecircumflex" unicode="&#xea;" horiz-adv-x="574" 
d="M373 665l-97 -95h-60l130 127h59l87 -127h-55zM339 511c146 0 225 -126 201 -263c-1 -8 -4 -16 -6 -24h-50h-392c-8 -112 59 -187 170 -187c83 0 151 41 183 97h57c-43 -86 -134 -145 -249 -145c-144 0 -235 117 -208 268c26 147 142 254 294 254zM99 273h394
c11 121 -60 190 -159 190c-117 0 -207 -77 -235 -190z" />
    <glyph glyph-name="edieresis" unicode="&#xeb;" horiz-adv-x="574" 
d="M301 653l-13 -73h-60l13 73h60zM494 653l-13 -73h-60l13 73h60zM339 511c146 0 225 -126 201 -263c-1 -8 -4 -16 -6 -24h-50h-392c-8 -112 59 -187 170 -187c83 0 151 41 183 97h57c-43 -86 -134 -145 -249 -145c-144 0 -235 117 -208 268c26 147 142 254 294 254z
M99 273h394c11 121 -60 190 -159 190c-117 0 -207 -77 -235 -190z" />
    <glyph glyph-name="edotaccent" unicode="&#x117;" horiz-adv-x="574" 
d="M404 663l-15 -83h-67l15 83h67zM339 511c146 0 225 -126 201 -263c-1 -8 -4 -16 -6 -24h-50h-392c-8 -112 59 -187 170 -187c83 0 151 41 183 97h57c-43 -86 -134 -145 -249 -145c-144 0 -235 117 -208 268c26 147 142 254 294 254zM99 273h394c11 121 -60 190 -159 190
c-117 0 -207 -77 -235 -190z" />
    <glyph glyph-name="egrave" unicode="&#xe8;" horiz-adv-x="574" 
d="M389 570h-48l-70 127h60zM339 511c146 0 225 -126 201 -263c-1 -8 -4 -16 -6 -24h-50h-392c-8 -112 59 -187 170 -187c83 0 151 41 183 97h57c-43 -86 -134 -145 -249 -145c-144 0 -235 117 -208 268c26 147 142 254 294 254zM99 273h394c11 121 -60 190 -159 190
c-117 0 -207 -77 -235 -190z" />
    <glyph glyph-name="emacron" unicode="&#x113;" horiz-adv-x="574" 
d="M490 631l-7 -44h-254l8 44h253zM339 511c146 0 225 -126 201 -263c-1 -8 -4 -16 -6 -24h-50h-392c-8 -112 59 -187 170 -187c83 0 151 41 183 97h57c-43 -86 -134 -145 -249 -145c-144 0 -235 117 -208 268c26 147 142 254 294 254zM99 273h394c11 121 -60 190 -159 190
c-117 0 -207 -77 -235 -190z" />
    <glyph glyph-name="eogonek" unicode="&#x119;" horiz-adv-x="574" 
d="M339 511c142 0 225 -126 201 -263c-1 -8 -4 -16 -6 -24h-50h-392c-8 -112 59 -187 170 -187c83 0 151 41 183 97h57c-15 -30 -36 -57 -62 -80c-109 -98 -151 -147 -158 -185c-4 -25 10 -37 35 -37c16 0 29 3 44 9l-7 -42c-18 -7 -35 -10 -56 -10c-51 0 -74 33 -66 76
c6 35 35 80 96 132c-24 -5 -49 -8 -75 -8c-144 0 -235 117 -208 268c26 147 142 254 294 254zM99 273h394c11 121 -60 190 -159 190c-117 0 -207 -77 -235 -190z" />
    <glyph glyph-name="f" unicode="f" horiz-adv-x="307" 
d="M156 527c22 128 102 194 232 184l-9 -48c-97 8 -155 -39 -173 -136l-4 -27h148l-8 -49h-149l-80 -451h-50l79 451h-86l8 49h87z" />
    <glyph glyph-name="g" unicode="g" horiz-adv-x="650" 
d="M566 500h51l-84 -476c-28 -158 -145 -235 -290 -235c-121 0 -217 80 -207 182h51c-9 -61 49 -134 164 -134c128 0 211 73 231 187l14 77c-52 -70 -133 -112 -230 -112c-141 0 -243 124 -217 272c28 162 158 250 289 250c92 0 174 -50 206 -136zM277 37
c119 0 223 86 244 205c24 135 -69 221 -181 221c-109 0 -217 -75 -241 -206c-20 -120 58 -220 178 -220z" />
    <glyph glyph-name="gbreve" unicode="&#x11f;" horiz-adv-x="650" 
d="M373 565c-76 0 -127 46 -113 122h48c-9 -54 18 -78 71 -78s90 28 99 78h48c-13 -76 -68 -122 -153 -122zM566 500h51l-84 -476c-28 -158 -145 -235 -290 -235c-121 0 -217 80 -207 182h51c-9 -61 49 -134 164 -134c128 0 211 73 231 187l14 77
c-52 -70 -133 -112 -230 -112c-141 0 -243 124 -217 272c28 162 158 250 289 250c92 0 174 -50 206 -136zM277 37c119 0 223 86 244 205c24 135 -69 221 -181 221c-109 0 -217 -75 -241 -206c-20 -120 58 -220 178 -220z" />
    <glyph glyph-name="gcommaaccent" unicode="&#x123;" horiz-adv-x="650" 
d="M435 760l-40 -170h-51l55 170h36zM566 500h51l-84 -476c-28 -158 -145 -235 -290 -235c-121 0 -217 80 -207 182h51c-9 -61 49 -134 164 -134c128 0 211 73 231 187l14 77c-52 -70 -133 -112 -230 -112c-141 0 -243 124 -217 272c28 162 158 250 289 250
c92 0 174 -50 206 -136zM277 37c119 0 223 86 244 205c24 135 -69 221 -181 221c-109 0 -217 -75 -241 -206c-20 -120 58 -220 178 -220z" />
    <glyph glyph-name="gdotaccent" unicode="&#x121;" horiz-adv-x="650" 
d="M423 663l-15 -83h-67l15 83h67zM566 500h51l-84 -476c-28 -158 -145 -235 -290 -235c-121 0 -217 80 -207 182h51c-9 -61 49 -134 164 -134c128 0 211 73 231 187l14 77c-52 -70 -133 -112 -230 -112c-141 0 -243 124 -217 272c28 162 158 250 289 250
c92 0 174 -50 206 -136zM277 37c119 0 223 86 244 205c24 135 -69 221 -181 221c-109 0 -217 -75 -241 -206c-20 -120 58 -220 178 -220z" />
    <glyph glyph-name="h" unicode="h" 
d="M336 511c88 0 158 -69 138 -181l-58 -330h-51l59 330c15 86 -29 133 -103 133c-76 0 -163 -53 -186 -172l-52 -291h-50l123 700h50l-48 -278c50 66 115 89 178 89z" />
    <glyph glyph-name="hbar" unicode="&#x127;" horiz-adv-x="537" 
d="M350 511c88 0 157 -69 138 -181l-59 -330h-50l58 330c15 86 -29 133 -102 133c-77 0 -164 -53 -187 -172l-51 -291h-51l102 582h-72l7 42h73l13 76h51l-14 -76h157l-7 -42h-157l-28 -160c50 66 115 89 179 89z" />
    <glyph glyph-name="i" unicode="i" horiz-adv-x="204" 
d="M139 600l17 100h50l-17 -100h-50zM33 0l88 500h50l-88 -500h-50z" />
    <glyph glyph-name="dotlessi" unicode="&#x131;" horiz-adv-x="204" 
d="M33 0l88 500h50l-88 -500h-50z" />
    <glyph glyph-name="iacute" unicode="&#xed;" horiz-adv-x="204" 
d="M132 570h49l88 127h-60zM33 0l88 500h50l-88 -500h-50z" />
    <glyph glyph-name="icircumflex" unicode="&#xee;" horiz-adv-x="204" 
d="M273 570h-57l-42 86l-72 -86h-57l106 127h57h2zM33 0l88 500h50l-88 -500h-50z" />
    <glyph glyph-name="idieresis" unicode="&#xef;" horiz-adv-x="204" 
d="M63 580l13 73h60l-13 -73h-60zM197 580l13 73h60l-13 -73h-60zM33 0l88 500h50l-88 -500h-50z" />
    <glyph glyph-name="i.loclTRK" horiz-adv-x="204" 
d="M127 580l15 83h67l-15 -83h-67zM33 0l88 500h50l-88 -500h-50z" />
    <glyph glyph-name="igrave" unicode="&#xec;" horiz-adv-x="204" 
d="M185 570l-33 127h-61l45 -127h49zM83 0h-50l88 500h50z" />
    <glyph glyph-name="imacron" unicode="&#x12b;" horiz-adv-x="204" 
d="M68 587l8 44h186l-7 -44h-187zM33 0l88 500h50l-88 -500h-50z" />
    <glyph glyph-name="iogonek" unicode="&#x12f;" horiz-adv-x="204" 
d="M156 700h50l-17 -100h-50zM83 0c-36 -48 -59 -85 -66 -123c-4 -25 8 -45 33 -45c16 0 29 3 44 9l-7 -42c-17 -7 -35 -10 -56 -10c-51 0 -72 40 -65 83c7 36 24 73 68 133l87 495h50z" />
    <glyph glyph-name="j" unicode="j" horiz-adv-x="223" 
d="M175 700h50l-17 -100h-50zM42 -57l98 557h50l-98 -557c-20 -118 -86 -165 -193 -154l8 48c78 -8 121 26 135 106z" />
    <glyph glyph-name="k" unicode="k" horiz-adv-x="483" 
d="M495 500l-313 -241l234 -259h-62l-227 251l-44 -251h-50l123 700h50l-74 -424l292 224h71z" />
    <glyph glyph-name="kcommaaccent" unicode="&#x137;" horiz-adv-x="483" 
d="M495 500l-313 -241l234 -259h-62l-227 251l-44 -251h-50l123 700h50l-74 -424l292 224h71zM142 -240l40 170h51l-55 -170h-36z" />
    <glyph glyph-name="l" unicode="l" horiz-adv-x="204" 
d="M33 0l127 720h50l-72 -414l-55 -306h-50z" />
    <glyph glyph-name="lacute" unicode="&#x13a;" horiz-adv-x="204" 
d="M169 770h50l112 127h-62zM33 0l127 720h50l-72 -414l-55 -306h-50z" />
    <glyph glyph-name="lcaron" unicode="&#x13e;" horiz-adv-x="247" 
d="M33 0l127 720h50l-72 -414l-55 -306h-50zM282 550l54 170h-50l-40 -170h36z" />
    <glyph glyph-name="lcommaaccent" unicode="&#x13c;" horiz-adv-x="204" 
d="M33 0l127 720h50l-72 -414l-55 -306h-50zM18 -240l55 170h-51l-40 -170h36z" />
    <glyph glyph-name="lslash" unicode="&#x142;" horiz-adv-x="240" 
d="M256 453l-9 -52l-84 -51l-7 -44l-55 -306h-50l54 306l2 9l-84 -51l9 52l84 52l62 352h50l-55 -318z" />
    <glyph glyph-name="m" unicode="m" horiz-adv-x="777" 
d="M604 511c75 0 146 -56 125 -171l-60 -340h-50l59 340c15 86 -26 123 -87 123c-58 0 -137 -41 -161 -155l-54 -308h-50l59 340c15 86 -26 123 -87 123c-58 0 -137 -41 -160 -152l-55 -311h-50l88 500h50l-11 -65c47 58 104 76 154 76c53 0 105 -30 121 -91
c49 69 112 91 169 91z" />
    <glyph glyph-name="n" unicode="n" 
d="M334 511c91 0 161 -66 140 -181l-58 -330h-51l59 330c15 88 -29 133 -103 133c-75 0 -160 -51 -186 -171l-52 -292h-50l88 500h50l-13 -77c50 66 115 88 176 88z" />
    <glyph glyph-name="nacute" unicode="&#x144;" 
d="M446 697l-112 -127h-50l100 127h62zM334 511c91 0 161 -66 140 -181l-58 -330h-51l59 330c15 88 -29 133 -103 133c-75 0 -160 -51 -186 -171l-52 -292h-50l88 500h50l-13 -77c50 66 115 88 176 88z" />
    <glyph glyph-name="ncaron" unicode="&#x148;" 
d="M295 570l-86 127h54l64 -94l96 94h61l-130 -127h-59zM334 511c91 0 161 -66 140 -181l-58 -330h-51l59 330c15 88 -29 133 -103 133c-75 0 -160 -51 -186 -171l-52 -292h-50l88 500h50l-13 -77c50 66 115 88 176 88z" />
    <glyph glyph-name="ncommaaccent" unicode="&#x146;" 
d="M334 511c91 0 161 -66 140 -181l-58 -330h-51l59 330c15 88 -29 133 -103 133c-75 0 -160 -51 -186 -171l-52 -292h-50l88 500h50l-13 -77c50 66 115 88 176 88zM151 -240l40 170h51l-55 -170h-36z" />
    <glyph glyph-name="eng" unicode="&#x14b;" 
d="M334 511c91 0 161 -66 140 -181l-68 -387c-19 -106 -87 -164 -193 -154l8 48c77 -8 120 26 134 106l69 387c15 88 -29 133 -103 133c-78 0 -165 -54 -188 -180l-50 -283h-50l88 500h50l-13 -77c50 66 115 88 176 88z" />
    <glyph glyph-name="ntilde" unicode="&#xf1;" 
d="M330 611c-48 49 -81 49 -95 -28h-44c18 115 92 134 151 74c47 -48 81 -49 95 28h44c-19 -114 -92 -133 -151 -74zM334 511c91 0 161 -66 140 -181l-58 -330h-51l59 330c15 88 -29 133 -103 133c-75 0 -160 -51 -186 -171l-52 -292h-50l88 500h50l-13 -77
c50 66 115 88 176 88z" />
    <glyph glyph-name="o" unicode="o" horiz-adv-x="612" 
d="M264 -11c-135 0 -248 103 -220 266c29 163 173 256 309 256c134 0 243 -105 215 -265c-29 -166 -169 -257 -304 -257zM269 37c111 0 225 80 249 215c23 131 -64 211 -174 211c-110 -1 -225 -80 -249 -213c-23 -133 64 -213 174 -213z" />
    <glyph glyph-name="oacute" unicode="&#xf3;" horiz-adv-x="612" 
d="M319 570h50l112 127h-62zM264 -11c-135 0 -248 103 -220 266c29 163 173 256 309 256c134 0 243 -105 215 -265c-29 -166 -169 -257 -304 -257zM269 37c111 0 225 80 249 215c23 131 -64 211 -174 211c-110 -1 -225 -80 -249 -213c-23 -133 64 -213 174 -213z" />
    <glyph glyph-name="ocircumflex" unicode="&#xf4;" horiz-adv-x="612" 
d="M379 665l-97 -95h-60l130 127h59l87 -127h-55zM353 511c134 0 243 -105 215 -265c-29 -166 -169 -257 -304 -257s-248 103 -220 266c29 163 173 256 309 256zM518 252c23 131 -64 211 -174 211c-110 -1 -225 -80 -249 -213c-23 -133 64 -213 174 -213
c111 0 225 80 249 215z" />
    <glyph glyph-name="odieresis" unicode="&#xf6;" horiz-adv-x="612" 
d="M235 580l13 73h60l-13 -73h-60zM428 580l13 73h60l-13 -73h-60zM264 -11c-135 0 -248 103 -220 266c29 163 173 256 309 256c134 0 243 -105 215 -265c-29 -166 -169 -257 -304 -257zM269 37c111 0 225 80 249 215c23 131 -64 211 -174 211c-110 -1 -225 -80 -249 -213
c-23 -133 64 -213 174 -213z" />
    <glyph glyph-name="ograve" unicode="&#xf2;" horiz-adv-x="612" 
d="M395 570l-58 127h-60l70 -127h48zM264 -11c-135 0 -248 103 -220 266c29 163 173 256 309 256c134 0 243 -105 215 -265c-29 -166 -169 -257 -304 -257zM269 37c111 0 225 80 249 215c23 131 -64 211 -174 211c-110 -1 -225 -80 -249 -213c-23 -133 64 -213 174 -213z
" />
    <glyph glyph-name="ohungarumlaut" unicode="&#x151;" horiz-adv-x="612" 
d="M247 570h52l96 130h-58zM389 570h53l105 130h-58zM264 -11c-135 0 -248 103 -220 266c29 163 173 256 309 256c134 0 243 -105 215 -265c-29 -166 -169 -257 -304 -257zM269 37c111 0 225 80 249 215c23 131 -64 211 -174 211c-110 -1 -225 -80 -249 -213
c-23 -133 64 -213 174 -213z" />
    <glyph glyph-name="omacron" unicode="&#x14d;" horiz-adv-x="612" 
d="M236 587l8 44h253l-7 -44h-254zM264 -11c-135 0 -248 103 -220 266c29 163 173 256 309 256c134 0 243 -105 215 -265c-29 -166 -169 -257 -304 -257zM269 37c111 0 225 80 249 215c23 131 -64 211 -174 211c-110 -1 -225 -80 -249 -213c-23 -133 64 -213 174 -213z" />
    <glyph glyph-name="oslash" unicode="&#xf8;" horiz-adv-x="612" 
d="M595 500l-69 -67c37 -46 55 -110 42 -187c-29 -166 -169 -257 -304 -257c-56 0 -108 17 -148 49l-39 -38h-54l66 64c-39 46 -59 111 -45 191c29 163 173 256 309 256c56 0 107 -18 146 -51l42 40h54zM95 250c-11 -63 3 -114 32 -150l335 324c-31 25 -73 39 -118 39
c-110 -1 -225 -80 -249 -213zM518 252c10 60 -2 109 -30 145l-335 -323c31 -24 72 -37 116 -37c111 0 225 80 249 215z" />
    <glyph glyph-name="otilde" unicode="&#xf5;" horiz-adv-x="612" 
d="M227 583c18 115 92 134 151 74c47 -48 81 -49 95 28h44c-19 -114 -92 -133 -151 -74c-48 49 -81 49 -95 -28h-44zM264 -11c-135 0 -248 103 -220 266c29 163 173 256 309 256c134 0 243 -105 215 -265c-29 -166 -169 -257 -304 -257zM269 37c111 0 225 80 249 215
c23 131 -64 211 -174 211c-110 -1 -225 -80 -249 -213c-23 -133 64 -213 174 -213z" />
    <glyph glyph-name="oe" unicode="&#x153;" horiz-adv-x="1045" 
d="M812 511c150 0 224 -126 200 -263l-6 -24h-50h-392c-9 -114 60 -187 171 -187c81 0 150 41 183 97h56c-43 -86 -136 -145 -250 -145c-106 0 -179 62 -200 155c-52 -94 -150 -155 -264 -155c-146 0 -242 118 -216 265c26 148 155 257 308 257c104 0 182 -63 206 -155
c49 93 139 155 254 155zM269 37c119 0 227 94 247 213c22 119 -53 213 -172 213c-123 0 -228 -94 -249 -213s51 -213 174 -213zM572 273h392c12 121 -58 190 -156 190c-113 0 -207 -79 -236 -190z" />
    <glyph glyph-name="p" unicode="p" horiz-adv-x="645" 
d="M385 511c138 0 242 -119 216 -267c-26 -147 -149 -255 -301 -255c-94 0 -165 54 -195 135l-57 -324h-50l123 700h50l-18 -105c53 72 135 116 232 116zM550 250c21 119 -58 213 -177 213s-224 -90 -245 -210c-21 -119 58 -216 177 -216c122 0 224 94 245 213z" />
    <glyph glyph-name="thorn" unicode="&#xfe;" horiz-adv-x="645" 
d="M385 511c138 0 242 -119 216 -267c-26 -147 -149 -255 -301 -255c-94 0 -165 54 -195 135l-57 -324h-50l158 900h50l-53 -305c53 72 135 116 232 116zM550 250c21 119 -58 213 -177 213s-224 -90 -245 -210c-21 -119 58 -216 177 -216c122 0 224 94 245 213z" />
    <glyph glyph-name="q" unicode="q" horiz-adv-x="646" 
d="M563 500h50l-123 -700h-50l53 301c-53 -70 -134 -112 -231 -112c-140 0 -243 124 -217 272c29 162 158 250 289 250c93 0 175 -50 207 -136zM274 37c119 0 222 85 243 204l1 2c23 134 -69 220 -181 220c-109 0 -218 -75 -241 -206c-21 -120 58 -220 178 -220z" />
    <glyph glyph-name="r" unicode="r" horiz-adv-x="318" 
d="M156 415c51 72 119 95 184 92l-9 -48c-86 0 -176 -53 -199 -181l-49 -278h-50l88 500h50z" />
    <glyph glyph-name="racute" unicode="&#x155;" horiz-adv-x="318" 
d="M363 697l-112 -127h-50l100 127h62zM156 415c51 72 119 95 184 92l-9 -48c-86 0 -176 -53 -199 -181l-49 -278h-50l88 500h50z" />
    <glyph glyph-name="rcaron" unicode="&#x159;" horiz-adv-x="318" 
d="M212 570l-86 127h54l64 -94l96 94h61l-130 -127h-59zM156 415c51 72 119 95 184 92l-9 -48c-86 0 -176 -53 -199 -181l-49 -278h-50l88 500h50z" />
    <glyph glyph-name="rcommaaccent" unicode="&#x157;" horiz-adv-x="318" 
d="M156 415c51 72 119 95 184 92l-9 -48c-86 0 -176 -53 -199 -181l-49 -278h-50l88 500h50zM-19 -240l40 170h51l-55 -170h-36z" />
    <glyph glyph-name="s" unicode="s" horiz-adv-x="464" 
d="M423 362h-51c13 70 -39 101 -103 101c-66 0 -128 -28 -139 -89c-24 -138 296 -65 263 -252c-14 -80 -94 -133 -204 -133s-177 60 -161 149h51c-13 -70 41 -101 114 -101c74 0 138 29 149 90c25 140 -296 67 -263 252c15 81 92 132 194 132c101 0 166 -60 150 -149z" />
    <glyph glyph-name="sacute" unicode="&#x15b;" horiz-adv-x="464" 
d="M407 697l-112 -127h-50l100 127h62zM423 362h-51c13 70 -39 101 -103 101c-66 0 -128 -28 -139 -89c-24 -138 296 -65 263 -252c-14 -80 -94 -133 -204 -133s-177 60 -161 149h51c-13 -70 41 -101 114 -101c74 0 138 29 149 90c25 140 -296 67 -263 252
c15 81 92 132 194 132c101 0 166 -60 150 -149z" />
    <glyph glyph-name="scaron" unicode="&#x161;" horiz-adv-x="464" 
d="M256 570l-86 127h54l64 -94l96 94h61l-130 -127h-59zM273 511c101 0 166 -60 150 -149h-51c13 70 -39 101 -103 101c-66 0 -128 -28 -139 -89c-24 -138 296 -65 263 -252c-14 -80 -94 -133 -204 -133s-177 60 -161 149h51c-13 -70 41 -101 114 -101c74 0 138 29 149 90
c25 140 -296 67 -263 252c15 81 92 132 194 132z" />
    <glyph glyph-name="scedilla" unicode="&#x15f;" horiz-adv-x="464" 
d="M423 362h-51c13 70 -39 101 -103 101c-66 0 -128 -28 -139 -89c-24 -138 296 -65 263 -252c-13 -75 -83 -126 -183 -133l-8 -45c49 -6 85 -36 78 -79c-9 -49 -57 -89 -209 -76l8 41c98 -10 150 7 156 39c5 29 -26 45 -84 43l14 78c-96 8 -151 65 -137 148h51
c-13 -70 41 -101 114 -101c74 0 138 29 149 90c25 140 -296 67 -263 252c15 81 92 132 194 132c101 0 166 -60 150 -149z" />
    <glyph glyph-name="scommaaccent" unicode="&#x219;" horiz-adv-x="464" 
d="M423 362h-51c13 70 -39 101 -103 101c-66 0 -128 -28 -139 -89c-24 -138 296 -65 263 -252c-14 -80 -94 -133 -204 -133s-177 60 -161 149h51c-13 -70 41 -101 114 -101c74 0 138 29 149 90c25 140 -296 67 -263 252c15 81 92 132 194 132c101 0 166 -60 150 -149z
M124 -240l40 170h51l-55 -170h-36z" />
    <glyph glyph-name="germandbls" unicode="&#xdf;" horiz-adv-x="496" 
d="M235 -4l8 47c83 -6 147 27 160 98c17 100 -118 167 -103 251c11 62 108 96 122 176c11 63 -31 95 -92 95c-67 0 -136 -37 -154 -138l-93 -525h-50l93 528c23 127 106 183 211 183c94 0 151 -65 136 -147c-16 -87 -115 -132 -122 -176c-12 -68 124 -128 102 -252
c-16 -92 -93 -149 -218 -140z" />
    <glyph glyph-name="t" unicode="t" horiz-adv-x="317" 
d="M337 500l-8 -49h-110l-79 -451h-51l80 451h-110l8 49h110l28 160h51l-28 -160h109z" />
    <glyph glyph-name="tbar" unicode="&#x167;" horiz-adv-x="317" 
d="M329 451h-110l-23 -130h82l-8 -42h-81l-49 -279h-51l49 279h-81l8 42h81l23 130h-110l8 49h110l28 160h51l-28 -160h109z" />
    <glyph glyph-name="tcaron" unicode="&#x165;" horiz-adv-x="321" 
d="M386 720l-52 -157h-36l38 157h50zM256 660l-28 -160h109l-8 -49h-110l-79 -451h-51l80 451h-110l8 49h110l28 160h51z" />
    <glyph glyph-name="uni0163" unicode="&#x163;" horiz-adv-x="317" 
d="M337 500l-8 -49h-110l-79 -451h-51l80 451h-110l8 49h110l28 160h51l-28 -160h109zM37 -240l40 170h51l-55 -170h-36z" />
    <glyph glyph-name="uni021B" unicode="&#x21b;" horiz-adv-x="317" 
d="M337 500l-8 -49h-110l-79 -451h-51l80 451h-110l8 49h110l28 160h51l-28 -160h109zM37 -240l40 170h51l-55 -170h-36z" />
    <glyph glyph-name="u" unicode="u" 
d="M440 500h51l-88 -500h-51l14 77c-47 -65 -111 -88 -173 -88c-93 0 -164 67 -143 181l58 330h50l-57 -330c-16 -86 28 -133 101 -133c78 0 162 54 187 173z" />
    <glyph glyph-name="uacute" unicode="&#xfa;" 
d="M431 697l-112 -127h-50l100 127h62zM440 500h51l-88 -500h-51l14 77c-47 -65 -111 -88 -173 -88c-93 0 -164 67 -143 181l58 330h50l-57 -330c-16 -86 28 -133 101 -133c78 0 162 54 187 173z" />
    <glyph glyph-name="ucircumflex" unicode="&#xfb;" 
d="M330 665l-97 -95h-60l130 127h59l87 -127h-55zM440 500h51l-88 -500h-51l14 77c-47 -65 -111 -88 -173 -88c-93 0 -164 67 -143 181l58 330h50l-57 -330c-16 -86 28 -133 101 -133c78 0 162 54 187 173z" />
    <glyph glyph-name="udieresis" unicode="&#xfc;" 
d="M258 653l-13 -73h-60l13 73h60zM451 653l-13 -73h-60l13 73h60zM440 500h51l-88 -500h-51l14 77c-47 -65 -111 -88 -173 -88c-93 0 -164 67 -143 181l58 330h50l-57 -330c-16 -86 28 -133 101 -133c78 0 162 54 187 173z" />
    <glyph glyph-name="ugrave" unicode="&#xf9;" 
d="M346 570h-48l-70 127h60zM440 500h51l-88 -500h-51l14 77c-47 -65 -111 -88 -173 -88c-93 0 -164 67 -143 181l58 330h50l-57 -330c-16 -86 28 -133 101 -133c78 0 162 54 187 173z" />
    <glyph glyph-name="uhungarumlaut" unicode="&#x171;" 
d="M345 700l-96 -130h-52l90 130h58zM392 570h-53l100 130h58zM389 210l51 290h51l-88 -500h-51l14 77c-47 -65 -111 -88 -173 -88c-93 0 -164 67 -143 181l58 330h50l-57 -330c-16 -86 28 -133 101 -133c78 0 162 54 187 173z" />
    <glyph glyph-name="umacron" unicode="&#x16b;" 
d="M447 631l-7 -44h-254l8 44h253zM440 500h51l-88 -500h-51l14 77c-47 -65 -111 -88 -173 -88c-93 0 -164 67 -143 181l58 330h50l-57 -330c-16 -86 28 -133 101 -133c78 0 162 54 187 173z" />
    <glyph glyph-name="uogonek" unicode="&#x173;" 
d="M403 0c-59 -46 -100 -93 -106 -131c-4 -25 10 -37 34 -37c16 0 29 3 44 9l-7 -42c-18 -7 -35 -10 -56 -10c-50 0 -74 33 -66 76c7 39 41 84 108 144l12 68c-47 -65 -111 -88 -173 -88c-93 0 -164 67 -143 181l58 330h50l-57 -330c-16 -86 28 -133 101 -133
c80 0 166 56 188 181h1l49 282h51z" />
    <glyph glyph-name="uring" unicode="&#x16f;" 
d="M308 553c-58 0 -95 44 -85 99s56 95 119 95c58 0 95 -44 86 -99c-10 -55 -56 -95 -120 -95zM266 650c-6 -33 12 -57 49 -57c38 0 65 24 71 57c5 33 -13 57 -51 57c-37 0 -64 -24 -69 -57zM440 500h51l-88 -500h-51l14 77c-47 -65 -111 -88 -173 -88
c-93 0 -164 67 -143 181l58 330h50l-57 -330c-16 -86 28 -133 101 -133c78 0 162 54 187 173z" />
    <glyph glyph-name="v" unicode="v" horiz-adv-x="477" 
d="M451 500h57l-283 -500h-54h-7l-107 500h51l93 -447z" />
    <glyph glyph-name="w" unicode="w" horiz-adv-x="677" 
d="M651 500h56l-265 -500h-51h-4l-47 259l-138 -259h-51h-4l-90 500h52l74 -441l144 273l-30 168h51l74 -440z" />
    <glyph glyph-name="wacute" unicode="&#x1e83;" horiz-adv-x="677" 
d="M517 697l-112 -127h-50l100 127h62zM651 500h56l-265 -500h-51h-4l-47 259l-138 -259h-51h-4l-90 500h52l74 -441l144 273l-30 168h51l74 -440z" />
    <glyph glyph-name="wcircumflex" unicode="&#x175;" horiz-adv-x="677" 
d="M416 665l-97 -95h-60l130 127h59l87 -127h-55zM651 500h56l-265 -500h-51h-4l-47 259l-138 -259h-51h-4l-90 500h52l74 -441l144 273l-30 168h51l74 -440z" />
    <glyph glyph-name="wdieresis" unicode="&#x1e85;" horiz-adv-x="677" 
d="M344 653l-13 -73h-60l13 73h60zM537 653l-13 -73h-60l13 73h60zM651 500h56l-265 -500h-51h-4l-47 259l-138 -259h-51h-4l-90 500h52l74 -441l144 273l-30 168h51l74 -440z" />
    <glyph glyph-name="wgrave" unicode="&#x1e81;" horiz-adv-x="677" 
d="M432 570h-48l-70 127h60zM651 500h56l-265 -500h-51h-4l-47 259l-138 -259h-51h-4l-90 500h52l74 -441l144 273l-30 168h51l74 -440z" />
    <glyph glyph-name="x" unicode="x" horiz-adv-x="450" 
d="M459 500l-205 -243l129 -257h-53l-109 217l-183 -217h-59l220 261l-120 239h53l100 -200l168 200h59z" />
    <glyph glyph-name="y" unicode="y" horiz-adv-x="470" 
d="M445 500h56l-380 -700h-55l110 204l-119 496h51l103 -430z" />
    <glyph glyph-name="yacute" unicode="&#xfd;" horiz-adv-x="470" 
d="M250 570h50l112 127h-62zM445 500h56l-380 -700h-55l110 204l-119 496h51l103 -430z" />
    <glyph glyph-name="ycircumflex" unicode="&#x177;" horiz-adv-x="470" 
d="M311 665l-97 -95h-60l130 127h59l87 -127h-55zM445 500h56l-380 -700h-55l110 204l-119 496h51l103 -430z" />
    <glyph glyph-name="ydieresis" unicode="&#xff;" horiz-adv-x="470" 
d="M166 580l13 73h60l-13 -73h-60zM359 580l13 73h60l-13 -73h-60zM445 500h56l-380 -700h-55l110 204l-119 496h51l103 -430z" />
    <glyph glyph-name="ygrave" unicode="&#x1ef3;" horiz-adv-x="470" 
d="M327 570l-58 127h-60l70 -127h48zM445 500h56l-380 -700h-55l110 204l-119 496h51l103 -430z" />
    <glyph glyph-name="z" unicode="z" horiz-adv-x="457" 
d="M454 500l-6 -33l-364 -418h300l-8 -49h-373l6 33l364 418h-281l9 49h353z" />
    <glyph glyph-name="zacute" unicode="&#x17a;" horiz-adv-x="457" 
d="M412 697l-112 -127h-50l100 127h62zM454 500l-6 -33l-364 -418h300l-8 -49h-373l6 33l364 418h-281l9 49h353z" />
    <glyph glyph-name="zcaron" unicode="&#x17e;" horiz-adv-x="457" 
d="M261 570l-86 127h54l64 -94l96 94h61l-130 -127h-59zM454 500l-6 -33l-364 -418h300l-8 -49h-373l6 33l364 418h-281l9 49h353z" />
    <glyph glyph-name="zdotaccent" unicode="&#x17c;" horiz-adv-x="457" 
d="M341 663l-15 -83h-67l15 83h67zM454 500l-6 -33l-364 -418h300l-8 -49h-373l6 33l364 418h-281l9 49h353z" />
    <glyph glyph-name="a.ss01" horiz-adv-x="646" 
d="M563 500h50l-88 -500h-50l17 101c-52 -70 -133 -112 -230 -112c-140 0 -243 124 -217 272c29 162 158 250 289 250c93 0 175 -50 207 -136zM274 37c119 0 223 86 243 206c24 134 -68 220 -180 220c-109 0 -218 -75 -241 -206c-21 -120 58 -220 178 -220z" />
    <glyph glyph-name="aacute.ss01" horiz-adv-x="646" 
d="M482 697l-112 -127h-50l100 127h62zM563 500h50l-88 -500h-50l17 101c-52 -70 -133 -112 -230 -112c-140 0 -243 124 -217 272c29 162 158 250 289 250c93 0 175 -50 207 -136zM274 37c119 0 223 86 243 206c24 134 -68 220 -180 220c-109 0 -218 -75 -241 -206
c-21 -120 58 -220 178 -220z" />
    <glyph glyph-name="abreve.ss01" horiz-adv-x="646" 
d="M362 565c-76 0 -127 46 -113 122h48c-9 -54 18 -78 71 -78s90 28 99 78h48c-13 -76 -68 -122 -153 -122zM563 500h50l-88 -500h-50l17 101c-52 -70 -133 -112 -230 -112c-140 0 -243 124 -217 272c29 162 158 250 289 250c93 0 175 -50 207 -136zM274 37
c119 0 223 86 243 206c24 134 -68 220 -180 220c-109 0 -218 -75 -241 -206c-21 -120 58 -220 178 -220z" />
    <glyph glyph-name="acircumflex.ss01" horiz-adv-x="646" 
d="M380 665l-97 -95h-60l130 127h59l87 -127h-55zM563 500h50l-88 -500h-50l17 101c-52 -70 -133 -112 -230 -112c-140 0 -243 124 -217 272c29 162 158 250 289 250c93 0 175 -50 207 -136zM274 37c119 0 223 86 243 206c24 134 -68 220 -180 220
c-109 0 -218 -75 -241 -206c-21 -120 58 -220 178 -220z" />
    <glyph glyph-name="adieresis.ss01" horiz-adv-x="646" 
d="M309 653l-13 -73h-60l13 73h60zM502 653l-13 -73h-60l13 73h60zM563 500h50l-88 -500h-50l17 101c-52 -70 -133 -112 -230 -112c-140 0 -243 124 -217 272c29 162 158 250 289 250c93 0 175 -50 207 -136zM274 37c119 0 223 86 243 206c24 134 -68 220 -180 220
c-109 0 -218 -75 -241 -206c-21 -120 58 -220 178 -220z" />
    <glyph glyph-name="agrave.ss01" horiz-adv-x="646" 
d="M396 570h-48l-70 127h60zM563 500h50l-88 -500h-50l17 101c-52 -70 -133 -112 -230 -112c-140 0 -243 124 -217 272c29 162 158 250 289 250c93 0 175 -50 207 -136zM274 37c119 0 223 86 243 206c24 134 -68 220 -180 220c-109 0 -218 -75 -241 -206
c-21 -120 58 -220 178 -220z" />
    <glyph glyph-name="amacron.ss01" horiz-adv-x="646" 
d="M498 631l-7 -44h-254l8 44h253zM563 500h50l-88 -500h-50l17 101c-52 -70 -133 -112 -230 -112c-140 0 -243 124 -217 272c29 162 158 250 289 250c93 0 175 -50 207 -136zM274 37c119 0 223 86 243 206c24 134 -68 220 -180 220c-109 0 -218 -75 -241 -206
c-21 -120 58 -220 178 -220z" />
    <glyph glyph-name="aogonek.ss01" horiz-adv-x="647" 
d="M525 0c-59 -46 -100 -93 -106 -131c-4 -25 10 -37 34 -37c16 0 29 3 44 9l-7 -42c-17 -7 -35 -10 -56 -10c-49 0 -73 33 -65 76c6 40 40 89 108 146l15 90c-52 -70 -133 -112 -230 -112c-140 0 -243 124 -217 272c29 162 158 250 289 250c93 0 175 -50 207 -136l22 125
h50zM274 37c119 0 223 86 243 206c24 134 -68 220 -180 220c-109 0 -218 -75 -241 -206c-21 -120 58 -220 178 -220z" />
    <glyph glyph-name="aring.ss01" horiz-adv-x="646" 
d="M358 553c-58 0 -95 44 -85 99s56 95 119 95c58 0 95 -44 86 -99c-10 -55 -56 -95 -120 -95zM316 650c-6 -33 12 -57 49 -57c38 0 65 24 71 57c5 33 -13 57 -51 57c-37 0 -64 -24 -69 -57zM563 500h50l-88 -500h-50l17 101c-52 -70 -133 -112 -230 -112
c-140 0 -243 124 -217 272c29 162 158 250 289 250c93 0 175 -50 207 -136zM274 37c119 0 223 86 243 206c24 134 -68 220 -180 220c-109 0 -218 -75 -241 -206c-21 -120 58 -220 178 -220z" />
    <glyph glyph-name="atilde.ss01" horiz-adv-x="646" 
d="M367 611c-48 49 -81 49 -95 -28h-44c18 115 92 134 151 74c47 -48 81 -49 95 28h44c-19 -114 -92 -133 -151 -74zM563 500h50l-88 -500h-50l17 101c-52 -70 -133 -112 -230 -112c-140 0 -243 124 -217 272c29 162 158 250 289 250c93 0 175 -50 207 -136zM274 37
c119 0 223 86 243 206c24 134 -68 220 -180 220c-109 0 -218 -75 -241 -206c-21 -120 58 -220 178 -220z" />
    <glyph glyph-name="ae.ss01" horiz-adv-x="1048" 
d="M821 511c149 0 217 -126 193 -263c-1 -8 -4 -16 -6 -24h-50h-392c-9 -114 60 -187 171 -187c81 0 150 41 184 97h55c-42 -86 -131 -145 -241 -145c-98 0 -164 50 -190 128l-20 -117h-50l18 104c-54 -71 -137 -115 -234 -115c-141 0 -240 121 -214 269
c29 161 162 253 293 253c91 0 171 -47 203 -131l22 120h50l-20 -114c50 76 131 125 228 125zM271 37c117 0 223 87 246 204l2 10c21 132 -68 212 -179 212c-109 0 -221 -78 -244 -210c-21 -119 54 -216 175 -216zM574 273h393c11 121 -58 190 -157 190
c-113 0 -207 -79 -236 -190z" />
    <glyph glyph-name="y.ss01" 
d="M440 500h51l-93 -528c-21 -122 -111 -183 -217 -183c-103 0 -173 68 -157 163h51c-13 -76 42 -115 114 -115c73 0 142 41 159 135l18 105c-47 -65 -110 -88 -173 -88c-93 0 -164 67 -143 181l58 330h50l-57 -330c-16 -86 28 -133 101 -133c80 0 166 56 188 180h1z" />
    <glyph glyph-name="yacute.ss01" 
d="M433 697l-112 -127h-50l100 127h62zM440 500h51l-93 -528c-21 -122 -111 -183 -217 -183c-103 0 -173 68 -157 163h51c-13 -76 42 -115 114 -115c73 0 142 41 159 135l18 105c-47 -65 -110 -88 -173 -88c-93 0 -164 67 -143 181l58 330h50l-57 -330
c-16 -86 28 -133 101 -133c80 0 166 56 188 180h1z" />
    <glyph glyph-name="ycircumflex.ss01" 
d="M331 665l-97 -95h-60l130 127h59l87 -127h-55zM440 500h51l-93 -528c-21 -122 -111 -183 -217 -183c-103 0 -173 68 -157 163h51c-13 -76 42 -115 114 -115c73 0 142 41 159 135l18 105c-47 -65 -110 -88 -173 -88c-93 0 -164 67 -143 181l58 330h50l-57 -330
c-16 -86 28 -133 101 -133c80 0 166 56 188 180h1z" />
    <glyph glyph-name="ydieresis.ss01" 
d="M260 653l-13 -73h-60l13 73h60zM453 653l-13 -73h-60l13 73h60zM440 500h51l-93 -528c-21 -122 -111 -183 -217 -183c-103 0 -173 68 -157 163h51c-13 -76 42 -115 114 -115c73 0 142 41 159 135l18 105c-47 -65 -110 -88 -173 -88c-93 0 -164 67 -143 181l58 330h50
l-57 -330c-16 -86 28 -133 101 -133c80 0 166 56 188 180h1z" />
    <glyph glyph-name="ygrave.ss01" 
d="M347 570h-48l-70 127h60zM440 500h51l-93 -528c-21 -122 -111 -183 -217 -183c-103 0 -173 68 -157 163h51c-13 -76 42 -115 114 -115c73 0 142 41 159 135l18 105c-47 -65 -110 -88 -173 -88c-93 0 -164 67 -143 181l58 330h50l-57 -330c-16 -86 28 -133 101 -133
c80 0 166 56 188 180h1z" />
    <glyph glyph-name="f_f_j" horiz-adv-x="773" 
d="M651 673c-103 0 -156 -39 -174 -136l-6 -37h242h28l-98 -557c-19 -106 -88 -164 -194 -154l9 48c77 -8 120 26 134 106l89 508h-219l-79 -451h-51l80 451h-87h-132l-80 -451h-50l79 451h-86l8 49h87l5 27c22 128 102 194 232 184l-9 -48c-100 8 -155 -39 -173 -136
l-4 -27h148h70l7 37c21 128 101 184 232 184c33 0 63 -4 95 -11l-7 -46c-32 6 -63 9 -96 9z" />
    <glyph glyph-name="f_j" horiz-adv-x="504" 
d="M379 663c-102 0 -155 -39 -173 -136l-4 -27h242h27l-98 -557c-19 -106 -87 -164 -193 -154l8 48c77 -8 120 26 134 106l90 508h-219l-80 -451h-50l79 451h-86l8 49h87l5 27c22 128 101 184 232 184c33 0 63 -4 95 -11l-8 -46c-32 6 -63 9 -96 9z" />
    <glyph glyph-name="ordfeminine" unicode="&#xaa;" horiz-adv-x="278" 
d="M221 711c53 0 89 -35 79 -91l-29 -164h-39l4 22c-19 -21 -45 -28 -77 -28c-48 0 -85 33 -76 83c8 49 55 75 101 75c30 0 56 -12 70 -31l8 43c6 35 -14 54 -49 54s-59 -17 -64 -44h-38c8 49 48 81 110 81zM173 483c29 0 64 10 72 41l1 7c3 32 -27 43 -60 43
c-35 0 -60 -17 -64 -43c-5 -28 15 -48 51 -48z" />
    <glyph glyph-name="ordmasculine" unicode="&#xba;" horiz-adv-x="330" 
d="M201 450c-73 0 -122 60 -109 134s78 127 155 127c72 0 120 -60 107 -134c-13 -73 -76 -127 -153 -127zM208 487c53 0 98 39 107 94c10 54 -21 93 -75 93c-53 0 -98 -39 -108 -93c-9 -55 22 -94 76 -94z" />
    <glyph glyph-name="uni0410" unicode="&#x410;" horiz-adv-x="629" 
d="M516 0l-37 178h-350l-100 -178h-58l395 700h56l148 -700h-54zM157 228h312l-83 407z" />
    <glyph glyph-name="uni0411" unicode="&#x411;" horiz-adv-x="586" 
d="M561 650h-351l-41 -237h200l-9 -50h-200l-55 -313h200c86 0 167 71 182 157c17 90 -42 164 -127 156l9 50c109 0 191 -100 170 -214c-20 -113 -124 -199 -243 -199h-230h-23l123 700h53h350z" />
    <glyph glyph-name="uni0412" unicode="&#x412;" horiz-adv-x="683" 
d="M534 440c81 -36 125 -119 108 -218c-22 -119 -119 -222 -260 -222h-329h-10l123 700h53h206c118 0 175 -82 159 -165c-7 -36 -25 -68 -50 -95zM430 650h-220l-33 -190h260c16 0 32 -1 46 -4c25 20 42 49 48 81c11 62 -26 113 -101 113zM590 230c18 100 -38 180 -142 180
h-280l-63 -360h279c104 0 189 81 206 180z" />
    <glyph glyph-name="uni0413" unicode="&#x413;" horiz-adv-x="493" 
d="M549 700l-8 -50h-331l-114 -650h-53l123 700h383z" />
    <glyph glyph-name="uni0403" unicode="&#x403;" horiz-adv-x="493" 
d="M488 896l-112 -127h-50l100 127h62zM549 700l-8 -50h-331l-114 -650h-53l123 700h383z" />
    <glyph glyph-name="uni0490" unicode="&#x490;" horiz-adv-x="483" 
d="M561 820l-26 -143l-4 -27h-321l-114 -650h-53l123 700h320l22 120h53z" />
    <glyph glyph-name="uni0414" unicode="&#x414;" horiz-adv-x="657" 
d="M510 50h73l-34 -194h-53l25 144h-493l-25 -144h-54l34 194h56c46 44 92 115 116 251l70 399h399zM208 300c-23 -127 -62 -202 -103 -250h352l105 600h-292z" />
    <glyph glyph-name="uni0415" unicode="&#x415;" horiz-adv-x="520" 
d="M542 650h-332l-48 -272h307l-9 -50h-306l-49 -278h337l-9 -50h-367h-23l123 700h53h332z" />
    <glyph glyph-name="uni0401" unicode="&#x401;" horiz-adv-x="520" 
d="M317 853l-13 -73h-60l13 73h60zM510 853l-13 -73h-60l13 73h60zM542 650h-332l-48 -272h307l-9 -50h-306l-49 -278h337l-9 -50h-367h-23l123 700h53h332z" />
    <glyph glyph-name="uni0416" unicode="&#x416;" horiz-adv-x="836" 
d="M887 700l-371 -344l256 -356h-57l-253 347l-61 -347h-53l61 347l-366 -347h-67l383 364l-249 336h57l246 -328l58 328h53l-57 -327l354 327h66z" />
    <glyph glyph-name="uni0417" unicode="&#x417;" horiz-adv-x="530" 
d="M419 410c61 -39 97 -112 82 -194c-22 -126 -124 -227 -275 -227c-149 0 -231 100 -209 226h53c-17 -100 40 -176 159 -176c117 0 201 81 218 181c18 99 -40 174 -145 174h-43l8 47h43c22 0 42 -3 61 -9c45 31 69 74 75 110c13 69 -25 119 -113 119
c-87 0 -146 -52 -159 -121h-53c17 94 96 171 220 171c112 0 175 -79 158 -173c-7 -43 -33 -89 -80 -128z" />
    <glyph glyph-name="uni0418" unicode="&#x418;" horiz-adv-x="630" 
d="M446 0l104 591l-460 -591h-47l123 700h53l-104 -591l460 591h47l-123 -700h-53z" />
    <glyph glyph-name="uni0419" unicode="&#x419;" horiz-adv-x="630" 
d="M282 787l8 44h253l-7 -44h-254zM446 0l104 591l-460 -591h-47l123 700h53l-104 -591l460 591h47l-123 -700h-53z" />
    <glyph glyph-name="uni041A" unicode="&#x41a;" horiz-adv-x="571" 
d="M632 700l-415 -344l300 -356h-64l-296 349l-61 -349h-53l123 700h53l-57 -326l398 326h72z" />
    <glyph glyph-name="uni040C" unicode="&#x40c;" horiz-adv-x="571" 
d="M498 896l-112 -127h-50l100 127h62zM632 700l-415 -344l300 -356h-64l-296 349l-61 -349h-53l123 700h53l-57 -326l398 326h72z" />
    <glyph glyph-name="uni041B" unicode="&#x41b;" horiz-adv-x="645" 
d="M-26 -1l9 47c90 -10 158 47 195 251l70 403h389l-123 -700h-53l115 650h-283l-63 -354c-42 -240 -128 -308 -256 -297z" />
    <glyph glyph-name="uni041C" unicode="&#x41c;" horiz-adv-x="807" 
d="M799 700l-123 -700h-53l107 613l-323 -489h-52l-151 489l-108 -613h-53l123 700h53h9l159 -515l340 515h72z" />
    <glyph glyph-name="uni041D" unicode="&#x41d;" horiz-adv-x="633" 
d="M572 700h54l-123 -700h-54l59 335h-353l-59 -335h-53l123 700h53l-55 -315h353z" />
    <glyph glyph-name="uni041E" unicode="&#x41e;" horiz-adv-x="819" 
d="M365 -11c-201 0 -335 169 -300 369c35 199 216 353 422 353c201 0 336 -172 301 -372c-36 -200 -216 -350 -423 -350zM374 40c178 0 330 135 360 307c30 171 -79 313 -256 313s-330 -138 -359 -310c-31 -172 79 -310 255 -310z" />
    <glyph glyph-name="uni041F" unicode="&#x41f;" horiz-adv-x="633" 
d="M626 700l-123 -700h-54l115 650h-354l-114 -650h-53l123 700h53h407z" />
    <glyph glyph-name="uni0420" unicode="&#x420;" horiz-adv-x="577" 
d="M405 700c109 0 191 -100 170 -214c-19 -114 -124 -199 -243 -199h-186l-50 -287h-53l123 700h53h186zM523 493c16 87 -41 157 -126 157h-187l-55 -313h186c87 0 167 70 182 156z" />
    <glyph glyph-name="uni0421" unicode="&#x421;" horiz-adv-x="769" 
d="M363 -11c-209 0 -333 169 -298 368c35 200 210 354 421 354c146 0 270 -92 290 -224h-57c-21 102 -111 173 -237 173c-186 0 -335 -138 -365 -310s73 -310 257 -310c121 0 239 71 297 173h58c-67 -132 -207 -224 -366 -224z" />
    <glyph glyph-name="uni0422" unicode="&#x422;" horiz-adv-x="500" 
d="M556 700l-9 -50h-200l-114 -650h-54l115 650h-200l8 50h254h200z" />
    <glyph glyph-name="uni0423" unicode="&#x423;" horiz-adv-x="566" 
d="M577 700h55l-322 -546c-69 -119 -143 -161 -240 -154l8 47c74 -6 128 28 178 112l18 31l-162 510h52l144 -454z" />
    <glyph glyph-name="uni040E" unicode="&#x40e;" horiz-adv-x="566" 
d="M518 830l-7 -44h-254l8 44h253zM577 700h55l-322 -546c-69 -119 -143 -161 -240 -154l8 47c74 -6 128 28 178 112l18 31l-162 510h52l144 -454z" />
    <glyph glyph-name="uni0424" unicode="&#x424;" horiz-adv-x="806" 
d="M495 621c189 -9 325 -104 294 -276c-30 -170 -189 -260 -390 -267l-14 -78h-53l14 79c-191 9 -324 105 -294 276c30 170 189 260 389 267l14 78h53zM736 350c25 141 -78 216 -250 223l-78 -446c174 7 303 82 328 223zM105 350c-25 -141 78 -216 249 -223l79 446
c-174 -7 -303 -82 -328 -223z" />
    <glyph glyph-name="uni0425" unicode="&#x425;" horiz-adv-x="567" 
d="M609 700l-278 -343l168 -357h-54l-148 315l-256 -315h-62l295 363l-159 337h54l139 -295l239 295h62z" />
    <glyph glyph-name="uni0427" unicode="&#x427;" horiz-adv-x="610" 
d="M549 700h53l-123 -700h-53l51 293c-64 -26 -121 -36 -186 -36c-134 0 -205 85 -185 196l43 247h53l-43 -247c-15 -87 33 -146 141 -146c65 0 121 12 187 40z" />
    <glyph glyph-name="uni0426" unicode="&#x426;" horiz-adv-x="657" 
d="M512 50h73l-34 -194h-53l25 144h-480l123 700h53l-114 -650h353l114 650h54z" />
    <glyph glyph-name="uni0428" unicode="&#x428;" horiz-adv-x="917" 
d="M856 700h53l-123 -700h-743l123 700h53l-114 -650h292l114 650h53l-114 -650h292z" />
    <glyph glyph-name="uni0429" unicode="&#x429;" horiz-adv-x="940" 
d="M795 50h73l-34 -194h-53l25 144h-763l123 700h53l-114 -650h292l114 650h53l-114 -650h292l114 650h53z" />
    <glyph glyph-name="uni040F" unicode="&#x40f;" horiz-adv-x="633" 
d="M572 700h54l-123 -700h-54h-150l-25 -144h-53l25 144h-178h-25l123 700h53l-114 -650h353z" />
    <glyph glyph-name="uni042C" unicode="&#x42c;" horiz-adv-x="578" 
d="M356 413c109 0 190 -100 170 -214c-20 -113 -125 -199 -243 -199h-217h-23l123 700h53l-50 -287h187zM474 207c16 86 -42 156 -127 156h-187l-55 -313h187c86 0 167 71 182 157z" />
    <glyph glyph-name="uni042A" unicode="&#x42a;" horiz-adv-x="685" 
d="M149 0l115 650h-193l8 50h247l-51 -287h187c109 0 191 -100 170 -214c-19 -113 -124 -199 -243 -199h-240zM212 50h186c87 0 167 71 182 157c16 86 -41 156 -126 156h-188z" />
    <glyph glyph-name="uni042B" unicode="&#x42b;" horiz-adv-x="753" 
d="M43 0l123 700h53l-50 -287h187c109 0 190 -100 170 -214c-20 -113 -125 -199 -243 -199h-240zM569 0l123 700h54l-123 -700h-54zM105 50h187c86 0 167 71 182 157c16 86 -42 156 -127 156h-187z" />
    <glyph glyph-name="uni0409" unicode="&#x409;" horiz-adv-x="956" 
d="M731 393c112 0 192 -89 171 -202c-20 -114 -124 -191 -241 -191h-197h-23l115 650h-263l-63 -354c-42 -237 -126 -308 -256 -297l9 47c90 -10 158 47 195 251l70 403h369l-54 -307h168zM849 197c15 86 -43 146 -127 146h-167l-52 -293h167c84 0 164 61 179 147z" />
    <glyph glyph-name="uni040A" unicode="&#x40a;" horiz-adv-x="945" 
d="M719 393c112 0 192 -89 172 -202c-20 -114 -125 -191 -242 -191h-196h-24l61 343h-334l-60 -343h-53l123 700h53l-54 -307h333l54 307h54l-54 -307h167zM837 197c15 86 -43 146 -127 146h-167l-52 -293h167c85 0 164 61 179 147z" />
    <glyph glyph-name="uni0405" unicode="&#x405;" horiz-adv-x="551" 
d="M240 -11c-131 0 -230 74 -206 205h53c-17 -98 48 -154 162 -154c97 0 177 54 191 133c16 88 -61 121 -143 154c-99 40 -208 81 -185 213c20 109 126 171 240 171c108 0 203 -72 181 -191h-53c15 85 -42 140 -136 140c-91 0 -165 -52 -178 -127c-16 -91 60 -121 143 -155
c98 -41 207 -85 184 -212c-20 -114 -133 -177 -253 -177z" />
    <glyph glyph-name="uni0404" unicode="&#x404;" horiz-adv-x="767" 
d="M365 40c132 0 246 69 301 173h58c-66 -130 -202 -224 -368 -224c-204 0 -326 167 -291 367s205 355 417 355c153 0 267 -94 288 -224h-56c-19 104 -109 173 -239 173c-173 0 -312 -125 -351 -285h395l-9 -50h-395c-17 -160 78 -285 250 -285z" />
    <glyph glyph-name="uni042D" unicode="&#x42d;" horiz-adv-x="767" 
d="M446 711c205 0 326 -167 291 -367c-36 -200 -203 -355 -418 -355c-156 0 -267 94 -288 224h57c22 -102 108 -173 240 -173c171 0 311 125 350 285h-395l9 50h395c17 160 -78 285 -250 285c-129 0 -243 -71 -300 -173h-58c67 132 202 224 367 224z" />
    <glyph glyph-name="uni0406" unicode="&#x406;" horiz-adv-x="227" 
d="M166 700h53l-123 -700h-53z" />
    <glyph glyph-name="uni0407" unicode="&#x407;" horiz-adv-x="227" 
d="M80 780l13 73h60l-13 -73h-60zM273 780l13 73h60l-13 -73h-60zM166 700h53l-123 -700h-53z" />
    <glyph glyph-name="uni0408" unicode="&#x408;" horiz-adv-x="534" 
d="M197 -11c-108 0 -204 70 -180 203l1 8h54l-2 -8c-18 -100 41 -152 135 -152c91 0 170 52 188 152l89 508h54l-89 -509c-25 -141 -135 -202 -250 -202z" />
    <glyph glyph-name="uni040B" unicode="&#x40b;" horiz-adv-x="669" 
d="M457 471c94 0 173 -61 152 -184l-51 -287h-53l50 287c17 93 -30 136 -106 136c-50 0 -104 -17 -160 -45l-66 -378h-54l115 650h-190l8 50h244h233l-8 -50h-234l-39 -219c54 26 105 40 159 40z" />
    <glyph glyph-name="uni042E" unicode="&#x42e;" horiz-adv-x="1048" 
d="M716 711c202 0 336 -172 301 -372c-36 -200 -216 -350 -423 -350c-193 0 -322 156 -299 346h-140l-59 -335h-53l123 700h53l-55 -315h140c45 186 216 326 412 326zM964 347c29 171 -80 313 -257 313c-176 0 -329 -138 -359 -310c-31 -172 80 -310 255 -310
c178 0 330 135 361 307z" />
    <glyph glyph-name="uni042F" unicode="&#x42f;" horiz-adv-x="617" 
d="M609 700l-123 -700h-53l50 287h-128l-302 -287h-70l303 287c-107 10 -179 106 -160 214c21 114 122 199 246 199h237zM312 337h180l55 313h-184c-87 0 -168 -67 -184 -154c-15 -86 41 -159 133 -159z" />
    <glyph glyph-name="uni0402" unicode="&#x402;" horiz-adv-x="662" 
d="M457 471c94 0 173 -61 152 -184l-25 -139c-19 -107 -86 -165 -193 -155l8 49c77 -9 118 25 132 106l24 139c17 93 -30 136 -106 136c-50 0 -104 -17 -160 -45l-66 -378h-54l115 650h-190l8 50h244h233l-8 -50h-234l-39 -219c54 26 105 40 159 40z" />
    <glyph glyph-name="uni0414.loclBGR" horiz-adv-x="703" 
d="M642 50l-34 -194h-54l26 144h-493h-51l-25 -144h-53l34 194h63l348 650h56l119 -650h64zM113 50h412l-102 585z" />
    <glyph glyph-name="uni041B.loclBGR" horiz-adv-x="605" 
d="M-31 0l384 700h57l137 -700h-53l-121 635l-346 -635h-58z" />
    <glyph glyph-name="uni0424.loclBGR" horiz-adv-x="853" 
d="M534 711c200 -12 326 -157 289 -368c-38 -211 -204 -344 -417 -354l-15 -89h-54l16 89c-200 12 -325 157 -288 368c38 211 204 343 416 354l15 89h54zM119 350c-32 -179 64 -301 243 -312l110 624c-185 -11 -322 -133 -353 -312zM769 350c32 179 -65 301 -244 312
l-110 -624c185 11 322 133 354 312z" />
    <glyph glyph-name="uni0414.ss01" horiz-adv-x="657" 
d="M624 700l-114 -650h73l-9 -50h-600l9 50h56c46 44 92 115 116 251l70 399h399zM208 300c-23 -127 -62 -202 -103 -250h352l105 600h-292z" />
    <glyph glyph-name="uni0426.ss01" horiz-adv-x="657" 
d="M512 50h73l-9 -50h-533l123 700h53l-114 -650h353l114 650h54z" />
    <glyph glyph-name="uni0429.ss01" horiz-adv-x="940" 
d="M795 50h73l-9 -50h-816l123 700h53l-114 -650h292l114 650h53l-114 -650h292l114 650h53z" />
    <glyph glyph-name="uni0414.loclBGR.ss01" horiz-adv-x="703" 
d="M578 50h64l-9 -50h-100h-504h-46l9 50h63l348 650h56zM113 50h412l-102 585z" />
    <glyph glyph-name="uni0430" unicode="&#x430;" horiz-adv-x="499" 
d="M295 511c102 0 175 -70 154 -183l-57 -328h-51l10 56c-40 -48 -102 -67 -168 -67c-92 0 -174 58 -156 163c19 104 115 152 207 152c66 0 122 -26 147 -74l18 98c16 95 -39 135 -112 135s-140 -37 -153 -113h-51c17 95 101 161 212 161zM198 36c83 0 156 39 169 110
c13 74 -53 111 -130 111c-90 0 -148 -45 -159 -109c-11 -65 32 -112 120 -112z" />
    <glyph glyph-name="uni0431" unicode="&#x431;" horiz-adv-x="573" 
d="M250 -12c-137 0 -234 105 -206 264c54 309 428 333 450 448h53c-25 -143 -309 -159 -418 -344c61 66 138 99 206 99c126 0 223 -101 199 -237c-24 -135 -138 -230 -284 -230zM258 38c114 0 206 77 225 184c19 106 -50 184 -162 184c-94 0 -200 -65 -228 -172
c-20 -116 52 -196 165 -196z" />
    <glyph glyph-name="uni0432" unicode="&#x432;" horiz-adv-x="528" 
d="M420 298c52 -28 75 -83 65 -141c-16 -88 -84 -157 -209 -157h-237h-6l79 453l9 47h193c95 0 149 -62 136 -141c-4 -23 -14 -43 -30 -61zM306 453h-143l-24 -134h193c16 0 30 -2 43 -4c12 13 21 29 24 47c11 61 -30 92 -93 91zM434 163c12 69 -31 110 -110 110h-193
l-39 -226h192c82 0 138 45 150 116z" />
    <glyph glyph-name="uni0433" unicode="&#x433;" horiz-adv-x="377" 
d="M414 500l-8 -49h-243l-80 -451h-50l88 500h293z" />
    <glyph glyph-name="uni0453" unicode="&#x453;" horiz-adv-x="377" 
d="M377 697l-112 -127h-50l100 127h62zM414 500l-8 -49h-243l-80 -451h-50l88 500h293z" />
    <glyph glyph-name="uni0491" unicode="&#x491;" horiz-adv-x="377" 
d="M382 604h50l-26 -153h-243l-80 -451h-50l88 500h243z" />
    <glyph glyph-name="uni0434" unicode="&#x434;" horiz-adv-x="570" 
d="M431 49h70l-33 -193h-51l25 144h-70h-342l-25 -144h-51l34 193h58c44 48 72 102 90 201l44 250h50h246h35zM111 49h270l70 402h-229l-35 -201c-16 -90 -41 -151 -76 -201z" />
    <glyph glyph-name="uni0435" unicode="&#x435;" horiz-adv-x="574" 
d="M339 511c146 0 225 -126 201 -263c-1 -8 -4 -16 -6 -24h-50h-392c-8 -112 59 -187 170 -187c83 0 151 41 183 97h57c-43 -86 -134 -145 -249 -145c-144 0 -235 117 -208 268c26 147 142 254 294 254zM99 273h394c11 121 -60 190 -159 190c-117 0 -207 -77 -235 -190z" />
    <glyph glyph-name="uni0451" unicode="&#x451;" horiz-adv-x="574" 
d="M301 653l-13 -73h-60l13 73h60zM494 653l-13 -73h-60l13 73h60zM339 511c146 0 225 -126 201 -263c-1 -8 -4 -16 -6 -24h-50h-392c-8 -112 59 -187 170 -187c83 0 151 41 183 97h57c-43 -86 -134 -145 -249 -145c-144 0 -235 117 -208 268c26 147 142 254 294 254z
M99 273h394c11 121 -60 190 -159 190c-117 0 -207 -77 -235 -190z" />
    <glyph glyph-name="uni0436" unicode="&#x436;" horiz-adv-x="661" 
d="M673 500l-268 -245l189 -255h-56l-182 248l-44 -248h-51l44 247l-264 -247h-62l283 265l-185 235h58l175 -226l39 226h51l-40 -229l251 229h62z" />
    <glyph glyph-name="uni0437" unicode="&#x437;" horiz-adv-x="424" 
d="M386 365c-6 -34 -27 -64 -57 -86c43 -29 62 -79 52 -134c-15 -87 -91 -156 -213 -156c-118 0 -178 74 -162 161h51c-13 -69 36 -113 118 -113c80 0 143 44 156 113c12 69 -34 111 -114 111h-32l9 46h31c23 0 43 -3 61 -8c24 17 44 40 49 69c11 61 -31 95 -90 95
c-62 0 -114 -33 -126 -97h-51c16 84 83 145 185 145c95 0 147 -68 133 -146z" />
    <glyph glyph-name="uni0438" unicode="&#x438;" horiz-adv-x="537" 
d="M459 500h45l-88 -500h-51l72 406l-360 -406h-44l88 500h50l-71 -406z" />
    <glyph glyph-name="uni0439" unicode="&#x439;" horiz-adv-x="537" 
d="M201 587l8 44h253l-7 -44h-254zM459 500h45l-88 -500h-51l72 406l-360 -406h-44l88 500h50l-71 -406z" />
    <glyph glyph-name="uni043A" unicode="&#x43a;" horiz-adv-x="483" 
d="M495 500l-313 -241l234 -259h-62l-227 251l-44 -251h-50l88 500h50l-39 -224l292 224h71z" />
    <glyph glyph-name="uni045C" unicode="&#x45c;" horiz-adv-x="483" 
d="M417 697l-112 -127h-50l100 127h62zM495 500l-313 -241l234 -259h-62l-227 251l-44 -251h-50l88 500h50l-39 -224l292 224h71z" />
    <glyph glyph-name="uni043B" unicode="&#x43b;" horiz-adv-x="533" 
d="M501 500l-88 -500h-51l79 451h-224l-42 -241c-32 -182 -110 -217 -206 -210l9 47c75 -7 123 35 146 163l51 290h50h276z" />
    <glyph glyph-name="uni043C" unicode="&#x43c;" horiz-adv-x="637" 
d="M604 500l-88 -500h-51l74 418l-226 -316h-40l-116 317l-74 -419h-50l88 500h50h5l123 -338l241 338h64z" />
    <glyph glyph-name="uni043D" unicode="&#x43d;" horiz-adv-x="537" 
d="M453 500h51l-88 -500h-51l40 226h-282l-40 -226h-50l88 500h50l-39 -226h282z" />
    <glyph glyph-name="uni043E" unicode="&#x43e;" horiz-adv-x="612" 
d="M264 -11c-135 0 -248 103 -220 266c29 163 173 256 309 256c134 0 243 -105 215 -265c-29 -166 -169 -257 -304 -257zM269 37c111 0 225 80 249 215c23 131 -64 211 -174 211c-110 -1 -225 -80 -249 -213c-23 -133 64 -213 174 -213z" />
    <glyph glyph-name="uni043F" unicode="&#x43f;" horiz-adv-x="537" 
d="M504 500l-88 -500h-51l80 451h-282l-80 -451h-50l88 500h50h333z" />
    <glyph glyph-name="uni0440" unicode="&#x440;" horiz-adv-x="645" 
d="M385 511c138 0 242 -119 216 -267c-26 -147 -149 -255 -301 -255c-94 0 -165 54 -195 135l-57 -324h-50l123 700h50l-18 -105c53 72 135 116 232 116zM550 250c21 119 -58 213 -177 213s-224 -90 -245 -210c-21 -119 58 -216 177 -216c122 0 224 94 245 213z" />
    <glyph glyph-name="uni0441" unicode="&#x441;" horiz-adv-x="576" 
d="M526 153c-46 -102 -148 -164 -266 -164c-147 0 -241 122 -215 269c26 148 155 253 304 253c113 0 198 -67 210 -164h-52c-15 69 -74 116 -163 116c-122 0 -227 -91 -248 -210c-21 -120 50 -216 173 -216c87 0 165 47 204 116h53z" />
    <glyph glyph-name="uni0442" unicode="&#x442;" horiz-adv-x="400" 
d="M431 500l-9 -49h-161l-80 -451h-50l79 451h-161l8 49h212h162z" />
    <glyph glyph-name="uni0443" unicode="&#x443;" horiz-adv-x="483" 
d="M460 500h56l-292 -546c-55 -103 -138 -161 -225 -154l8 47c65 -6 124 40 167 117l17 31l-119 505h51l104 -441z" />
    <glyph glyph-name="uni045E" unicode="&#x45e;" horiz-adv-x="483" 
d="M441 631l-7 -44h-254l8 44h253zM460 500h56l-292 -546c-55 -103 -138 -161 -225 -154l8 47c65 -6 124 40 167 117l17 31l-119 505h51l104 -441z" />
    <glyph glyph-name="uni0444" unicode="&#x444;" horiz-adv-x="672" 
d="M407 511c156 -11 245 -126 221 -266c-25 -141 -147 -246 -313 -256l-33 -189h-50l33 189c-156 11 -245 126 -221 266c25 141 149 246 313 256l33 189h50zM577 250c20 114 -48 202 -178 212l-75 -424c134 10 233 98 253 212zM95 250c-20 -114 48 -202 178 -212l75 424
c-134 -10 -233 -98 -253 -212z" />
    <glyph glyph-name="uni0445" unicode="&#x445;" horiz-adv-x="450" 
d="M459 500l-205 -243l129 -257h-53l-109 217l-183 -217h-59l220 261l-120 239h53l100 -200l168 200h59z" />
    <glyph glyph-name="uni0447" unicode="&#x447;" horiz-adv-x="507" 
d="M423 500h51l-88 -500h-51l34 193c-46 -20 -92 -30 -143 -30c-111 0 -174 63 -155 167l30 170h50l-30 -170c-13 -80 27 -119 110 -119c47 0 97 11 147 32z" />
    <glyph glyph-name="uni0446" unicode="&#x446;" horiz-adv-x="563" 
d="M414 49h80l-33 -193h-51l25 144h-402l88 500h50l-79 -451h272l79 451h51z" />
    <glyph glyph-name="uni0448" unicode="&#x448;" horiz-adv-x="757" 
d="M673 500h51l-88 -500h-51h-276h-244h-32l88 500h50l-79 -451h226l79 451h51l-80 -451h226z" />
    <glyph glyph-name="uni0449" unicode="&#x449;" horiz-adv-x="783" 
d="M645 49h69l-3 -22l-4 -19l-1 -8l-25 -144h-51l25 144h-70h-276h-244h-32l88 500h50l-79 -451h226l79 451h51l-80 -451h226l79 451h51z" />
    <glyph glyph-name="uni045F" unicode="&#x45f;" horiz-adv-x="537" 
d="M453 500h51l-88 -500h-51h-116l-24 -144h-51l25 144h-135h-31l88 500h50l-79 -451h282z" />
    <glyph glyph-name="uni044C" unicode="&#x44c;" horiz-adv-x="474" 
d="M285 306c86 0 155 -66 138 -158c-16 -92 -99 -148 -192 -148h-171h-27l88 500h50l-34 -194h148zM372 153c11 64 -33 104 -96 104h-147l-37 -208h147c63 0 122 41 133 104z" />
    <glyph glyph-name="uni044A" unicode="&#x44a;" horiz-adv-x="541" 
d="M352 306c85 0 154 -66 137 -158c-16 -92 -99 -148 -192 -148h-170h-28l80 451h-143l8 49h173h21l-34 -194h148zM439 153c11 64 -33 104 -97 104h-147l-36 -208h147c63 0 122 41 133 104z" />
    <glyph glyph-name="uni044B" unicode="&#x44b;" horiz-adv-x="644" 
d="M285 306c86 0 155 -66 138 -158c-16 -92 -99 -148 -192 -148h-171h-27l88 500h50l-34 -194h148zM561 500h50l-88 -500h-50zM372 153c11 64 -33 104 -96 104h-147l-37 -208h147c63 0 122 41 133 104z" />
    <glyph glyph-name="uni0459" unicode="&#x459;" horiz-adv-x="771" 
d="M587 286c81 0 147 -56 131 -148c-17 -92 -94 -138 -181 -138h-158h-27l79 451h-214l-42 -241c-32 -179 -110 -217 -206 -210l9 47c76 -8 123 34 146 163l51 290h50h231h35l-38 -214h134zM667 143c11 64 -30 94 -88 94h-135l-33 -188h134c58 0 111 31 122 94z" />
    <glyph glyph-name="uni045A" unicode="&#x45a;" horiz-adv-x="771" 
d="M587 286c81 0 147 -56 131 -148c-17 -92 -94 -138 -181 -138h-158h-27l42 237h-269l-42 -237h-50l88 500h50l-37 -214h268l38 214h51l-38 -214h134zM667 143c11 64 -30 94 -88 94h-135l-33 -188h134c58 0 111 31 122 94z" />
    <glyph glyph-name="uni0455" unicode="&#x455;" horiz-adv-x="464" 
d="M423 362h-51c13 70 -39 101 -103 101c-66 0 -128 -28 -139 -89c-24 -138 296 -65 263 -252c-14 -80 -94 -133 -204 -133s-177 60 -161 149h51c-13 -70 41 -101 114 -101c74 0 138 29 149 90c25 140 -296 67 -263 252c15 81 92 132 194 132c101 0 166 -60 150 -149z" />
    <glyph glyph-name="uni0454" unicode="&#x454;" horiz-adv-x="574" 
d="M267 37c87 0 166 46 204 116h53c-43 -98 -145 -164 -264 -164c-146 0 -241 122 -215 269c26 148 149 253 298 253c113 0 198 -68 215 -164h-53c-19 69 -81 116 -169 116c-113 0 -207 -80 -236 -189h259l-9 -48h-258c-5 -107 66 -189 175 -189z" />
    <glyph glyph-name="uni044D" unicode="&#x44d;" horiz-adv-x="574" 
d="M319 511c145 0 237 -118 211 -266s-153 -256 -303 -256c-112 0 -199 67 -211 164h54c14 -69 74 -116 165 -116c111 0 209 81 239 189h-259l9 48h258c9 108 -61 189 -172 189c-86 0 -167 -47 -206 -116h-54c47 98 151 164 269 164z" />
    <glyph glyph-name="uni0456" unicode="&#x456;" horiz-adv-x="204" 
d="M139 600l17 100h50l-17 -100h-50zM33 0l88 500h50l-88 -500h-50z" />
    <glyph glyph-name="uni0457" unicode="&#x457;" horiz-adv-x="204" 
d="M33 580l13 73h60l-13 -73h-60zM226 580l13 73h60l-13 -73h-60zM33 0l88 500h50l-88 -500h-50z" />
    <glyph glyph-name="uni0458" unicode="&#x458;" horiz-adv-x="223" 
d="M175 700h50l-17 -100h-50zM42 -57l98 557h50l-98 -557c-20 -118 -86 -165 -193 -154l8 48c78 -8 121 26 135 106z" />
    <glyph glyph-name="uni045B" unicode="&#x45b;" horiz-adv-x="537" 
d="M350 511c88 0 157 -69 138 -181l-59 -330h-50l58 330c15 86 -29 133 -102 133c-77 0 -164 -53 -187 -172l-51 -291h-51l102 582h-72l7 42h73l13 76h51l-14 -76h157l-7 -42h-157l-28 -160c50 66 115 89 179 89z" />
    <glyph glyph-name="uni044E" unicode="&#x44e;" horiz-adv-x="803" 
d="M544 511c134 0 243 -105 215 -265c-29 -166 -168 -257 -304 -257c-127 0 -231 91 -220 237h-112l-40 -226h-50l88 500h50l-39 -226h111c36 152 171 237 301 237zM709 252c23 131 -64 211 -174 211c-110 -1 -225 -80 -249 -213c-22 -133 64 -213 174 -213
c111 0 226 80 249 215z" />
    <glyph glyph-name="uni044F" unicode="&#x44f;" horiz-adv-x="500" 
d="M467 500l-88 -500h-50l34 195h-110l-206 -195h-68l212 198c-73 12 -128 72 -114 154c16 92 101 148 192 148h198zM224 243h147l37 208h-147c-63 0 -122 -41 -133 -104c-11 -64 33 -104 96 -104z" />
    <glyph glyph-name="uni0452" unicode="&#x452;" horiz-adv-x="533" 
d="M350 511c88 0 157 -69 138 -181l-69 -387c-19 -110 -84 -163 -193 -154l8 48c78 -8 121 28 135 106l68 387c15 86 -29 133 -102 133c-77 0 -164 -53 -187 -172l-51 -291h-51l102 582h-72l7 42h73l13 76h51l-14 -76h157l-7 -42h-157l-28 -160c50 66 115 89 179 89z" />
    <glyph glyph-name="uni0432.loclBGR" horiz-adv-x="575" 
d="M412 398c83 -27 128 -100 110 -204c-23 -133 -118 -205 -263 -205c-135 0 -212 93 -185 245l43 245c26 149 114 232 246 232c107 0 172 -76 157 -167c-9 -55 -48 -106 -108 -146zM354 663c-95 0 -166 -65 -186 -184l-17 -99l119 23c29 6 57 8 82 6c68 39 109 91 118 140
c10 61 -32 114 -116 114zM471 199c21 119 -53 186 -210 155l-118 -22l-18 -102c-22 -125 32 -193 143 -193c110 0 185 60 203 162z" />
    <glyph glyph-name="uni0433.loclBGR" horiz-adv-x="455" 
d="M341 138h50c-16 -89 -94 -149 -210 -149c-107 0 -172 61 -159 142c34 190 325 99 350 242c10 61 -42 90 -107 90c-64 0 -127 -31 -139 -101h-51c16 89 94 149 198 149c99 0 164 -61 149 -142c-33 -188 -324 -98 -349 -242c-11 -61 43 -90 117 -90c73 0 138 34 151 101z
" />
    <glyph glyph-name="uni0434.loclBGR" horiz-adv-x="650" 
d="M566 500h51l-84 -476c-28 -158 -145 -235 -290 -235c-121 0 -217 80 -207 182h51c-9 -61 49 -134 164 -134c128 0 211 73 231 187l14 77c-52 -70 -133 -112 -230 -112c-141 0 -243 124 -217 272c28 162 158 250 289 250c92 0 174 -50 206 -136zM277 37
c119 0 223 86 244 205c24 135 -69 221 -181 221c-109 0 -217 -75 -241 -206c-20 -120 58 -220 178 -220z" />
    <glyph glyph-name="uni0436.loclBGR" horiz-adv-x="663" 
d="M-21 0l283 265l-185 235h58l175 -226l76 426h50l-76 -429l251 229h62l-268 -245l189 -255h-56l-182 247l-44 -247h-51l44 246l-264 -246h-62z" />
    <glyph glyph-name="uni0438.loclBGR" 
d="M440 500h51l-88 -500h-51l14 77c-47 -65 -111 -88 -173 -88c-93 0 -164 67 -143 181l58 330h50l-57 -330c-16 -86 28 -133 101 -133c78 0 162 54 187 173z" />
    <glyph glyph-name="uni0439.loclBGR" 
d="M448 631l-7 -44h-254l8 44h253zM440 500h51l-88 -500h-51l14 77c-47 -65 -111 -88 -173 -88c-93 0 -164 67 -143 181l58 330h50l-57 -330c-16 -86 28 -133 101 -133c78 0 162 54 187 173z" />
    <glyph glyph-name="uni043A.loclBGR" horiz-adv-x="483" 
d="M495 500l-313 -241l234 -259h-62l-227 251l-44 -251h-50l123 700h50l-74 -424l292 224h71z" />
    <glyph glyph-name="uni043B.loclBGR" horiz-adv-x="477" 
d="M420 0h-52l-92 446l-251 -446h-56l283 500h55h6z" />
    <glyph glyph-name="uni043F.loclBGR" 
d="M334 511c91 0 161 -66 140 -181l-58 -330h-51l59 330c15 88 -29 133 -103 133c-75 0 -160 -51 -186 -171l-52 -292h-50l88 500h50l-13 -77c50 66 115 88 176 88z" />
    <glyph glyph-name="uni0442.loclBGR" horiz-adv-x="777" 
d="M604 511c75 0 146 -56 125 -171l-60 -340h-50l59 340c15 86 -26 123 -87 123c-58 0 -137 -41 -161 -155l-54 -308h-50l59 340c15 86 -26 123 -87 123c-58 0 -137 -41 -160 -152l-55 -311h-50l88 500h50l-11 -65c47 58 104 76 154 76c53 0 105 -30 121 -91
c49 69 112 91 169 91z" />
    <glyph glyph-name="uni0446.loclBGR" horiz-adv-x="554" 
d="M419 90c-5 -26 9 -41 34 -41h32l-33 -193h-51l25 145c-39 5 -62 33 -59 75c-48 -64 -111 -87 -174 -87c-93 0 -164 67 -143 181l58 330h50l-57 -330c-16 -86 28 -133 101 -133c79 0 164 55 188 176l50 287h51z" />
    <glyph glyph-name="uni0448.loclBGR" horiz-adv-x="777" 
d="M694 500h50l-88 -500h-50l11 65c-46 -57 -104 -76 -154 -76c-53 0 -105 30 -121 91c-49 -69 -112 -91 -169 -91c-75 0 -146 56 -125 171l60 340h50l-59 -340c-15 -86 26 -123 87 -123c59 0 141 43 162 164l53 299h50l-59 -340c-15 -86 26 -123 87 -123
c58 0 137 41 160 152z" />
    <glyph glyph-name="uni0449.loclBGR" horiz-adv-x="808" 
d="M672 90c-4 -26 9 -41 34 -41h33l-34 -193h-50l25 145c-37 4 -59 30 -60 67c-48 -60 -106 -79 -157 -79c-53 0 -105 30 -121 91c-49 -69 -112 -91 -169 -91c-75 0 -146 56 -125 171l60 340h50l-59 -340c-15 -86 26 -123 87 -123c57 0 136 40 160 152l55 311h50l-59 -340
c-15 -86 26 -123 87 -123c57 0 134 39 159 147l56 316h50z" />
    <glyph glyph-name="uni044C.loclBGR" horiz-adv-x="482" 
d="M270 332c114 0 179 -76 161 -179c-17 -96 -99 -164 -214 -164c-123 0 -184 84 -168 178l59 333h50l-29 -168h141zM381 161c12 73 -33 122 -120 122h-141l-20 -116c-14 -76 32 -130 123 -130c89 0 145 57 158 124z" />
    <glyph glyph-name="uni044A.loclBGR" horiz-adv-x="565" 
d="M353 332c114 0 179 -76 161 -180c-17 -96 -99 -163 -214 -163c-123 0 -184 84 -168 178l50 284h-146l8 49h177h20l-29 -168h141zM464 160c12 73 -33 123 -120 123h-141l-20 -116c-14 -77 32 -130 123 -130c89 0 145 56 158 123z" />
    <glyph glyph-name="uni044E.loclBGR" horiz-adv-x="803" 
d="M544 511c134 0 243 -105 215 -265c-29 -166 -168 -257 -304 -257c-127 0 -231 91 -220 237h-112l-40 -226h-50l123 700h50l-74 -426h111c36 153 171 237 301 237zM709 252c23 131 -64 211 -174 211c-110 -1 -225 -80 -249 -213c-22 -133 64 -213 174 -213
c111 0 226 80 249 215z" />
    <glyph glyph-name="uni0430.ss01" horiz-adv-x="646" 
d="M563 500h50l-88 -500h-50l17 101c-52 -70 -133 -112 -230 -112c-140 0 -243 124 -217 272c29 162 158 250 289 250c93 0 175 -50 207 -136zM274 37c119 0 223 86 243 206c24 134 -68 220 -180 220c-109 0 -218 -75 -241 -206c-21 -120 58 -220 178 -220z" />
    <glyph glyph-name="uni0443.ss01" 
d="M440 500h51l-93 -528c-21 -122 -111 -183 -217 -183c-103 0 -173 68 -157 163h51c-13 -76 42 -115 114 -115c73 0 142 41 159 135l18 105c-47 -65 -110 -88 -173 -88c-93 0 -164 67 -143 181l58 330h50l-57 -330c-16 -86 28 -133 101 -133c80 0 166 56 188 180h1z" />
    <glyph glyph-name="uni0394" unicode="&#x394;" horiz-adv-x="626" 
d="M420 700l149 -700h-54h-504h-42l395 700h56zM57 50h448l-122 585z" />
    <glyph glyph-name="uni03A9" unicode="&#x3a9;" horiz-adv-x="818" 
d="M788 343c-23 -130 -111 -237 -224 -293h160l-9 -50h-272l9 50c139 34 257 155 283 300c29 172 -80 310 -254 310s-333 -138 -362 -310c-26 -145 48 -266 176 -300l-7 -38l-2 -12h-271l9 50h163c-95 60 -145 175 -122 307c35 199 216 354 425 354c197 0 333 -168 298 -368
z" />
    <glyph glyph-name="pi" unicode="&#x3c0;" horiz-adv-x="620" 
d="M631 500l-9 -49h-83l-79 -451h-51l79 451h-282l-79 -451h-51l80 451h-87l8 49h138h333h83z" />
    <glyph glyph-name="zero" unicode="0" horiz-adv-x="632" 
d="M270 -11c-162 0 -236 151 -198 367s152 355 325 355c162 0 236 -151 198 -367s-152 -355 -325 -355zM279 40c130 0 228 114 263 310c34 196 -24 310 -154 310s-228 -114 -263 -310c-34 -196 24 -310 154 -310z" />
    <glyph glyph-name="one" unicode="1" horiz-adv-x="332" 
d="M271 700h53l-123 -700h-53l112 639l-191 -95l11 62z" />
    <glyph glyph-name="two" unicode="2" horiz-adv-x="527" 
d="M-1 0l9 48l301 261c73 63 137 129 150 196c17 100 -42 155 -129 155c-90 0 -170 -52 -188 -154h-53c24 136 135 205 247 205c109 0 199 -79 176 -211c-15 -84 -86 -157 -170 -229l-256 -220h362l-9 -51h-440z" />
    <glyph glyph-name="three" unicode="3" horiz-adv-x="541" 
d="M539 700l-8 -50l-209 -241c106 -13 184 -90 163 -212c-24 -134 -141 -208 -268 -208c-125 0 -223 78 -199 213h54c-18 -101 47 -162 151 -162s191 61 209 162s-48 162 -152 162h-38l6 35l219 251h-340l9 50h403z" />
    <glyph glyph-name="four" unicode="4" horiz-adv-x="567" 
d="M539 197l-9 -50h-90l-26 -147h-53l26 147h-377l9 50l354 503h60l-353 -503h316l38 220h54l-39 -220h90z" />
    <glyph glyph-name="five" unicode="5" horiz-adv-x="551" 
d="M552 650h-331l-58 -235h141c118 0 219 -83 196 -218c-24 -135 -139 -208 -268 -208c-123 0 -222 78 -199 213h54c-18 -101 47 -162 151 -162s191 61 209 162c18 100 -47 162 -152 162h-197l83 336h380z" />
    <glyph glyph-name="six" unicode="6" horiz-adv-x="537" 
d="M303 450c134 0 218 -99 194 -236c-24 -136 -134 -225 -275 -225c-133 0 -218 99 -193 235c10 58 36 107 73 144l285 332h65l-224 -260c24 6 49 10 75 10zM444 219c19 105 -37 179 -150 179c-112 0 -194 -74 -212 -179c-19 -104 37 -179 149 -179c113 0 194 75 213 179z
" />
    <glyph glyph-name="seven" unicode="7" horiz-adv-x="490" 
d="M102 700h424l-9 -50l-383 -650h-58l383 650h-365z" />
    <glyph glyph-name="eight" unicode="8" horiz-adv-x="551" 
d="M532 518c-13 -76 -65 -130 -131 -158c69 -32 109 -96 95 -178c-23 -127 -133 -193 -267 -193c-125 0 -219 76 -196 203c14 83 74 143 156 171c-55 32 -88 89 -75 164c22 124 131 184 242 184c105 0 198 -69 176 -193zM299 385c90 0 164 51 180 137
c15 90 -45 138 -131 138c-87 0 -165 -48 -181 -138c-15 -86 46 -137 132 -137zM442 187c16 92 -49 146 -152 146c-107 0 -188 -54 -204 -146c-17 -93 46 -147 152 -147c109 0 188 54 204 147z" />
    <glyph glyph-name="nine" unicode="9" horiz-adv-x="539" 
d="M351 711c133 0 218 -100 194 -237c-10 -56 -36 -105 -72 -142l-286 -332h-64l222 260c-24 -6 -50 -10 -76 -10c-134 0 -218 100 -194 237s135 224 276 224zM492 481c18 104 -38 179 -150 179c-113 0 -196 -75 -214 -179c-18 -105 38 -179 150 -179s195 74 214 179z" />
    <glyph glyph-name="zero.sinf" horiz-adv-x="411" 
d="M133 -172c-103 0 -158 90 -136 216s99 208 207 208c103 0 158 -90 136 -216s-99 -208 -207 -208zM139 -126c77 0 134 60 153 166s-17 166 -94 166s-134 -60 -153 -166s18 -166 94 -166z" />
    <glyph glyph-name="one.sinf" horiz-adv-x="246" 
d="M133 240h48l-70 -400h-48l61 347l-122 -60l9 53z" />
    <glyph glyph-name="two.sinf" horiz-adv-x="342" 
d="M-39 -160l7 39l202 166c34 28 57 57 62 87c7 40 -19 74 -69 74c-55 0 -93 -31 -101 -78h-48c13 75 73 124 156 124c74 0 121 -59 110 -123c-8 -45 -32 -78 -82 -118l-153 -125h199l-7 -46h-276z" />
    <glyph glyph-name="three.sinf" horiz-adv-x="349" 
d="M294 240l-8 -46l-114 -120c64 -13 98 -62 88 -123c-13 -74 -75 -123 -163 -123c-83 0 -134 54 -121 127h48c-8 -46 17 -81 80 -81c62 0 100 35 108 81s-19 82 -79 82h-27l6 36l114 121h-191l7 46h252z" />
    <glyph glyph-name="four.sinf" horiz-adv-x="356" 
d="M282 -35l-8 -45h-54l-14 -80h-48l14 80h-213l7 45l199 275h55l-198 -275h157l19 104h48l-19 -104h55z" />
    <glyph glyph-name="five.sinf" horiz-adv-x="340" 
d="M280 195h-186l-28 -110h72c78 0 130 -57 116 -134c-13 -76 -73 -123 -161 -123c-80 0 -132 52 -119 127h48c-8 -49 21 -81 78 -81s97 32 106 81c9 52 -20 84 -77 84h-120l50 201h229z" />
    <glyph glyph-name="six.sinf" horiz-adv-x="339" 
d="M143 100c81 0 135 -63 121 -140c-14 -78 -83 -132 -168 -132c-82 0 -136 63 -122 141c4 28 17 52 34 72l167 199h60l-121 -142c9 2 19 2 29 2zM217 -35c9 53 -24 89 -83 89c-57 0 -104 -36 -113 -89c-9 -54 24 -91 82 -91s104 37 114 91z" />
    <glyph glyph-name="seven.sinf" horiz-adv-x="310" 
d="M15 240h266l-7 -39l-216 -361h-53l213 354h-211z" />
    <glyph glyph-name="eight.sinf" horiz-adv-x="342" 
d="M280 136c-6 -41 -36 -70 -73 -87c38 -21 61 -59 52 -108c-13 -71 -77 -113 -161 -113c-80 0 -134 49 -122 120c9 49 44 85 91 104c-31 18 -50 50 -44 91c13 72 79 109 149 109c65 0 121 -44 108 -116zM232 140c8 42 -20 67 -68 67c-49 0 -85 -25 -93 -67
c-7 -41 22 -68 70 -68c47 0 84 27 91 68zM212 -50c8 47 -26 76 -80 76c-57 0 -99 -29 -107 -76c-8 -46 22 -76 81 -76c57 0 98 30 106 76z" />
    <glyph glyph-name="nine.sinf" horiz-adv-x="339" 
d="M169 252c79 0 136 -63 122 -141c-5 -28 -17 -52 -34 -72l-165 -199h-60l122 142c-11 -1 -21 -2 -32 -2c-79 0 -135 63 -121 140c14 78 85 132 168 132zM48 115c-9 -53 24 -89 83 -89c57 0 104 36 113 89c9 54 -24 91 -82 91s-104 -37 -114 -91z" />
    <glyph glyph-name="zero.tf" horiz-adv-x="570" 
d="M240 -11c-164 0 -236 150 -198 366s154 356 324 356c163 0 236 -150 198 -366s-154 -356 -324 -356zM248 40c130 0 228 114 262 310c35 196 -23 310 -152 310c-130 0 -228 -114 -263 -310c-34 -196 23 -310 153 -310z" />
    <glyph glyph-name="one.tf" horiz-adv-x="570" 
d="M308 51h199l-10 -51h-251h-248l9 51h248l103 585l-228 -114l11 64l228 114h53z" />
    <glyph glyph-name="two.tf" horiz-adv-x="570" 
d="M6 0l8 48l312 233c91 69 164 137 177 214c18 101 -40 165 -146 165c-97 0 -192 -62 -210 -164h-53c23 136 149 215 271 215c124 0 215 -86 192 -221c-17 -95 -97 -173 -195 -246l-261 -193h394l-9 -51h-480z" />
    <glyph glyph-name="three.tf" horiz-adv-x="570" 
d="M582 700l-8 -50l-224 -240c122 -13 199 -90 178 -213c-24 -134 -142 -208 -288 -208c-138 0 -239 78 -215 213h53c-17 -101 50 -162 170 -162s209 61 226 162c18 101 -47 162 -169 162h-38l6 35l236 251h-375l8 50h440z" />
    <glyph glyph-name="four.tf" horiz-adv-x="570" 
d="M534 197l-9 -50h-93l-26 -147h-53l26 147h-374l9 50l354 503h60l-354 -503h313l37 206h53l-36 -206h93z" />
    <glyph glyph-name="five.tf" horiz-adv-x="570" 
d="M572 650h-351l-58 -235h151c131 0 229 -83 205 -218s-139 -208 -279 -208c-132 0 -231 78 -207 213h54c-18 -101 47 -162 161 -162s200 61 218 162s-47 162 -161 162h-207l83 336h400z" />
    <glyph glyph-name="six.tf" horiz-adv-x="570" 
d="M313 450c148 0 234 -100 210 -236c-24 -137 -135 -225 -290 -225c-148 0 -235 99 -211 235c10 55 34 103 70 140l305 336h65l-234 -260c27 7 55 10 85 10zM470 219c18 105 -39 180 -166 180s-210 -75 -228 -180c-19 -104 38 -179 165 -179s210 75 229 179z" />
    <glyph glyph-name="seven.tf" horiz-adv-x="570" 
d="M119 700h483l-8 -50l-406 -650h-59l407 650h-425z" />
    <glyph glyph-name="eight.tf" horiz-adv-x="570" 
d="M556 519c-13 -73 -63 -129 -132 -159c72 -32 110 -96 96 -177c-22 -125 -130 -194 -280 -194c-143 0 -235 76 -212 201c14 82 73 143 159 173c-58 32 -90 90 -77 163c21 121 126 185 256 185c121 0 212 -71 190 -192zM309 385c105 0 179 54 194 137
c16 88 -43 138 -145 138c-106 0 -179 -50 -195 -138c-15 -83 40 -137 146 -137zM467 187c15 89 -41 146 -167 146c-127 0 -204 -57 -219 -146c-16 -90 44 -147 167 -147c126 0 203 57 219 147z" />
    <glyph glyph-name="nine.tf" horiz-adv-x="570" 
d="M373 711c148 0 234 -98 210 -235c-9 -54 -33 -101 -68 -138l-306 -338h-65l234 260c-27 -6 -55 -10 -86 -10c-146 0 -234 98 -210 235s135 226 291 226zM530 481c18 104 -38 179 -166 179c-127 0 -211 -75 -229 -179c-18 -105 38 -180 166 -180c127 0 211 75 229 180z
" />
    <glyph glyph-name="fraction" unicode="&#x2044;" horiz-adv-x="227" 
d="M-106 0h-51l525 700h51z" />
    <glyph glyph-name="onehalf" unicode="&#xbd;" horiz-adv-x="815" 
d="M144 300l61 347l-122 -60l9 53l122 60h48l-70 -400h-48zM614 700h51l-525 -700h-51zM781 289c-8 -45 -32 -78 -82 -118l-153 -125h199l-7 -46h-276l7 39l202 166c34 28 57 57 62 87c7 40 -19 74 -69 74c-55 0 -93 -31 -101 -78h-48c13 75 73 124 156 124
c74 0 121 -59 110 -123z" />
    <glyph glyph-name="onequarter" unicode="&#xbc;" horiz-adv-x="829" 
d="M144 300l61 347l-122 -60l9 53l122 60h48l-70 -400h-48zM614 700h51l-525 -700h-51zM783 125l-8 -45h-54l-14 -80h-48l14 80h-213l7 45l199 275h55l-198 -275h158l18 104h48l-18 -104h54z" />
    <glyph glyph-name="threequarters" unicode="&#xbe;" horiz-adv-x="932" 
d="M341 411c-13 -74 -75 -123 -163 -123c-83 0 -134 54 -121 127h48c-8 -46 17 -81 80 -81c62 0 100 35 108 81s-19 82 -79 82h-27l6 36l115 121h-192l7 46h252l-8 -46l-114 -120c65 -12 98 -62 88 -123zM718 700h51l-525 -700h-51zM886 125l-8 -45h-54l-14 -80h-48l14 80
h-213l7 45l199 275h55l-198 -275h158l18 104h48l-18 -104h54z" />
    <glyph glyph-name="oneeighth" unicode="&#x215b;" horiz-adv-x="815" 
d="M144 300l61 347l-122 -60l9 53l122 60h48l-70 -400h-48zM614 700h51l-525 -700h-51zM781 296c-7 -41 -36 -70 -73 -87c38 -21 61 -60 52 -108c-13 -71 -77 -113 -161 -113c-80 0 -134 49 -122 120c9 49 44 86 90 104c-30 19 -50 51 -43 91c13 72 79 109 149 109
c65 0 121 -44 108 -116zM733 300c8 42 -20 67 -68 67c-49 0 -85 -25 -93 -67c-7 -41 22 -68 70 -68c47 0 84 27 91 68zM713 110c8 47 -26 76 -80 76c-57 0 -99 -29 -107 -76c-8 -46 22 -76 81 -76c57 0 98 30 106 76z" />
    <glyph glyph-name="threeeighths" unicode="&#x215c;" horiz-adv-x="919" 
d="M341 411c-13 -74 -75 -123 -163 -123c-83 0 -134 54 -121 127h48c-8 -46 17 -81 80 -81c62 0 100 35 108 81s-19 82 -79 82h-27l6 36l115 121h-192l7 46h252l-8 -46l-114 -120c65 -12 98 -62 88 -123zM718 700h51l-525 -700h-51zM884 296c-7 -41 -36 -70 -73 -87
c38 -21 61 -60 52 -108c-13 -71 -77 -113 -161 -113c-80 0 -134 49 -122 120c9 49 44 86 90 104c-30 19 -50 51 -43 91c13 72 79 109 149 109c65 0 121 -44 108 -116zM836 300c8 42 -20 67 -68 67c-49 0 -85 -25 -93 -67c-7 -41 22 -68 70 -68c47 0 84 27 91 68zM816 110
c8 47 -26 76 -80 76c-57 0 -99 -29 -107 -76c-8 -46 22 -76 81 -76c57 0 98 30 106 76z" />
    <glyph glyph-name="fiveeighths" unicode="&#x215d;" horiz-adv-x="909" 
d="M335 411c-13 -76 -73 -123 -161 -123c-80 0 -132 52 -119 127h48c-8 -49 21 -81 78 -81s97 32 106 81c9 52 -20 84 -77 84h-120l50 201h229l-8 -45h-186l-28 -110h72c78 0 130 -57 116 -134zM708 700h51l-525 -700h-51zM875 296c-7 -41 -36 -70 -73 -87
c38 -21 61 -60 52 -108c-13 -71 -77 -113 -161 -113c-80 0 -134 49 -122 120c9 49 44 86 90 104c-30 19 -50 51 -43 91c13 72 79 109 149 109c65 0 121 -44 108 -116zM827 300c8 42 -20 67 -68 67c-49 0 -85 -25 -93 -67c-7 -41 22 -68 70 -68c47 0 84 27 91 68zM807 110
c8 47 -26 76 -80 76c-57 0 -99 -29 -107 -76c-8 -46 22 -76 81 -76c57 0 98 30 106 76z" />
    <glyph glyph-name="seveneighths" unicode="&#x215e;" horiz-adv-x="878" 
d="M362 700l-7 -39l-216 -361h-53l214 354h-212l8 46h266zM677 700h51l-525 -700h-51zM844 296c-7 -41 -36 -70 -73 -87c38 -21 61 -60 52 -108c-13 -71 -77 -113 -161 -113c-80 0 -134 49 -122 120c9 49 44 86 90 104c-30 19 -50 51 -43 91c13 72 79 109 149 109
c65 0 121 -44 108 -116zM796 300c8 42 -20 67 -68 67c-49 0 -85 -25 -93 -67c-7 -41 22 -68 70 -68c47 0 84 27 91 68zM776 110c8 47 -26 76 -80 76c-57 0 -99 -29 -107 -76c-8 -46 22 -76 81 -76c57 0 98 30 106 76z" />
    <glyph glyph-name="zero.dnom" horiz-adv-x="411" 
d="M161 -12c-103 0 -158 90 -136 216s99 208 207 208c103 0 158 -90 136 -216s-99 -208 -207 -208zM167 34c77 0 134 60 153 166s-17 166 -94 166s-134 -60 -153 -166s18 -166 94 -166z" />
    <glyph glyph-name="one.dnom" horiz-adv-x="246" 
d="M161 400h48l-70 -400h-48l61 347l-122 -60l9 53z" />
    <glyph glyph-name="two.dnom" horiz-adv-x="342" 
d="M-10 0l6 39l203 166c33 28 57 57 62 87c6 40 -19 74 -70 74c-54 0 -93 -31 -101 -78h-48c14 75 73 124 156 124c74 0 122 -59 110 -123c-8 -45 -31 -78 -81 -118l-154 -125h200l-8 -46h-275z" />
    <glyph glyph-name="three.dnom" horiz-adv-x="350" 
d="M323 400l-8 -46l-114 -120c65 -12 98 -62 88 -123c-13 -74 -75 -123 -163 -123c-83 0 -134 54 -121 127h48c-8 -46 17 -81 80 -81c62 0 100 35 108 81s-19 82 -79 82h-27l6 36l115 121h-192l7 46h252z" />
    <glyph glyph-name="four.dnom" horiz-adv-x="356" 
d="M310 125l-8 -45h-54l-14 -80h-48l14 80h-213l7 45l199 275h55l-198 -275h158l18 104h48l-18 -104h54z" />
    <glyph glyph-name="five.dnom" horiz-adv-x="341" 
d="M309 355h-186l-28 -110h72c78 0 130 -57 116 -134c-13 -76 -73 -123 -161 -123c-80 0 -132 52 -119 127h48c-8 -49 21 -81 78 -81s97 32 106 81c9 52 -20 84 -77 84h-120l50 201h229z" />
    <glyph glyph-name="six.dnom" horiz-adv-x="340" 
d="M171 260c82 0 136 -63 122 -140c-14 -78 -84 -132 -169 -132c-81 0 -136 63 -122 141c5 28 17 52 34 72l167 199h61l-122 -142c10 1 19 2 29 2zM245 125c9 53 -23 89 -82 89c-58 0 -104 -36 -113 -89c-9 -54 24 -91 81 -91c59 0 105 37 114 91z" />
    <glyph glyph-name="seven.dnom" horiz-adv-x="309" 
d="M43 400h266l-7 -39l-216 -361h-53l214 354h-212z" />
    <glyph glyph-name="eight.dnom" horiz-adv-x="342" 
d="M308 296c-7 -41 -36 -70 -73 -87c38 -21 61 -60 52 -108c-13 -71 -77 -113 -161 -113c-80 0 -134 49 -122 120c9 49 44 86 90 104c-30 19 -50 51 -43 91c13 72 79 109 149 109c65 0 121 -44 108 -116zM260 300c8 42 -20 67 -68 67c-49 0 -85 -25 -93 -67
c-7 -41 22 -68 70 -68c47 0 84 27 91 68zM240 110c8 47 -26 76 -80 76c-57 0 -99 -29 -107 -76c-8 -46 22 -76 81 -76c57 0 98 30 106 76z" />
    <glyph glyph-name="nine.dnom" horiz-adv-x="339" 
d="M197 412c79 0 136 -63 122 -141c-4 -27 -16 -50 -32 -70l-167 -201h-60l122 143c-10 -2 -21 -3 -32 -3c-79 0 -135 63 -121 140c14 78 85 132 168 132zM76 275c-9 -53 24 -89 83 -89c57 0 104 36 113 89c9 54 -24 91 -82 91s-104 -37 -114 -91z" />
    <glyph glyph-name="zero.numr" horiz-adv-x="411" 
d="M214 288c-103 0 -158 90 -136 216s99 208 207 208c103 0 158 -90 136 -216s-99 -208 -207 -208zM220 334c77 0 134 60 153 166s-17 166 -94 166s-134 -60 -153 -166s18 -166 94 -166z" />
    <glyph glyph-name="one.numr" horiz-adv-x="246" 
d="M214 700h48l-70 -400h-48l61 347l-122 -60l9 53z" />
    <glyph glyph-name="two.numr" horiz-adv-x="342" 
d="M42 300l7 39l202 166c34 28 57 57 62 87c7 40 -19 74 -69 74c-55 0 -93 -31 -101 -78h-48c13 75 73 124 156 124c74 0 121 -59 110 -123c-8 -45 -32 -78 -82 -118l-153 -125h199l-7 -46h-276z" />
    <glyph glyph-name="three.numr" horiz-adv-x="350" 
d="M375 700l-8 -46l-114 -120c65 -12 98 -62 88 -123c-13 -74 -74 -123 -163 -123c-82 0 -133 54 -121 127h48c-8 -46 17 -81 80 -81s100 35 108 81c9 46 -18 82 -79 82h-27l7 36l114 121h-192l8 46h251z" />
    <glyph glyph-name="four.numr" horiz-adv-x="356" 
d="M363 425l-8 -45h-54l-14 -80h-48l14 80h-213l7 45l199 275h55l-198 -275h158l18 104h48l-18 -104h54z" />
    <glyph glyph-name="five.numr" horiz-adv-x="340" 
d="M361 655h-186l-28 -110h73c77 0 129 -57 115 -134c-13 -76 -73 -123 -161 -123c-80 0 -131 52 -118 127h48c-9 -49 21 -81 77 -81c57 0 98 32 106 81c9 52 -20 84 -77 84h-120l50 201h229z" />
    <glyph glyph-name="six.numr" horiz-adv-x="339" 
d="M224 560c81 0 135 -63 121 -140c-14 -78 -83 -132 -168 -132c-82 0 -136 63 -122 141c5 30 18 56 38 77l163 194h60l-122 -142c10 1 20 2 30 2zM298 425c9 53 -24 89 -83 89c-57 0 -104 -36 -113 -89c-9 -54 24 -91 82 -91s104 37 114 91z" />
    <glyph glyph-name="seven.numr" horiz-adv-x="309" 
d="M96 700h266l-7 -39l-216 -361h-53l214 354h-212z" />
    <glyph glyph-name="eight.numr" horiz-adv-x="342" 
d="M361 596c-7 -41 -36 -70 -73 -87c38 -21 61 -60 52 -108c-13 -71 -77 -113 -161 -113c-80 0 -134 49 -122 120c9 49 44 86 90 104c-30 19 -50 51 -43 91c13 72 79 109 149 109c65 0 121 -44 108 -116zM313 600c8 42 -20 67 -68 67c-49 0 -85 -25 -93 -67
c-7 -41 22 -68 70 -68c47 0 84 27 91 68zM293 410c8 47 -26 76 -80 76c-57 0 -99 -29 -107 -76c-8 -46 22 -76 81 -76c57 0 98 30 106 76z" />
    <glyph glyph-name="nine.numr" horiz-adv-x="339" 
d="M250 712c79 0 136 -63 122 -141c-4 -27 -16 -50 -32 -70l-167 -201h-60l122 143c-10 -2 -21 -3 -32 -3c-79 0 -135 63 -121 140c14 78 85 132 168 132zM129 575c-9 -53 24 -89 83 -89c57 0 104 36 113 89c9 54 -24 91 -82 91s-104 -37 -114 -91z" />
    <glyph glyph-name="zero.sups" horiz-adv-x="411" 
d="M242 448c-103 0 -158 90 -136 216s99 208 207 208c103 0 158 -90 136 -216s-99 -208 -207 -208zM248 494c77 0 134 60 153 166s-17 166 -94 166s-134 -60 -153 -166s18 -166 94 -166z" />
    <glyph glyph-name="one.sups" horiz-adv-x="247" 
d="M243 860h48l-70 -400h-48l61 347l-123 -60l10 53z" />
    <glyph glyph-name="two.sups" horiz-adv-x="342" 
d="M71 460l6 39l203 166c33 28 57 57 62 87c6 40 -19 74 -70 74c-54 0 -93 -31 -101 -78h-48c14 75 73 124 156 124c74 0 122 -59 110 -123c-8 -45 -31 -78 -81 -118l-154 -125h200l-8 -46h-275z" />
    <glyph glyph-name="three.sups" horiz-adv-x="350" 
d="M404 860l-8 -46l-114 -120c65 -12 98 -62 88 -123c-13 -74 -75 -123 -163 -123c-83 0 -134 54 -121 127h48c-8 -46 17 -81 80 -81c62 0 100 35 108 81s-19 82 -79 82h-27l6 36l115 121h-192l7 46h252z" />
    <glyph glyph-name="four.sups" horiz-adv-x="356" 
d="M391 585l-8 -45h-54l-14 -80h-48l14 80h-213l7 45l199 275h55l-198 -275h158l18 104h48l-18 -104h54z" />
    <glyph glyph-name="five.sups" horiz-adv-x="340" 
d="M390 815h-186l-28 -110h72c78 0 130 -57 116 -134c-13 -76 -73 -123 -161 -123c-80 0 -132 52 -119 127h48c-8 -49 21 -81 78 -81s97 32 106 81c9 52 -20 84 -77 84h-120l50 201h229z" />
    <glyph glyph-name="six.sups" horiz-adv-x="339" 
d="M252 720c82 0 136 -63 122 -140c-14 -78 -84 -132 -169 -132c-81 0 -136 63 -122 141c5 28 17 52 34 72l167 199h61l-122 -142c10 1 19 2 29 2zM326 585c9 53 -23 89 -82 89c-58 0 -104 -36 -113 -89c-9 -54 24 -91 81 -91c59 0 105 37 114 91z" />
    <glyph glyph-name="seven.sups" horiz-adv-x="310" 
d="M125 860h266l-7 -39l-216 -361h-53l214 354h-212z" />
    <glyph glyph-name="eight.sups" horiz-adv-x="342" 
d="M389 756c-7 -41 -36 -70 -73 -87c38 -21 61 -60 52 -108c-13 -71 -77 -113 -161 -113c-80 0 -134 49 -122 120c9 49 44 86 90 104c-30 19 -50 51 -43 91c13 72 79 109 149 109c65 0 121 -44 108 -116zM341 760c8 42 -20 67 -68 67c-49 0 -85 -25 -93 -67
c-7 -41 22 -68 70 -68c47 0 84 27 91 68zM321 570c8 47 -26 76 -80 76c-57 0 -99 -29 -107 -76c-8 -46 22 -76 81 -76c57 0 98 30 106 76z" />
    <glyph glyph-name="nine.sups" horiz-adv-x="339" 
d="M278 872c79 0 136 -63 122 -141c-4 -27 -16 -50 -32 -70l-167 -201h-60l122 143c-10 -2 -21 -3 -32 -3c-79 0 -135 63 -121 140c14 78 85 132 168 132zM157 735c-9 -53 24 -89 83 -89c57 0 104 36 113 89c9 54 -24 91 -82 91s-104 -37 -114 -91z" />
    <glyph glyph-name="asterisk" unicode="*" horiz-adv-x="387" 
d="M387 611l-7 -43l-95 2l39 -79l-41 -23l-34 84l-63 -84l-38 23l67 79l-95 -2l7 43l95 -2l-40 79l42 23l34 -83l63 83l37 -23l-66 -79z" />
    <glyph glyph-name="backslash" unicode="\" horiz-adv-x="527" 
d="M382 -100l-242 900h40l241 -900h-39z" />
    <glyph glyph-name="periodcentered" unicode="&#xb7;" horiz-adv-x="213" 
d="M84 310l14 80h67l-14 -80h-67z" />
    <glyph glyph-name="bullet" unicode="&#x2022;" horiz-adv-x="280" 
d="M143 263c-48 0 -80 43 -71 91s52 83 102 83c47 0 79 -42 70 -89c-9 -49 -52 -85 -101 -85z" />
    <glyph glyph-name="colon" unicode=":" horiz-adv-x="214" 
d="M103 420l15 80h66l-14 -80h-67zM29 0l15 80h66l-14 -80h-67z" />
    <glyph glyph-name="comma" unicode="," horiz-adv-x="220" 
d="M50 80h67l-17 -93c-11 -66 -40 -103 -93 -113l6 33c25 7 41 27 51 80h-30z" />
    <glyph glyph-name="ellipsis" unicode="&#x2026;" horiz-adv-x="594" 
d="M29 0l15 80h66l-14 -80h-67zM219 0l15 80h66l-14 -80h-67zM409 0l15 80h66l-14 -80h-67z" />
    <glyph glyph-name="exclam" unicode="!" horiz-adv-x="220" 
d="M78 180l46 320l35 200h60l-35 -200l-66 -320h-40zM33 0l14 80h67l-15 -80h-66z" />
    <glyph glyph-name="exclamdown" unicode="&#xa1;" horiz-adv-x="220" 
d="M121 500h66l-14 -80h-66zM103 320h40l-47 -320l-35 -200h-60l35 200z" />
    <glyph glyph-name="numbersign" unicode="#" horiz-adv-x="603" 
d="M588 417h-118l-46 -134h120l-16 -46h-120l-64 -187h-50l64 187h-154l-64 -187h-50l64 187h-119l15 46h120l46 134h-121l16 46h121l64 187h50l-64 -187h154l64 187h50l-64 -187h118zM374 283l46 134h-154l-46 -134h154z" />
    <glyph glyph-name="period" unicode="." horiz-adv-x="214" 
d="M29 0l15 80h66l-14 -80h-67z" />
    <glyph glyph-name="question" unicode="?" horiz-adv-x="532" 
d="M206 180c31 177 235 218 258 351c15 84 -38 129 -129 129c-93 0 -175 -52 -191 -140h-53c22 122 134 191 254 191c107 0 193 -67 172 -184c-26 -152 -231 -194 -257 -347h-54zM168 0l14 80h67l-15 -80h-66z" />
    <glyph glyph-name="questiondown" unicode="&#xbf;" horiz-adv-x="532" 
d="M364 500l-14 -80h-67l14 80h67zM325 320c-31 -177 -234 -218 -257 -351c-15 -84 38 -129 128 -129c94 0 176 52 192 140h53c-22 -122 -134 -191 -254 -191c-107 0 -194 67 -173 184c27 152 231 194 258 347h53z" />
    <glyph glyph-name="quotedbl" unicode="&#x22;" horiz-adv-x="293" 
d="M106 513l26 187h54l-40 -187h-40zM240 513l26 187h53l-39 -187h-40z" />
    <glyph glyph-name="quotesingle" unicode="'" horiz-adv-x="157" 
d="M106 513l26 187h54l-40 -187h-40z" />
    <glyph glyph-name="semicolon" unicode=";" horiz-adv-x="220" 
d="M124 500h67l-14 -80h-67zM34 -13l16 93h67l-17 -93c-11 -66 -40 -103 -93 -113l6 33c25 7 41 27 51 80h-30z" />
    <glyph glyph-name="slash" unicode="/" horiz-adv-x="527" 
d="M24 -100h-43l557 900h42z" />
    <glyph glyph-name="underscore" unicode="_" horiz-adv-x="507" 
d="M-28 -133l9 48h426l-8 -48h-427z" />
    <glyph glyph-name="braceleft" unicode="{" horiz-adv-x="353" 
d="M266 -108c-110 -10 -158 44 -140 148l32 187c15 81 -19 100 -91 100l9 48c72 0 112 19 126 100l33 187c20 115 87 158 193 148l-9 -49c-78 9 -119 -18 -133 -99l-33 -187c-14 -79 -47 -115 -102 -128c49 -13 70 -52 58 -120l-33 -187c-15 -82 18 -108 98 -100z" />
    <glyph glyph-name="braceright" unicode="}" horiz-adv-x="353" 
d="M122 810c110 10 158 -44 140 -148l-32 -187c-15 -81 19 -100 91 -100l-9 -48c-72 0 -112 -19 -126 -100l-33 -187c-20 -115 -87 -158 -193 -148l9 49c78 -9 119 18 133 99l33 187c14 79 47 115 102 128c-49 13 -70 52 -58 120l33 187c15 82 -18 108 -98 100z" />
    <glyph glyph-name="bracketleft" unicode="[" horiz-adv-x="260" 
d="M345 751h-143l-141 -802h143l-9 -49h-184h-10l159 900h51h143z" />
    <glyph glyph-name="bracketright" unicode="]" horiz-adv-x="260" 
d="M294 800l-159 -900h-51h-143l10 49h142l141 802h-142l8 49h194z" />
    <glyph glyph-name="parenleft" unicode="(" horiz-adv-x="251" 
d="M109 -100c-45 139 -58 295 -30 455s93 308 189 445h50c-95 -140 -161 -290 -189 -450s-15 -310 30 -450h-50z" />
    <glyph glyph-name="parenright" unicode=")" horiz-adv-x="251" 
d="M178 800c44 -139 58 -295 30 -455s-94 -308 -189 -445h-51c95 140 161 290 189 450s15 310 -30 450h51z" />
    <glyph glyph-name="emdash" unicode="&#x2014;" horiz-adv-x="765" 
d="M93 285l8 48h592l-8 -48h-592z" />
    <glyph glyph-name="endash" unicode="&#x2013;" horiz-adv-x="665" 
d="M93 285l8 48h492l-8 -48h-492z" />
    <glyph glyph-name="hyphen" unicode="-" horiz-adv-x="533" 
d="M93 285l8 48h360l-8 -48h-360z" />
    <glyph glyph-name="guillemotleft" unicode="&#xab;" horiz-adv-x="473" 
d="M294 482l-141 -177l75 -169h-61l-77 173l138 173h66zM434 482l-140 -177l75 -169h-62l-76 173l137 173h66z" />
    <glyph glyph-name="guillemotright" unicode="&#xbb;" horiz-adv-x="474" 
d="M187 482l77 -173l-138 -173h-66l140 177l-75 169h62zM328 482l76 -173l-137 -173h-66l140 177l-75 169h62z" />
    <glyph glyph-name="guilsinglleft" unicode="&#x2039;" horiz-adv-x="333" 
d="M294 482l-141 -177l75 -169h-61l-77 173l138 173h66z" />
    <glyph glyph-name="guilsinglright" unicode="&#x203a;" horiz-adv-x="334" 
d="M187 482l77 -173l-138 -173h-66l140 177l-75 169h62z" />
    <glyph glyph-name="quotedblbase" unicode="&#x201e;" horiz-adv-x="347" 
d="M34 -13l16 93h67l-17 -93c-11 -66 -40 -103 -93 -113l6 33c25 7 41 27 51 80h-30zM177 80h67l-17 -93c-12 -66 -40 -103 -93 -113l5 33c25 7 42 27 51 80h-30z" />
    <glyph glyph-name="quotedblleft" unicode="&#x201c;" horiz-adv-x="347" 
d="M134 592c11 66 40 103 93 113l-6 -33c-25 -7 -41 -27 -51 -80h30l-16 -93h-67zM348 672c-25 -7 -42 -27 -51 -80h30l-17 -93h-66l16 93c12 66 41 103 94 113z" />
    <glyph glyph-name="quotedblright" unicode="&#x201d;" horiz-adv-x="348" 
d="M143 607l17 93h67l-17 -93c-12 -66 -40 -103 -93 -113l5 33c25 7 42 27 51 80h-30zM287 700h67l-17 -93c-12 -66 -40 -103 -93 -113l5 33c25 7 42 27 51 80h-30z" />
    <glyph glyph-name="quoteleft" unicode="&#x2018;" horiz-adv-x="220" 
d="M221 672c-25 -7 -41 -27 -51 -80h30l-16 -93h-67l17 93c11 66 40 103 93 113z" />
    <glyph glyph-name="quoteright" unicode="&#x2019;" horiz-adv-x="221" 
d="M160 700h67l-17 -93c-12 -66 -40 -103 -93 -113l5 33c25 7 42 27 51 80h-30z" />
    <glyph glyph-name="quotesinglbase" unicode="&#x201a;" horiz-adv-x="220" 
d="M50 80h67l-17 -93c-11 -66 -40 -103 -93 -113l6 33c25 7 41 27 51 80h-30z" />
    <glyph glyph-name="space" unicode=" " horiz-adv-x="267" 
 />
    <glyph glyph-name="cent" unicode="&#xa2;" horiz-adv-x="576" 
d="M286 137c87 0 166 47 204 116h54c-46 -102 -148 -164 -266 -164c-25 0 -48 4 -70 10l-50 -99h-41l56 113c-83 43 -129 137 -110 245c26 148 154 253 304 253c19 0 36 -2 53 -5l47 94h42l-53 -105c66 -25 111 -79 120 -148h-52c-10 48 -42 85 -90 104l-203 -407
c17 -4 35 -7 55 -7zM113 353c-14 -86 18 -160 83 -195l201 402c-11 2 -23 3 -35 3c-122 0 -227 -91 -249 -210z" />
    <glyph glyph-name="currency" unicode="&#xa4;" horiz-adv-x="553" 
d="M564 557l-84 -72c25 -37 36 -85 27 -138c-10 -53 -36 -99 -73 -135l57 -70l-31 -25l-57 69c-42 -30 -94 -47 -146 -47c-50 0 -93 18 -125 47l-83 -69l-24 26l84 71c-25 37 -36 86 -27 139s36 100 73 136l-57 69l30 25l57 -69c43 30 94 47 146 47c50 0 94 -18 126 -48
l83 70zM456 350c16 91 -42 163 -133 163s-175 -72 -190 -163c-17 -91 42 -163 133 -163s174 72 190 163z" />
    <glyph glyph-name="dollar" unicode="$" horiz-adv-x="551" 
d="M537 520h-54c14 76 -34 129 -113 138l-50 -285c95 -39 194 -87 172 -210c-19 -110 -121 -171 -240 -174l-16 -89h-46l16 91c-113 12 -194 82 -173 201h54c-16 -86 35 -140 128 -150l52 297c-90 37 -178 86 -157 205c19 103 113 161 223 167l16 89h46l-16 -90
c99 -11 177 -81 158 -190zM164 539c-14 -78 43 -116 113 -147l47 267c-82 -6 -148 -50 -160 -120zM439 168c15 83 -52 121 -128 153l-50 -281c92 4 165 52 178 128z" />
    <glyph glyph-name="Euro" unicode="&#x20ac;" horiz-adv-x="621" 
d="M627 483h-53c0 113 -56 177 -153 177c-109 0 -196 -81 -242 -223h267l-7 -44h-272c-4 -14 -7 -28 -9 -43c-3 -13 -4 -25 -6 -37h272l-7 -45h-269c-6 -145 53 -228 163 -228c99 0 179 66 217 183h54c-45 -144 -143 -234 -280 -234c-140 0 -213 111 -207 279h-82l8 45h77
l6 42c3 13 5 25 8 38h-77l8 44h81c51 169 160 274 305 274c126 0 201 -88 198 -228z" />
    <glyph glyph-name="florin" unicode="&#x192;" horiz-adv-x="436" 
d="M305 577c40 117 124 155 211 126l-8 -50c-66 29 -125 -4 -151 -77l-69 -201h120l-9 -49h-128l-139 -403c-40 -116 -125 -155 -211 -126l8 50c66 -29 125 4 151 77l138 402h-113l9 49h121z" />
    <glyph glyph-name="uni20BD" unicode="&#x20bd;" horiz-adv-x="577" 
d="M422 700c110 0 191 -98 170 -212c-19 -113 -125 -201 -242 -201h-187l-18 -104h267l-8 -44h-267l-24 -139h-54l25 139h-90l8 44h90l18 104h-90l9 50h89l64 363h54h186zM539 493c16 87 -41 157 -125 157h-187l-55 -313h187c85 0 165 70 180 156z" />
    <glyph glyph-name="sterling" unicode="&#xa3;" horiz-adv-x="580" 
d="M418 711c98 0 191 -69 168 -201l-5 -23h-53l4 23c17 98 -35 150 -122 150c-82 0 -158 -52 -174 -150l-31 -176h240l-9 -48h-240l-41 -235h377l-9 -51h-530l9 51h99l42 235h-80l8 48h80l31 176c23 132 124 201 236 201z" />
    <glyph glyph-name="yen" unicode="&#xa5;" horiz-adv-x="570" 
d="M636 700l-297 -356h175l-8 -45h-186l-14 -77h186l-7 -44h-186l-32 -178h-53l31 178h-184l8 44h184l14 77h-184l7 45h174l-172 356h55l156 -324l270 324h63z" />
    <glyph glyph-name="cent.tf" horiz-adv-x="570" 
d="M284 137c87 0 166 47 204 116h54c-46 -102 -148 -164 -266 -164c-25 0 -48 4 -70 10l-50 -99h-41l56 113c-83 43 -129 137 -110 245c26 148 154 253 304 253c19 0 36 -2 53 -5l47 94h42l-53 -105c66 -25 111 -79 120 -148h-52c-10 48 -42 85 -90 104l-203 -407
c17 -4 35 -7 55 -7zM111 353c-14 -86 18 -160 83 -195l201 402c-11 2 -23 3 -35 3c-122 0 -227 -91 -249 -210z" />
    <glyph glyph-name="dollar.tf" horiz-adv-x="570" 
d="M557 520h-54c14 76 -37 129 -123 138l-50 -283c105 -40 203 -89 181 -212c-18 -110 -122 -171 -249 -174l-16 -89h-46l16 90c-122 12 -204 83 -183 202h54c-16 -87 36 -141 138 -150l52 294c-99 39 -188 88 -167 208c19 105 115 162 233 167l16 89h46l-16 -90
c107 -11 187 -81 168 -190zM164 539c-14 -78 44 -115 123 -147l47 268c-92 -5 -158 -50 -170 -121zM458 168c15 83 -51 119 -137 152l-50 -280c101 4 174 52 187 128z" />
    <glyph glyph-name="Euro.tf" horiz-adv-x="570" 
d="M582 483h-54c11 113 -50 177 -138 177c-102 0 -183 -81 -227 -223h258l-8 -44h-262l-9 -43c-2 -13 -4 -25 -6 -37h263l-8 -45h-259c-7 -145 47 -228 149 -228c88 0 173 66 202 183h54c-36 -144 -139 -234 -265 -234c-131 0 -200 111 -193 279h-67l7 45h63c2 13 4 28 7 42
c2 13 4 25 7 38h-62l7 44h67c50 169 152 274 290 274c113 0 196 -88 184 -228z" />
    <glyph glyph-name="florin.tf" horiz-adv-x="570" 
d="M393 577c47 115 128 155 224 126l-9 -50c-75 29 -133 -7 -162 -77l-83 -201h153l-9 -49h-164l-166 -403c-47 -115 -128 -155 -223 -126l8 50c76 -29 133 7 162 77l166 402h-150l9 49h161z" />
    <glyph glyph-name="uni20BD.tf" horiz-adv-x="570" 
d="M412 700c110 0 191 -98 170 -212c-19 -113 -125 -201 -242 -201h-180l-18 -104h260l-8 -44h-260l-25 -139h-53l24 139h-89l7 44h90l18 104h-90l9 50h90l64 363h53h180zM529 493c16 87 -41 157 -125 157h-180l-56 -313h181c85 0 165 70 180 156z" />
    <glyph glyph-name="sterling.tf" horiz-adv-x="570" 
d="M382 711c95 0 190 -69 167 -201l-4 -23h-54l5 23c16 98 -38 150 -122 150c-83 0 -158 -52 -175 -150l-31 -176h240l-8 -48h-240l-42 -235h377l-9 -51h-530l9 51h100l41 235h-80l9 48h80l31 176c23 133 126 201 236 201z" />
    <glyph glyph-name="yen.tf" horiz-adv-x="570" 
d="M636 700l-297 -356h175l-8 -45h-186l-13 -77h186l-8 -44h-186l-31 -178h-54l32 178h-184l7 44h184l14 77h-184l8 45h173l-171 356h55l156 -324l270 324h62z" />
    <glyph glyph-name="approxequal" unicode="&#x2248;" horiz-adv-x="587" 
d="M310 409c-101 74 -152 22 -179 -40l-43 22c38 88 128 152 252 60c101 -75 152 -22 179 40l43 -22c-37 -88 -126 -153 -252 -60zM102 209l-42 22c37 88 128 152 252 60c101 -75 152 -22 179 40l43 -22c-37 -88 -126 -152 -252 -60c-101 74 -152 22 -180 -40z" />
    <glyph glyph-name="asciitilde" unicode="~" horiz-adv-x="587" 
d="M117 289l-43 22c37 88 128 152 252 60c102 -75 152 -22 180 40l42 -22c-37 -88 -125 -152 -251 -60c-102 74 -153 22 -180 -40z" />
    <glyph glyph-name="divide" unicode="&#xf7;" horiz-adv-x="580" 
d="M333 492c-25 0 -42 21 -37 47c4 25 26 43 52 43c25 0 42 -21 38 -47c-5 -25 -27 -43 -53 -43zM77 326l8 48h453l-8 -48h-453zM267 118c-25 0 -42 21 -37 47c4 25 26 43 52 43c25 0 42 -21 38 -47c-5 -25 -27 -43 -53 -43z" />
    <glyph glyph-name="emptyset" unicode="&#x2205;" horiz-adv-x="819" 
d="M827 720l-108 -108c60 -67 88 -163 70 -268c-36 -200 -221 -355 -425 -355c-78 0 -147 26 -199 70l-80 -79h-58l108 108c-60 68 -89 164 -70 268c35 200 222 355 425 355c79 0 147 -26 199 -70l80 79h58zM112 350c-16 -90 7 -172 56 -229l488 487c-45 37 -105 59 -173 59
c-175 0 -340 -141 -371 -317zM742 350c16 91 -7 172 -56 229l-489 -487c46 -37 105 -59 174 -59c175 0 340 141 371 317z" />
    <glyph glyph-name="equal" unicode="=" horiz-adv-x="537" 
d="M95 426l8 48h410l-8 -48h-410zM59 226l9 48h410l-9 -48h-410z" />
    <glyph glyph-name="greater" unicode="&#x3e;" horiz-adv-x="527" 
d="M117 554l368 -178l-4 -26l-5 -26l-431 -178l11 59l367 148l-315 148z" />
    <glyph glyph-name="greaterequal" unicode="&#x2265;" horiz-adv-x="527" 
d="M124 593l372 -158l-5 -25l-4 -25l-428 -158l11 59l358 127l-313 127zM38 107l9 48h399l-8 -48h-400z" />
    <glyph glyph-name="infinity" unicode="&#x221e;" horiz-adv-x="806" 
d="M635 507c85 0 144 -70 128 -161s-91 -153 -182 -153c-84 0 -132 64 -166 118c-51 -54 -119 -118 -208 -118c-86 0 -144 70 -128 161s91 153 182 153c84 0 133 -64 167 -118c51 54 118 118 207 118zM215 239c68 0 127 56 177 111c-31 56 -70 111 -138 111
c-63 0 -114 -46 -125 -111c-12 -65 23 -111 86 -111zM714 350c11 65 -24 111 -87 111c-67 0 -126 -56 -176 -111c30 -56 70 -111 137 -111c63 0 114 46 126 111z" />
    <glyph glyph-name="integral" unicode="&#x222b;" horiz-adv-x="436" 
d="M-80 -203l9 50c66 -29 120 6 145 77l225 653c39 117 119 155 217 125l-9 -49c-77 29 -131 -6 -156 -77l-225 -653c-39 -116 -120 -155 -206 -126z" />
    <glyph glyph-name="less" unicode="&#x3c;" horiz-adv-x="527" 
d="M517 554l-11 -59l-367 -148l315 -148l-9 -53l-368 178l4 26l5 26z" />
    <glyph glyph-name="lessequal" unicode="&#x2264;" horiz-adv-x="527" 
d="M524 593l-11 -59l-359 -127l314 -127l-9 -53l-372 158l4 25l5 25zM38 107l9 48h399l-8 -48h-400z" />
    <glyph glyph-name="logicalnot" unicode="&#xac;" horiz-adv-x="520" 
d="M480 382l-5 -26h1l-26 -147h-51l22 124h-343l8 49h394z" />
    <glyph glyph-name="uni00B5" unicode="&#xb5;" horiz-adv-x="567" 
d="M432 90c-5 -26 9 -41 34 -41h32l-8 -49h-38c-45 0 -75 30 -72 77c-50 -66 -115 -88 -178 -88c-49 0 -88 20 -110 57l-44 -246h-50l123 700h50l-58 -330h1c-16 -86 28 -133 101 -133c78 0 166 53 188 180h1l49 283h51z" />
    <glyph glyph-name="minus" unicode="&#x2212;" horiz-adv-x="540" 
d="M77 326l8 48h413l-8 -48h-413z" />
    <glyph glyph-name="multiply" unicode="&#xd7;" horiz-adv-x="469" 
d="M455 494l-170 -146l119 -142l-37 -32l-119 142l-166 -142l-33 32l170 146l-119 142l37 32l119 -142l166 142z" />
    <glyph glyph-name="notequal" unicode="&#x2260;" horiz-adv-x="537" 
d="M505 426h-149l-94 -152h216l-9 -48h-238l-96 -154h-43l97 154h-130l9 48h151l95 152h-219l8 48h241l96 154h43l-96 -154h126z" />
    <glyph glyph-name="partialdiff" unicode="&#x2202;" horiz-adv-x="579" 
d="M316 711c151 0 255 -145 216 -366c-42 -234 -171 -356 -319 -356c-124 0 -189 98 -168 216c24 135 124 225 268 225c62 0 124 -18 172 -56c22 157 -38 288 -178 288c-47 0 -90 -10 -134 -35l5 48c44 25 89 36 138 36zM221 37c119 0 216 107 255 285
c-48 43 -110 59 -171 59c-107 0 -189 -65 -209 -181c-16 -92 25 -163 125 -163z" />
    <glyph glyph-name="percent" unicode="%" horiz-adv-x="756" 
d="M246 413c-86 0 -142 69 -127 152s89 146 179 146c87 0 142 -69 127 -152s-87 -146 -179 -146zM59 0l612 700h62l-613 -700h-61zM254 459c61 0 111 45 122 103c10 58 -25 103 -86 103c-60 0 -111 -45 -122 -103c-10 -58 25 -103 86 -103zM494 -11c-86 0 -141 69 -127 152
c15 83 89 146 179 146c87 0 142 -69 127 -152c-14 -83 -89 -146 -179 -146zM502 35c61 0 112 45 122 103s-25 103 -86 103c-60 0 -111 -45 -122 -103c-9 -58 25 -103 86 -103z" />
    <glyph glyph-name="perthousand" unicode="&#x2030;" horiz-adv-x="1103" 
d="M246 413c-86 0 -142 69 -127 152s89 146 179 146c87 0 142 -69 127 -152s-87 -146 -179 -146zM59 0l612 700h62l-613 -700h-61zM254 459c61 0 111 45 122 103c10 58 -25 103 -86 103c-60 0 -111 -45 -122 -103c-10 -58 25 -103 86 -103zM494 -11c-86 0 -141 69 -127 152
c15 83 89 146 179 146c87 0 142 -69 127 -152c-14 -83 -89 -146 -179 -146zM858 -11c-87 0 -142 69 -128 152c15 83 90 146 180 146c86 0 141 -69 126 -152c-14 -83 -88 -146 -178 -146zM502 35c61 0 112 45 122 103s-25 103 -86 103c-60 0 -111 -45 -122 -103
c-9 -58 25 -103 86 -103zM865 35c61 0 112 45 122 103s-25 103 -85 103c-61 0 -112 -45 -122 -103s24 -103 85 -103z" />
    <glyph glyph-name="plus" unicode="+" horiz-adv-x="533" 
d="M492 374l-9 -48h-178l-32 -179h-49l32 179h-179l8 48h179l32 179h49l-32 -179h179z" />
    <glyph glyph-name="plusminus" unicode="&#xb1;" horiz-adv-x="534" 
d="M325 438h178l-8 -49h-179l-30 -169h-49l30 169h-179l9 49h178l30 169h50zM36 93l8 49h407l-8 -49h-407z" />
    <glyph glyph-name="product" unicode="&#x220f;" horiz-adv-x="640" 
d="M8 -200l158 900h466l-158 -900h-50l149 851h-365l-150 -851h-50z" />
    <glyph glyph-name="radical" unicode="&#x221a;" horiz-adv-x="639" 
d="M251 0l-103 251h-84l8 49h110l98 -240l376 740h57l-408 -800h-54z" />
    <glyph glyph-name="summation" unicode="&#x2211;" horiz-adv-x="541" 
d="M-22 -200l8 50l326 414l-170 387l8 49h421l-8 -49h-368l174 -394l-321 -408h389l-9 -49h-450z" />
    <glyph glyph-name="arrowup" unicode="&#x2191;" horiz-adv-x="727" 
d="M689 400l-11 -67l-226 276l-107 -609h-51l106 601l-323 -274l13 73l352 300z" />
    <glyph glyph-name="uni2197" unicode="&#x2197;" horiz-adv-x="640" 
d="M212 587h424l-75 -424l-59 -49l68 385l-500 -424l-31 37l502 427h-387z" />
    <glyph glyph-name="arrowright" unicode="&#x2192;" horiz-adv-x="827" 
d="M534 650l247 -300l-349 -300h-73l321 276h-603l8 48h610l-227 276h66z" />
    <glyph glyph-name="uni2198" unicode="&#x2198;" horiz-adv-x="639" 
d="M583 561l39 -48l-74 -424h-424l-40 48h391l-356 432l39 33l356 -432z" />
    <glyph glyph-name="arrowdown" unicode="&#x2193;" horiz-adv-x="727" 
d="M362 98l323 274l-13 -72l-353 -300l-247 300l12 65l226 -275l107 610h51z" />
    <glyph glyph-name="uni2199" unicode="&#x2199;" horiz-adv-x="640" 
d="M632 564l-503 -427h387l-57 -48h-424l74 424l58 48l-68 -386l501 426z" />
    <glyph glyph-name="arrowleft" unicode="&#x2190;" horiz-adv-x="827" 
d="M785 374l-8 -48h-609l227 -276h-67l-247 300l353 300l71 -1l-323 -275h603z" />
    <glyph glyph-name="uni2196" unicode="&#x2196;" horiz-adv-x="639" 
d="M586 539h-391l356 -431l-39 -33l-355 431l-69 -391l-40 48l75 424h424z" />
    <glyph glyph-name="arrowboth" unicode="&#x2194;" horiz-adv-x="1033" 
d="M785 597l203 -247l-290 -247h-72l261 223h-720l183 -223h-66l-203 247l290 247h72l-261 -223h720l-183 223h66z" />
    <glyph glyph-name="arrowupdn" unicode="&#x2195;" horiz-adv-x="627" 
d="M602 491l-181 221l-128 -718l260 222l-13 -73l-289 -246l-203 246l12 66l181 -221l128 718l-261 -221l13 72l290 246l202 -246z" />
    <glyph glyph-name="lozenge" unicode="&#x25ca;" horiz-adv-x="538" 
d="M199 0l-124 350l247 350h52l125 -350l-248 -350h-52zM232 55l213 301l-103 289l-213 -301z" />
    <glyph glyph-name="bar" unicode="|" horiz-adv-x="224" 
d="M8 -200l162 920h50l-162 -920h-50z" />
    <glyph glyph-name="brokenbar" unicode="&#xa6;" horiz-adv-x="224" 
d="M105 350l65 370h50l-65 -370h-50zM8 -200l65 370h50l-65 -370h-50z" />
    <glyph glyph-name="at" unicode="@" horiz-adv-x="808" 
d="M475 612c216 0 318 -182 289 -347c-27 -153 -106 -204 -175 -204c-54 0 -89 32 -90 89c-32 -37 -79 -60 -131 -60c-89 0 -150 73 -134 163s94 157 190 157c49 0 87 -25 107 -63l10 56h48l-39 -223c-8 -49 0 -91 50 -91c59 0 115 55 137 181c32 180 -83 317 -266 317
c-189 0 -362 -142 -396 -334c-35 -195 91 -340 295 -340c68 0 125 9 176 28l-2 -26c-50 -17 -108 -27 -179 -27c-216 0 -354 159 -317 369c35 200 219 355 427 355zM379 136c63 0 122 45 135 111l1 6c10 66 -33 111 -96 111c-64 0 -125 -46 -137 -114s32 -114 97 -114z" />
    <glyph glyph-name="ampersand" unicode="&#x26;" horiz-adv-x="657" 
d="M601 314c-12 -71 -40 -151 -95 -214l83 -100h-66l-54 64c-54 -45 -128 -75 -227 -75c-129 0 -220 84 -198 206c15 85 74 150 156 192c-28 40 -45 84 -34 145c20 113 121 179 235 179c105 0 195 -69 173 -191h-53c16 88 -39 140 -128 140c-88 0 -159 -53 -174 -132
c-9 -56 13 -102 50 -146l205 -244c36 45 61 104 74 176h53zM250 40c76 0 139 21 187 62l-208 247c-76 -37 -121 -96 -132 -159c-16 -91 50 -150 153 -150z" />
    <glyph glyph-name="paragraph" unicode="&#xb6;" horiz-adv-x="570" 
d="M606 700l-9 -47h-60l-149 -853h-50l150 853h-131l-150 -853h-49l90 513c-107 0 -177 91 -159 198c19 107 119 189 227 189h49h181h60z" />
    <glyph glyph-name="copyright" unicode="&#xa9;" horiz-adv-x="818" 
d="M363 -11c-198 0 -334 166 -298 366c35 200 222 356 425 356c198 0 333 -166 298 -366c-36 -200 -222 -356 -425 -356zM367 13c187 0 361 150 394 337s-90 337 -275 337c-187 0 -362 -150 -394 -337c-33 -187 90 -337 275 -337zM396 158c-107 0 -179 90 -160 197
s114 187 227 187c86 0 152 -59 157 -136h-52c-6 57 -55 89 -113 89c-87 0 -156 -68 -169 -145c-14 -77 31 -145 118 -145c58 0 117 32 144 89h52c-33 -80 -112 -136 -204 -136z" />
    <glyph glyph-name="registered" unicode="&#xae;" horiz-adv-x="818" 
d="M490 711c198 0 333 -166 298 -366c-36 -200 -222 -356 -425 -356c-198 0 -334 166 -298 366c35 200 222 356 425 356zM761 350c33 187 -90 337 -275 337c-187 0 -362 -150 -394 -337c-33 -187 90 -337 275 -337c187 0 361 150 394 337zM463 535c89 0 126 -60 116 -119
c-9 -52 -40 -89 -94 -104l88 -147h-51l-85 139h-15h-63l-24 -139h-48l65 370h48h63zM531 419c8 41 -17 70 -73 70h-66l-25 -139h66c58 0 91 27 98 69z" />
    <glyph glyph-name="section" unicode="&#xa7;" horiz-adv-x="520" 
d="M486 548h-50c14 80 -41 115 -109 115c-65 0 -126 -33 -137 -94c-12 -71 63 -106 138 -144c72 -37 151 -83 136 -173c-9 -50 -44 -91 -91 -118c25 -28 40 -62 31 -108c-14 -82 -90 -138 -204 -138c-106 0 -180 61 -161 164h50c-14 -81 42 -115 119 -115
c74 0 135 32 146 94c13 71 -67 107 -144 145c-73 37 -152 83 -136 171c9 51 45 92 95 120c-24 27 -38 62 -30 107c15 82 93 137 196 137c96 0 169 -60 151 -163zM413 257c11 63 -49 96 -113 127c-33 16 -68 33 -97 53c-47 -23 -72 -58 -78 -94c-12 -62 48 -96 111 -126
c34 -16 71 -33 102 -54c44 24 68 58 75 94z" />
    <glyph glyph-name="trademark" unicode="&#x2122;" horiz-adv-x="478" 
d="M275 669h-59l-30 -169h-33l29 169h-58l5 31h92h59zM507 700l-35 -200h-33l25 145l-68 -101h-32l-33 102l-26 -146h-33l35 200h33h6l38 -121l81 121h42z" />
    <glyph glyph-name="degree" unicode="&#xb0;" horiz-adv-x="386" 
d="M240 517c-84 0 -137 69 -123 150s87 143 175 143c84 0 138 -69 123 -150c-13 -81 -80 -143 -175 -143zM249 563c58 0 108 44 117 100c10 57 -24 101 -82 101c-59 0 -108 -44 -118 -101c-9 -56 22 -100 83 -100z" />
    <glyph glyph-name="estimated" unicode="&#x212e;" horiz-adv-x="833" 
d="M498 710c217 0 342 -161 307 -360c-2 -10 -8 -15 -18 -15h-560c-10 0 -16 -5 -18 -15l-33 -192c-2 -8 -1 -13 3 -19c44 -57 113 -89 218 -89c99 0 183 36 250 97c6 6 9 9 19 9h35c13 0 17 -9 6 -19c-80 -72 -185 -117 -316 -117c-237 0 -360 171 -325 370
s207 350 432 350zM695 574c1 8 0 13 -4 19c-44 57 -113 87 -198 87s-165 -32 -229 -89c-6 -6 -9 -11 -10 -19l-34 -192c-2 -10 2 -15 12 -15h410c10 0 16 5 18 15z" />
    <glyph glyph-name="uni2116" unicode="&#x2116;" horiz-adv-x="967" 
d="M799 418c-83 0 -137 69 -123 150c15 81 87 143 175 143c85 0 138 -69 124 -150s-81 -143 -176 -143zM569 700h53l-123 -700h-42l-256 596l-105 -596h-53l123 700h42l257 -596zM808 464c59 0 108 44 117 101c10 56 -24 100 -82 100s-108 -44 -118 -100
c-9 -57 22 -101 83 -101zM638 290l9 49h277l-9 -49h-277z" />
    <glyph glyph-name="asciicircum" unicode="^" horiz-adv-x="502" 
d="M354 700l124 -300h-55l-99 243l-185 -243h-63l228 300h50z" />
    <glyph glyph-name="dagger" unicode="&#x2020;" horiz-adv-x="473" 
d="M459 527l-9 -48h-148l-84 -479h-51l84 479h-147l8 48h148l30 173h51l-30 -173h148z" />
    <glyph glyph-name="daggerdbl" unicode="&#x2021;" horiz-adv-x="473" 
d="M450 479h-148l-45 -258h148l-9 -48h-148l-30 -173h-51l31 173h-148l8 48h148l45 258h-147l8 48h148l30 173h51l-30 -173h148z" />
    <glyph glyph-name="uni0308" unicode="&#x308;" horiz-adv-x="0" 
d="M-215 580l13 73h60l-13 -73h-60zM-22 580l13 73h60l-13 -73h-60z" />
    <glyph glyph-name="uni0307" unicode="&#x307;" horiz-adv-x="0" 
d="M-32 580l15 83h67l-15 -83h-67z" />
    <glyph glyph-name="gravecomb" unicode="&#x300;" horiz-adv-x="0" 
d="M37 570l-58 127h-60l70 -127h48z" />
    <glyph glyph-name="acutecomb" unicode="&#x301;" horiz-adv-x="0" 
d="M-103 570h50l112 127h-62z" />
    <glyph glyph-name="uni030B" unicode="&#x30b;" horiz-adv-x="0" 
d="M-238 570h52l96 130h-58zM-96 570h53l105 130h-58z" />
    <glyph glyph-name="uni0302" unicode="&#x302;" horiz-adv-x="0" 
d="M37 570h-55l-64 95l-97 -95h-60l130 127h59z" />
    <glyph glyph-name="uni030C" unicode="&#x30c;" horiz-adv-x="0" 
d="M-2 697h61l-130 -127h-59l-86 127h54l64 -95z" />
    <glyph glyph-name="uni0306" unicode="&#x306;" horiz-adv-x="0" 
d="M-103 565c-76 0 -127 46 -113 122h48c-9 -54 18 -78 71 -78s90 28 99 78h48c-13 -76 -68 -122 -153 -122z" />
    <glyph glyph-name="uni030A" unicode="&#x30a;" horiz-adv-x="0" 
d="M-69 553c-58 0 -95 44 -85 99s56 95 119 95c58 0 95 -44 86 -99c-10 -55 -56 -95 -120 -95zM-62 593c38 0 65 24 71 57c5 33 -13 57 -51 57c-37 0 -64 -24 -69 -57c-6 -33 12 -57 49 -57z" />
    <glyph glyph-name="tildecomb" unicode="&#x303;" horiz-adv-x="0" 
d="M-233 583c18 115 92 134 151 74c47 -48 81 -49 95 28h44c-19 -114 -92 -133 -151 -74c-48 49 -81 49 -95 -28h-44z" />
    <glyph glyph-name="uni0304" unicode="&#x304;" horiz-adv-x="0" 
d="M-214 587l8 44h253l-7 -44h-254z" />
    <glyph glyph-name="uni0312" unicode="&#x312;" horiz-adv-x="0" 
d="M69 960l-55 -170h51l40 170h-36z" />
    <glyph glyph-name="uni0326" unicode="&#x326;" horiz-adv-x="0" 
d="M-131 -240l55 170h-51l-40 -170h36z" />
    <glyph glyph-name="uni0327" unicode="&#x327;" horiz-adv-x="0" 
d="M-165 -56c49 -6 85 -36 78 -79c-9 -49 -57 -89 -209 -76l8 41c98 -10 150 7 156 39c5 29 -26 45 -84 43l16 88h45z" />
    <glyph glyph-name="uni0328" unicode="&#x328;" horiz-adv-x="0" 
d="M-154 -211c-53 0 -74 39 -67 80c7 43 41 86 102 131h55c-60 -45 -100 -90 -106 -127c-4 -24 9 -41 34 -41c16 0 29 3 44 9l-8 -43c-15 -7 -32 -9 -54 -9z" />
    <glyph glyph-name="acute" unicode="&#xb4;" horiz-adv-x="179" 
d="M76 570h50l112 127h-62z" />
    <glyph glyph-name="breve" unicode="&#x2d8;" horiz-adv-x="307" 
d="M211 565c-77 0 -128 46 -114 122h49c-10 -54 18 -78 71 -78s89 28 98 78h49c-14 -76 -69 -122 -153 -122z" />
    <glyph glyph-name="caron" unicode="&#x2c7;" horiz-adv-x="315" 
d="M313 697h61l-130 -127h-59l-86 127h54l64 -95z" />
    <glyph glyph-name="cedilla" unicode="&#xb8;" horiz-adv-x="235" 
d="M70 -56c49 -6 85 -36 77 -79c-8 -49 -56 -89 -208 -76l7 41c99 -10 151 7 157 39c5 29 -26 45 -84 43l15 88h46z" />
    <glyph glyph-name="circumflex" unicode="&#x2c6;" horiz-adv-x="315" 
d="M351 570h-54l-64 95l-97 -95h-60l130 127h58h1z" />
    <glyph glyph-name="dieresis" unicode="&#xa8;" horiz-adv-x="293" 
d="M78 580l13 73h60l-13 -73h-60zM271 580l13 73h60l-13 -73h-60z" />
    <glyph glyph-name="dotaccent" unicode="&#x2d9;" horiz-adv-x="107" 
d="M78 580l15 83h67l-15 -83h-67z" />
    <glyph glyph-name="grave" unicode="`" horiz-adv-x="181" 
d="M217 570l-58 127h-60l70 -127h48z" />
    <glyph glyph-name="hungarumlaut" unicode="&#x2dd;" horiz-adv-x="317" 
d="M76 570h53l96 130h-58zM218 570h53l105 130h-58z" />
    <glyph glyph-name="macron" unicode="&#xaf;" horiz-adv-x="293" 
d="M79 587l8 44h253l-7 -44h-254z" />
    <glyph glyph-name="ogonek" unicode="&#x2db;" horiz-adv-x="174" 
d="M20 -211c-53 0 -74 39 -67 80c7 43 41 86 102 131h55c-60 -45 -100 -90 -106 -127c-4 -24 9 -41 34 -41c16 0 29 3 44 9l-8 -43c-15 -7 -32 -9 -54 -9z" />
    <glyph glyph-name="ring" unicode="&#x2da;" horiz-adv-x="245" 
d="M176 553c-58 0 -95 44 -85 99s56 95 119 95c58 0 95 -44 86 -99c-10 -55 -56 -95 -120 -95zM183 593c38 0 65 24 71 57c5 33 -13 57 -51 57c-37 0 -64 -24 -69 -57c-6 -33 12 -57 49 -57z" />
    <glyph glyph-name="tilde" unicode="&#x2dc;" horiz-adv-x="312" 
d="M79 583c18 115 92 134 151 74c47 -48 81 -49 95 28h44c-19 -114 -92 -133 -151 -74c-48 49 -81 49 -95 -28h-44z" />
    <glyph glyph-name="brevecy" horiz-adv-x="293" 
d="M79 587l8 44h253l-7 -44h-254z" />
    </font>
</defs>
</svg>
